M48
METRIC,LZ,000.000
;FILE_FORMAT=3:3
;TYPE=PLATED
;Layer: PTH_Through
;EasyEDA v6.5.51, 2025-12-08 14:24:17
;98b1bcbd0d5e4b16acd7f0c7b3cc8b20,5c2208001c9440858be6b933671931b3,10
;Gerber Generator version 0.2
;Holesize 1 = 0.306 mm
T01C0.306
;Holesize 2 = 0.889 mm
T02C0.889
;Holesize 3 = 0.915 mm
T03C0.915
;Holesize 4 = 1.101 mm
T04C1.101
;Holesize 5 = 1.499 mm
T05C1.499
%
G05
G90
T01
X010566Y033575
T02
X027164Y028378
X027164Y025838
X027164Y023298
X027164Y020758
X027164Y018218
X027164Y015678
X027164Y013138
X042564Y028378
X042564Y025838
X042564Y023298
X042564Y020758
X042564Y018218
X042564Y015678
X042586Y013138
T03
X033464Y023238
X033524Y019836
X036064Y019836
X036064Y017296
X033524Y017296
X033569Y014756
X036109Y014756
X033569Y012216
X036109Y012216
X039287Y020468
X039287Y018580
X011554Y015113G85X011560Y015113
X011554Y017653G85X011560Y017653
X011554Y020193G85X011560Y020193
X019174Y015113G85X019180Y015113
X019174Y017653G85X019180Y017653
X019174Y020193G85X019180Y020193
T04
X021590Y071628
X024130Y071628
X026670Y071628
X029210Y071628
T05
X033464Y023238
M30
