G04 Layer: BottomLayer*
G04 EasyEDA v6.5.51, 2025-12-08 14:24:17*
G04 98b1bcbd0d5e4b16acd7f0c7b3cc8b20,5c2208001c9440858be6b933671931b3,10*
G04 Gerber Generator version 0.2*
G04 Scale: 100 percent, Rotated: No, Reflected: No *
G04 Dimensions in millimeters *
G04 leading zeros omitted , absolute positions ,4 integer and 5 decimal *
%FSLAX45Y45*%
%MOMM*%

%ADD10C,0.2540*%
%ADD11C,1.5240*%
%ADD12C,1.5748*%
%ADD13C,1.5750*%
%ADD14R,2.5000X2.5000*%
%ADD15R,0.0130X2.5000*%
%ADD16C,1.6500*%
%ADD17C,0.6100*%

%LPD*%
D10*
X1917702Y1765297D02*
G01*
X2659915Y1765297D01*
X2716405Y1821787D01*
X1917702Y2019297D02*
G01*
X1155702Y2019297D01*
X1155702Y1765297D02*
G01*
X1046228Y1874771D01*
X1046228Y2083610D01*
X1154686Y2192068D01*
X2801876Y2192068D01*
X2841678Y2152266D01*
X3784297Y2152266D01*
X3800782Y2168751D01*
X4163443Y2168751D01*
X4256407Y2075787D01*
X1155702Y1511297D02*
G01*
X1265811Y1621406D01*
X2027760Y1621406D01*
X2096137Y1689783D01*
X2986788Y1689783D01*
X3072259Y1604312D01*
X4038932Y1604312D01*
X4256407Y1821787D01*
X4256407Y1567787D02*
G01*
X4042158Y1353538D01*
X3088439Y1353538D01*
X3001190Y1440787D01*
X1988212Y1440787D01*
X1917702Y1511297D01*
X1056617Y3357547D02*
G01*
X1942645Y3357547D01*
X2716405Y2583787D01*
X2667002Y7162797D02*
G01*
X2667002Y4173192D01*
X4256407Y2583787D01*
D11*
G01*
X3346399Y2323795D03*
G01*
X3352393Y1983587D03*
G01*
X3606393Y1983587D03*
G01*
X3606393Y1729587D03*
G01*
X3352393Y1729587D03*
G01*
X3356889Y1475587D03*
G01*
X3610889Y1475587D03*
G01*
X3356889Y1221587D03*
G01*
X3610889Y1221587D03*
G01*
X3928694Y2046833D03*
G01*
X3928694Y1858035D03*
D12*
G01*
X2716402Y2837789D03*
G01*
X2716402Y2583789D03*
G01*
X2716402Y2329789D03*
G01*
X2716402Y2075789D03*
G01*
X2716402Y1821789D03*
G01*
X2716402Y1567789D03*
G01*
X2716402Y1313814D03*
G01*
X4256404Y2837789D03*
G01*
X4256404Y2583789D03*
G01*
X4256404Y2329789D03*
D13*
G01*
X4256404Y2075789D03*
G01*
X4256404Y1821789D03*
G01*
X4256404Y1567789D03*
G01*
X4258614Y1313814D03*
D14*
G01*
X3346399Y2323795D03*
D16*
G01*
X2159000Y7162800D03*
G01*
X2413000Y7162800D03*
G01*
X2667000Y7162800D03*
G01*
X2921000Y7162800D03*
D11*
G01*
X1155700Y1511300D03*
G01*
X1155700Y1765300D03*
G01*
X1155700Y2019300D03*
G01*
X1917700Y1511300D03*
G01*
X1917700Y1765300D03*
G01*
X1917700Y2019300D03*
D17*
G01*
X1056614Y3357549D03*
M02*
