G04 Layer: TopSolderMaskLayer*
G04 EasyEDA v6.5.51, 2025-12-08 14:24:17*
G04 98b1bcbd0d5e4b16acd7f0c7b3cc8b20,5c2208001c9440858be6b933671931b3,10*
G04 Gerber Generator version 0.2*
G04 Scale: 100 percent, Rotated: No, Reflected: No *
G04 Dimensions in millimeters *
G04 leading zeros omitted , absolute positions ,4 integer and 5 decimal *
%FSLAX45Y45*%
%MOMM*%

%AMMACRO1*4,1,8,-1.2711,-1.301,-1.301,-1.2711,-1.301,1.2711,-1.2711,1.301,1.2711,1.301,1.301,1.2711,1.301,-1.2711,1.2711,-1.301,-1.2711,-1.301,0*%
%AMMACRO2*4,1,8,-0.5211,-0.4258,-0.5508,-0.396,-0.5508,0.3961,-0.5211,0.4258,0.521,0.4258,0.5508,0.3961,0.5508,-0.396,0.521,-0.4258,-0.5211,-0.4258,0*%
%ADD10C,1.2016*%
%ADD11C,1.6256*%
%ADD12C,1.6764*%
%ADD13C,1.6770*%
%ADD14MACRO1*%
%ADD15C,0.0144*%
%ADD16C,1.7500*%
%ADD17MACRO2*%

%LPD*%
D10*
G01*
X3352393Y1983587D03*
G01*
X3606393Y1983587D03*
G01*
X3606393Y1729587D03*
G01*
X3352393Y1729587D03*
G01*
X3610889Y1475587D03*
G01*
X3356889Y1475587D03*
G01*
X3356889Y1221587D03*
G01*
X3610889Y1221587D03*
D11*
G01*
X3346399Y2323795D03*
G01*
X3352393Y1983587D03*
G01*
X3606393Y1983587D03*
G01*
X3606393Y1729587D03*
G01*
X3352393Y1729587D03*
G01*
X3356889Y1475587D03*
G01*
X3610889Y1475587D03*
G01*
X3356889Y1221587D03*
G01*
X3610889Y1221587D03*
G01*
X3928694Y2046833D03*
G01*
X3928694Y1858035D03*
D12*
G01*
X2716402Y2837789D03*
G01*
X2716402Y2583789D03*
G01*
X2716402Y2329789D03*
G01*
X2716402Y2075789D03*
G01*
X2716402Y1821789D03*
G01*
X2716402Y1567789D03*
G01*
X2716402Y1313814D03*
G01*
X4256404Y2837789D03*
G01*
X4256404Y2583789D03*
G01*
X4256404Y2329789D03*
D13*
G01*
X4256404Y2075789D03*
G01*
X4256404Y1821789D03*
G01*
X4256404Y1567789D03*
G01*
X4258614Y1313814D03*
D14*
G01*
X3346400Y2323799D03*
D16*
G01*
X2159000Y7162800D03*
G01*
X2413000Y7162800D03*
G01*
X2667000Y7162800D03*
G01*
X2921000Y7162800D03*
D17*
G01*
X1770100Y3766395D03*
G01*
X2370099Y3766395D03*
G01*
X1770100Y3396404D03*
G01*
X2370099Y3396404D03*
G01*
X3560800Y3766395D03*
G01*
X4160799Y3766395D03*
G01*
X3560800Y3396404D03*
G01*
X4160799Y3396404D03*
G01*
X906500Y3766395D03*
G01*
X1506499Y3766395D03*
G01*
X906500Y3396404D03*
G01*
X1506499Y3396404D03*
G01*
X2709900Y3766395D03*
G01*
X3309899Y3766395D03*
G01*
X2709900Y3396404D03*
G01*
X3309899Y3396404D03*
D11*
G01*
X1155700Y1511300D03*
G01*
X1155700Y1765300D03*
G01*
X1155700Y2019300D03*
G01*
X1917700Y1511300D03*
G01*
X1917700Y1765300D03*
G01*
X1917700Y2019300D03*
M02*
