G04 Layer: TopSilkscreenLayer*
G04 EasyEDA v6.5.51, 2025-12-08 14:24:17*
G04 98b1bcbd0d5e4b16acd7f0c7b3cc8b20,5c2208001c9440858be6b933671931b3,10*
G04 Gerber Generator version 0.2*
G04 Scale: 100 percent, Rotated: No, Reflected: No *
G04 Dimensions in millimeters *
G04 leading zeros omitted , absolute positions ,4 integer and 5 decimal *
%FSLAX45Y45*%
%MOMM*%

%ADD10C,0.2032*%
%ADD11C,0.1524*%
%ADD12C,0.1500*%
%ADD13C,0.1000*%
%ADD14C,0.1219*%
%ADD15C,0.1270*%
%ADD16C,0.2540*%
%ADD17C,0.0148*%
%ADD18C,0.0099*%

%LPD*%
G36*
X2544419Y2827324D02*
G01*
X2540406Y2827274D01*
X2536393Y2826410D01*
X2532735Y2824988D01*
X2528149Y2822549D01*
X2534158Y2822549D01*
X2534158Y2823210D01*
X2535783Y2824429D01*
X2541066Y2825292D01*
X2544267Y2825343D01*
X2544622Y2824327D01*
X2543708Y2823260D01*
X2540914Y2821990D01*
X2535732Y2821686D01*
X2534158Y2822549D01*
X2528149Y2822549D01*
X2525725Y2820416D01*
X2527350Y2818688D01*
X2531059Y2817622D01*
X2536901Y2818384D01*
X2544622Y2820720D01*
X2548737Y2822803D01*
X2551277Y2824784D01*
X2551074Y2826512D01*
X2548382Y2827324D01*
G37*
G36*
X2199081Y2825699D02*
G01*
X2197811Y2825648D01*
X2195982Y2824683D01*
X2195982Y2823616D01*
X2198217Y2823972D01*
X2200706Y2824988D01*
X2200300Y2825699D01*
G37*
G36*
X2213813Y2825699D02*
G01*
X2212848Y2825038D01*
X2214727Y2824378D01*
X2216353Y2824784D01*
X2216099Y2825496D01*
G37*
G36*
X2218334Y2825343D02*
G01*
X2218334Y2824734D01*
X2220417Y2823006D01*
X2221128Y2823260D01*
X2221382Y2824022D01*
X2219147Y2825343D01*
G37*
G36*
X2202484Y2822600D02*
G01*
X2196846Y2822143D01*
X2192477Y2820974D01*
X2187651Y2818688D01*
X2186736Y2816860D01*
X2186279Y2814370D01*
X2187092Y2814370D01*
X2191156Y2817469D01*
X2195423Y2819450D01*
X2200503Y2820822D01*
X2212136Y2820873D01*
X2216454Y2819704D01*
X2222652Y2817063D01*
X2224328Y2817063D01*
X2224328Y2817672D01*
X2221484Y2819349D01*
X2215438Y2821330D01*
X2209139Y2822295D01*
G37*
G36*
X2273096Y2818384D02*
G01*
X2271979Y2817164D01*
X2271979Y2815386D01*
X2272995Y2814980D01*
X2274671Y2816098D01*
X2274468Y2818231D01*
G37*
G36*
X2257298Y2817723D02*
G01*
X2257298Y2817164D01*
X2259126Y2815437D01*
X2261158Y2814421D01*
X2263597Y2813964D01*
X2265730Y2814472D01*
X2264816Y2815031D01*
X2262682Y2815031D01*
X2260854Y2815742D01*
X2258618Y2817723D01*
G37*
G36*
X2203805Y2817672D02*
G01*
X2201265Y2817164D01*
X2200554Y2816402D01*
X2202484Y2815691D01*
X2207869Y2815285D01*
X2212949Y2815742D01*
X2214118Y2816606D01*
X2212492Y2817520D01*
G37*
G36*
X2195677Y2815742D02*
G01*
X2194153Y2815691D01*
X2190800Y2813761D01*
X2189937Y2812745D01*
X2190292Y2811729D01*
X2192172Y2812135D01*
X2195220Y2813659D01*
X2196084Y2814726D01*
G37*
G36*
X2218334Y2815742D02*
G01*
X2218334Y2814421D01*
X2219807Y2812745D01*
X2221992Y2812745D01*
X2221992Y2813862D01*
X2221179Y2814929D01*
X2219706Y2815742D01*
G37*
G36*
X2198319Y2813050D02*
G01*
X2197862Y2811983D01*
X2199132Y2811068D01*
X2201164Y2811068D01*
X2202129Y2811678D01*
X2200198Y2813050D01*
G37*
G36*
X2256028Y2812389D02*
G01*
X2255723Y2811881D01*
X2256231Y2810560D01*
X2257298Y2809697D01*
X2257958Y2810103D01*
X2257958Y2811576D01*
X2257196Y2812389D01*
G37*
G36*
X2223820Y2811068D02*
G01*
X2205177Y2804820D01*
X2197862Y2801721D01*
X2194610Y2799689D01*
X2194814Y2798622D01*
X2196033Y2798368D01*
X2200249Y2801112D01*
X2203907Y2802382D01*
X2206650Y2802839D01*
X2206650Y2802229D01*
X2204821Y2800553D01*
X2200706Y2798114D01*
X2196998Y2796438D01*
X2194864Y2796438D01*
X2192985Y2798216D01*
X2190343Y2797403D01*
X2185466Y2794152D01*
X2182012Y2790494D01*
X2182012Y2789021D01*
X2184501Y2789377D01*
X2185771Y2789885D01*
X2184908Y2787446D01*
X2185873Y2787446D01*
X2187092Y2788767D01*
X2186686Y2789834D01*
X2187600Y2791663D01*
X2190496Y2794304D01*
X2192629Y2795168D01*
X2193747Y2794762D01*
X2192426Y2793288D01*
X2191664Y2791815D01*
X2191664Y2791104D01*
X2193340Y2791104D01*
X2193340Y2791968D01*
X2195474Y2793390D01*
X2196338Y2793441D01*
X2196338Y2792831D01*
X2194255Y2791104D01*
X2191664Y2791104D01*
X2191664Y2789885D01*
X2192528Y2789123D01*
X2195474Y2790596D01*
X2199487Y2794711D01*
X2202484Y2796692D01*
X2205482Y2798165D01*
X2210866Y2801721D01*
X2220163Y2806801D01*
X2223566Y2809341D01*
X2224633Y2810459D01*
X2224633Y2811068D01*
G37*
G36*
X2261463Y2811068D02*
G01*
X2259990Y2810002D01*
X2259990Y2809087D01*
X2261158Y2809087D01*
X2263292Y2810408D01*
X2263292Y2811068D01*
G37*
G36*
X2273808Y2811018D02*
G01*
X2272639Y2810662D01*
X2272639Y2809697D01*
X2274468Y2808986D01*
X2281478Y2808681D01*
X2280818Y2809341D01*
X2276449Y2810662D01*
G37*
G36*
X2235301Y2810713D02*
G01*
X2235301Y2809544D01*
X2234539Y2808782D01*
X2231796Y2809138D01*
X2225497Y2807106D01*
X2217166Y2802940D01*
X2216962Y2802178D01*
X2221636Y2803093D01*
X2221636Y2802585D01*
X2217978Y2799638D01*
X2218232Y2799384D01*
X2221484Y2801010D01*
X2222601Y2802229D01*
X2222804Y2804261D01*
X2225700Y2804769D01*
X2226310Y2806395D01*
X2227072Y2806395D01*
X2229256Y2804769D01*
X2229561Y2804769D01*
X2229459Y2806852D01*
X2231491Y2807411D01*
X2233930Y2807004D01*
X2236012Y2808122D01*
X2236622Y2809748D01*
X2236266Y2810713D01*
G37*
G36*
X2313076Y2810713D02*
G01*
X2312619Y2810306D01*
X2312619Y2808224D01*
X2313279Y2807258D01*
X2313940Y2809138D01*
X2313533Y2810713D01*
G37*
G36*
X2267762Y2809748D02*
G01*
X2267305Y2809290D01*
X2267305Y2807817D01*
X2268270Y2807004D01*
X2269439Y2807258D01*
X2269642Y2807970D01*
X2268270Y2809748D01*
G37*
G36*
X2246477Y2809646D02*
G01*
X2244242Y2809138D01*
X2243632Y2808224D01*
X2243632Y2806395D01*
X2241042Y2803906D01*
X2229916Y2797251D01*
X2226462Y2794457D01*
X2223516Y2793034D01*
X2219807Y2790545D01*
X2217013Y2789123D01*
X2215997Y2789123D01*
X2215997Y2787904D01*
X2213965Y2784805D01*
X2213965Y2784449D01*
X2216150Y2785567D01*
X2225395Y2792120D01*
X2226665Y2792120D01*
X2226665Y2791460D01*
X2223617Y2787751D01*
X2223922Y2787396D01*
X2228138Y2790698D01*
X2232507Y2793441D01*
X2231440Y2793441D01*
X2229307Y2792730D01*
X2228900Y2793085D01*
X2230170Y2794508D01*
X2242159Y2802585D01*
X2248154Y2807258D01*
X2253792Y2807563D01*
X2253792Y2808528D01*
X2251151Y2809290D01*
G37*
G36*
X2190343Y2808427D02*
G01*
X2190343Y2807766D01*
X2191054Y2805887D01*
X2192426Y2804414D01*
X2193340Y2804414D01*
X2193340Y2805633D01*
X2190953Y2808427D01*
G37*
G36*
X2202637Y2808427D02*
G01*
X2198166Y2807004D01*
X2197303Y2806344D01*
X2197303Y2805430D01*
X2199538Y2805430D01*
X2202637Y2807411D01*
G37*
G36*
X2310485Y2807208D02*
G01*
X2308961Y2805633D01*
X2308961Y2804058D01*
X2309672Y2802737D01*
X2310536Y2802737D01*
X2310841Y2804312D01*
G37*
G36*
X2261819Y2807055D02*
G01*
X2257501Y2805582D01*
X2254300Y2803702D01*
X2254300Y2803144D01*
X2257806Y2804312D01*
X2262327Y2806344D01*
X2262327Y2807055D01*
G37*
G36*
X2291638Y2807055D02*
G01*
X2292045Y2805379D01*
X2293924Y2804414D01*
X2296617Y2804414D01*
X2296617Y2805074D01*
X2293112Y2807055D01*
G37*
G36*
X2281326Y2806750D02*
G01*
X2281326Y2806141D01*
X2283155Y2805887D01*
X2285288Y2806141D01*
X2285288Y2806750D01*
G37*
G36*
X2303272Y2806395D02*
G01*
X2303272Y2805734D01*
X2304389Y2803652D01*
X2307386Y2800451D01*
X2308606Y2800451D01*
X2308606Y2800908D01*
X2307386Y2802940D01*
X2304084Y2806395D01*
G37*
G36*
X2263190Y2804414D02*
G01*
X2264968Y2802534D01*
X2264968Y2802077D01*
X2262479Y2800858D01*
X2252980Y2797759D01*
X2252980Y2796692D01*
X2256891Y2797098D01*
X2263495Y2799181D01*
X2266492Y2800705D01*
X2268067Y2802432D01*
X2266950Y2803652D01*
X2264410Y2804414D01*
G37*
G36*
X2298293Y2804414D02*
G01*
X2297938Y2803448D01*
X2298649Y2802077D01*
X2302256Y2799384D01*
X2302713Y2798013D01*
X2302256Y2791510D01*
X2302916Y2791104D01*
X2306015Y2792323D01*
X2308301Y2794152D01*
X2308301Y2795879D01*
X2306929Y2798064D01*
X2302256Y2802382D01*
X2299208Y2804414D01*
G37*
G36*
X2271471Y2803753D02*
G01*
X2270556Y2803194D01*
X2270810Y2801924D01*
X2273757Y2801721D01*
X2275281Y2802077D01*
X2274925Y2803042D01*
X2272893Y2803753D01*
G37*
G36*
X2226716Y2803093D02*
G01*
X2225954Y2802128D01*
X2226157Y2800959D01*
X2226919Y2800705D01*
X2228748Y2802331D01*
X2228291Y2803093D01*
G37*
G36*
X2260549Y2803093D02*
G01*
X2255469Y2801518D01*
X2251456Y2799486D01*
X2253284Y2799435D01*
X2259126Y2801518D01*
X2260955Y2802432D01*
X2260955Y2803093D01*
G37*
G36*
X2285492Y2803093D02*
G01*
X2279446Y2803042D01*
X2277364Y2802432D01*
X2277160Y2800959D01*
X2272690Y2799740D01*
X2270302Y2796387D01*
X2269134Y2796641D01*
X2269337Y2798470D01*
X2264359Y2797048D01*
X2263562Y2796438D01*
X2267356Y2796438D01*
X2268829Y2795676D01*
X2269286Y2794965D01*
X2269286Y2793796D01*
X2268372Y2793796D01*
X2266645Y2795168D01*
X2266645Y2796438D01*
X2263562Y2796438D01*
X2262632Y2795727D01*
X2262632Y2794558D01*
X2261463Y2793542D01*
X2260498Y2793187D01*
X2269794Y2793085D01*
X2272690Y2792425D01*
X2277110Y2789783D01*
X2280412Y2788818D01*
X2281986Y2789174D01*
X2281986Y2790037D01*
X2280767Y2791104D01*
X2278532Y2791561D01*
X2280005Y2792628D01*
X2279599Y2793746D01*
X2277465Y2795320D01*
X2275332Y2796438D01*
X2274316Y2796438D01*
X2274722Y2793796D01*
X2274112Y2793796D01*
X2272792Y2794711D01*
X2272792Y2797810D01*
X2274366Y2799080D01*
X2277211Y2799080D01*
X2279243Y2799791D01*
X2279599Y2801112D01*
X2281174Y2801112D01*
X2282596Y2799588D01*
X2283307Y2797708D01*
X2283307Y2795828D01*
X2283968Y2794050D01*
X2285034Y2794914D01*
X2284679Y2801416D01*
X2285187Y2801416D01*
X2288133Y2799080D01*
X2289302Y2799080D01*
X2289302Y2801112D01*
X2288032Y2802382D01*
G37*
G36*
X2214727Y2799080D02*
G01*
X2213914Y2798114D01*
X2214168Y2796997D01*
X2214930Y2796743D01*
X2216759Y2798318D01*
X2216302Y2799080D01*
G37*
G36*
X2226767Y2799080D02*
G01*
X2223668Y2797098D01*
X2223668Y2796438D01*
X2224684Y2796438D01*
X2226614Y2797454D01*
X2227326Y2798724D01*
G37*
G36*
X2238806Y2799080D02*
G01*
X2237333Y2798064D01*
X2237333Y2797098D01*
X2238502Y2797098D01*
X2240635Y2798419D01*
X2240635Y2799080D01*
G37*
G36*
X2246833Y2799080D02*
G01*
X2243632Y2797810D01*
X2238806Y2793796D01*
X2248763Y2797759D01*
X2249627Y2798521D01*
X2249627Y2799080D01*
G37*
G36*
X2297785Y2799080D02*
G01*
X2296820Y2798470D01*
X2298700Y2797759D01*
X2300325Y2798165D01*
X2300071Y2798927D01*
G37*
G36*
X2221484Y2798419D02*
G01*
X2218639Y2797048D01*
X2216658Y2795168D01*
X2216658Y2794457D01*
X2218131Y2794457D01*
X2220468Y2795828D01*
X2221992Y2797200D01*
X2221992Y2798419D01*
G37*
G36*
X2288997Y2797759D02*
G01*
X2287981Y2796743D01*
X2287981Y2795270D01*
X2289200Y2792984D01*
X2289962Y2792730D01*
X2289962Y2796286D01*
X2289556Y2797759D01*
G37*
G36*
X2208834Y2796387D02*
G01*
X2205075Y2795219D01*
X2200503Y2792171D01*
X2198217Y2789986D01*
X2198928Y2789732D01*
X2206498Y2793187D01*
X2209495Y2793288D01*
X2209698Y2795270D01*
G37*
G36*
X2291283Y2795117D02*
G01*
X2291283Y2793339D01*
X2293670Y2791104D01*
X2294229Y2791104D01*
X2294636Y2790037D01*
X2293874Y2789123D01*
X2292451Y2789529D01*
X2290267Y2791206D01*
X2289911Y2790850D01*
X2292705Y2787802D01*
X2294026Y2787802D01*
X2296363Y2790088D01*
X2296109Y2792272D01*
X2293823Y2792730D01*
X2291638Y2795117D01*
G37*
G36*
X2311806Y2793746D02*
G01*
X2310130Y2792933D01*
X2308809Y2790494D01*
X2309266Y2790037D01*
X2314143Y2793746D01*
G37*
G36*
X2334310Y2793136D02*
G01*
X2334310Y2789123D01*
X2334920Y2789123D01*
X2335123Y2790952D01*
X2334869Y2793136D01*
G37*
G36*
X2256129Y2792425D02*
G01*
X2252624Y2791460D01*
X2250643Y2790444D01*
X2250643Y2789732D01*
X2253488Y2790190D01*
X2257094Y2791612D01*
X2257348Y2792425D01*
G37*
G36*
X2245156Y2792120D02*
G01*
X2236825Y2788767D01*
X2215489Y2780741D01*
X2211070Y2778150D01*
X2207473Y2775508D01*
X2213152Y2775508D01*
X2213864Y2776677D01*
X2217420Y2779166D01*
X2217674Y2779166D01*
X2217674Y2778506D01*
X2215540Y2776118D01*
X2213610Y2775102D01*
X2213152Y2775508D01*
X2207473Y2775508D01*
X2205837Y2774289D01*
X2203551Y2771698D01*
X2204669Y2771444D01*
X2208174Y2774086D01*
X2210308Y2775153D01*
X2211984Y2775153D01*
X2211984Y2774238D01*
X2207818Y2770479D01*
X2216302Y2774848D01*
X2217318Y2774848D01*
X2217318Y2774238D01*
X2213268Y2770479D01*
X2215845Y2770479D01*
X2218842Y2773222D01*
X2221382Y2775153D01*
X2222093Y2774696D01*
X2220010Y2773019D01*
X2215845Y2770479D01*
X2213268Y2770479D01*
X2206599Y2765196D01*
X2206091Y2765196D01*
X2204008Y2758795D01*
X2204008Y2757220D01*
X2204770Y2757220D01*
X2206955Y2759557D01*
X2206599Y2761488D01*
X2208123Y2764180D01*
X2208631Y2764180D01*
X2208631Y2763164D01*
X2210155Y2763621D01*
X2212492Y2765094D01*
X2215946Y2767838D01*
X2220417Y2772003D01*
X2222296Y2774594D01*
X2222296Y2776169D01*
X2221433Y2776169D01*
X2218283Y2775102D01*
X2218029Y2775356D01*
X2220010Y2778302D01*
X2219299Y2780385D01*
X2221230Y2780436D01*
X2229154Y2783535D01*
X2245766Y2791104D01*
X2246782Y2792120D01*
G37*
G36*
X2265781Y2791104D02*
G01*
X2264867Y2790494D01*
X2267610Y2789682D01*
X2268677Y2788564D01*
X2268220Y2787446D01*
X2266797Y2787091D01*
X2264867Y2787802D01*
X2262936Y2789478D01*
X2258364Y2789478D01*
X2252878Y2788412D01*
X2247595Y2786735D01*
X2239924Y2783484D01*
X2238298Y2783484D01*
X2239060Y2784906D01*
X2236825Y2784500D01*
X2228850Y2780487D01*
X2233015Y2780487D01*
X2233371Y2781452D01*
X2236774Y2783128D01*
X2237638Y2783128D01*
X2237638Y2782468D01*
X2234133Y2780487D01*
X2228850Y2780487D01*
X2224227Y2777337D01*
X2223922Y2776524D01*
X2226157Y2777286D01*
X2230424Y2779877D01*
X2231948Y2780436D01*
X2232304Y2779877D01*
X2230983Y2778201D01*
X2230983Y2777845D01*
X2232050Y2777845D01*
X2242362Y2782519D01*
X2248814Y2784602D01*
X2250135Y2786024D01*
X2250846Y2787243D01*
X2252014Y2786786D01*
X2251557Y2784449D01*
X2252472Y2784500D01*
X2258110Y2787446D01*
X2260142Y2787446D01*
X2262835Y2786227D01*
X2265730Y2783789D01*
X2267000Y2783789D01*
X2271979Y2786532D01*
X2271979Y2787446D01*
X2269794Y2789885D01*
X2267153Y2791104D01*
G37*
G36*
X2285949Y2791104D02*
G01*
X2285949Y2789275D01*
X2287016Y2787802D01*
X2287981Y2787802D01*
X2287981Y2788970D01*
X2286660Y2791104D01*
G37*
G36*
X2306320Y2790799D02*
G01*
X2305151Y2790748D01*
X2302713Y2789732D01*
X2301951Y2788107D01*
X2301951Y2786126D01*
X2301341Y2786126D01*
X2299919Y2788107D01*
X2299360Y2788107D01*
X2298903Y2785110D01*
X2297074Y2787294D01*
X2295347Y2786481D01*
X2295144Y2784348D01*
X2294026Y2783687D01*
X2288692Y2784551D01*
X2287981Y2784094D01*
X2287981Y2782519D01*
X2289556Y2780639D01*
X2292908Y2780741D01*
X2298344Y2783078D01*
X2302052Y2785313D01*
X2306320Y2789326D01*
G37*
G36*
X2179167Y2789783D02*
G01*
X2176983Y2788615D01*
X2172970Y2785364D01*
X2173224Y2784652D01*
X2174748Y2784398D01*
X2176678Y2785211D01*
X2176678Y2786024D01*
X2177897Y2787142D01*
X2179523Y2787142D01*
X2180742Y2788005D01*
X2180488Y2789631D01*
G37*
G36*
X2205075Y2789478D02*
G01*
X2198014Y2785872D01*
X2190140Y2780741D01*
X2184146Y2776220D01*
X2182571Y2774492D01*
X2183180Y2774492D01*
X2190851Y2778912D01*
X2197506Y2783230D01*
X2200148Y2784144D01*
X2201570Y2783789D01*
X2201265Y2785008D01*
X2203145Y2786938D01*
X2206142Y2789428D01*
G37*
G36*
X2243734Y2788513D02*
G01*
X2242362Y2786735D01*
X2242718Y2785821D01*
X2243886Y2785821D01*
X2244699Y2786786D01*
X2244496Y2788259D01*
G37*
G36*
X2194153Y2788107D02*
G01*
X2190445Y2785973D01*
X2189327Y2785059D01*
X2189327Y2784449D01*
X2190800Y2784449D01*
X2193594Y2785821D01*
X2195372Y2788107D01*
G37*
G36*
X2213254Y2788107D02*
G01*
X2210511Y2787345D01*
X2204110Y2780995D01*
X2201976Y2777693D01*
X2201976Y2776474D01*
X2202789Y2776474D01*
X2210409Y2784297D01*
X2213711Y2788107D01*
G37*
G36*
X2273960Y2788107D02*
G01*
X2273960Y2786430D01*
X2272995Y2784500D01*
X2271826Y2783789D01*
X2275535Y2784195D01*
X2276754Y2783535D01*
X2272639Y2779369D01*
X2272639Y2778506D01*
X2274316Y2778506D01*
X2276805Y2780690D01*
X2278430Y2781808D01*
X2278989Y2781808D01*
X2278837Y2779217D01*
X2279700Y2778150D01*
X2281682Y2778150D01*
X2283815Y2777083D01*
X2285746Y2775305D01*
X2286050Y2776169D01*
X2287066Y2777185D01*
X2291486Y2776778D01*
X2292756Y2777744D01*
X2291892Y2778810D01*
X2285288Y2779826D01*
X2281631Y2781452D01*
X2277872Y2783941D01*
X2274570Y2788107D01*
G37*
G36*
X2278634Y2787142D02*
G01*
X2278634Y2786126D01*
X2282444Y2783128D01*
X2284730Y2782519D01*
X2285288Y2782874D01*
X2285288Y2783687D01*
X2283815Y2785110D01*
X2279446Y2787142D01*
G37*
G36*
X2559964Y2787142D02*
G01*
X2559151Y2786176D01*
X2559405Y2785008D01*
X2560167Y2784754D01*
X2561996Y2786380D01*
X2561539Y2787142D01*
G37*
G36*
X2186381Y2785821D02*
G01*
X2185009Y2784094D01*
X2185416Y2783128D01*
X2186584Y2783128D01*
X2187397Y2784094D01*
X2187143Y2785567D01*
G37*
G36*
X2258720Y2784805D02*
G01*
X2258364Y2783484D01*
X2250744Y2779877D01*
X2249678Y2778353D01*
X2246579Y2779877D01*
X2241804Y2779572D01*
X2237943Y2778099D01*
X2235708Y2776169D01*
X2235403Y2774492D01*
X2235962Y2774137D01*
X2238806Y2775762D01*
X2243429Y2777185D01*
X2248306Y2777591D01*
X2248306Y2776982D01*
X2247239Y2775458D01*
X2247646Y2775051D01*
X2248814Y2776067D01*
X2251506Y2777439D01*
X2260295Y2779826D01*
X2260295Y2780334D01*
X2258466Y2781046D01*
X2264359Y2782417D01*
X2264613Y2782671D01*
X2259685Y2784805D01*
G37*
G36*
X2304745Y2784449D02*
G01*
X2301849Y2782366D01*
X2295804Y2776270D01*
X2293874Y2773476D01*
X2294280Y2773070D01*
X2298090Y2776016D01*
X2304948Y2783535D01*
X2304948Y2784449D01*
G37*
G36*
X2170785Y2784144D02*
G01*
X2166823Y2781757D01*
X2159254Y2776321D01*
X2157323Y2774035D01*
X2157323Y2771749D01*
X2158492Y2771749D01*
X2163826Y2776982D01*
X2168093Y2779826D01*
X2168398Y2779522D01*
X2167940Y2778150D01*
X2163064Y2773680D01*
X2159355Y2771444D01*
X2158492Y2771749D01*
X2157323Y2771749D01*
X2157323Y2769616D01*
X2155952Y2767838D01*
X2154275Y2767838D01*
X2155088Y2770835D01*
X2154377Y2770835D01*
X2151989Y2768600D01*
X2151989Y2766517D01*
X2148890Y2763977D01*
X2148840Y2761132D01*
X2149957Y2760421D01*
X2151430Y2761691D01*
X2152599Y2764434D01*
X2154123Y2765856D01*
X2155342Y2765856D01*
X2158492Y2767431D01*
X2162556Y2770428D01*
X2167128Y2774645D01*
X2170023Y2778556D01*
X2170023Y2780639D01*
X2170531Y2781503D01*
X2172004Y2779826D01*
X2174494Y2780842D01*
X2175459Y2781808D01*
X2174189Y2783230D01*
X2172360Y2784144D01*
G37*
G36*
X2308453Y2784144D02*
G01*
X2307082Y2782976D01*
X2301392Y2776270D01*
X2297785Y2773070D01*
X2291943Y2769158D01*
X2291943Y2768498D01*
X2292807Y2768498D01*
X2296109Y2770124D01*
X2301036Y2773578D01*
X2305558Y2777998D01*
X2308961Y2783230D01*
X2308961Y2784144D01*
G37*
G36*
X2334412Y2782824D02*
G01*
X2333955Y2782366D01*
X2333955Y2780334D01*
X2334564Y2779318D01*
X2335276Y2781198D01*
X2334869Y2782824D01*
G37*
G36*
X2182825Y2782417D02*
G01*
X2180844Y2781706D01*
X2175560Y2778658D01*
X2172919Y2776118D01*
X2173630Y2775407D01*
X2176475Y2776880D01*
X2183028Y2781249D01*
X2183384Y2781858D01*
G37*
G36*
X2312314Y2781808D02*
G01*
X2310231Y2778760D01*
X2307691Y2773324D01*
X2307234Y2771851D01*
X2307945Y2771851D01*
X2311247Y2776321D01*
X2314041Y2781096D01*
X2313584Y2781808D01*
G37*
G36*
X2320290Y2781808D02*
G01*
X2319832Y2780741D01*
X2320544Y2779674D01*
X2322271Y2779064D01*
X2323287Y2779877D01*
X2323287Y2781147D01*
X2322017Y2781808D01*
G37*
G36*
X2269388Y2780487D02*
G01*
X2268575Y2779522D01*
X2268829Y2778404D01*
X2269947Y2777642D01*
X2271115Y2778404D01*
X2271369Y2779522D01*
X2270556Y2780487D01*
G37*
G36*
X2317089Y2779166D02*
G01*
X2316632Y2778709D01*
X2316632Y2777236D01*
X2317597Y2776423D01*
X2318715Y2776677D01*
X2318969Y2777388D01*
X2317597Y2779166D01*
G37*
G36*
X2325420Y2779166D02*
G01*
X2323947Y2778099D01*
X2323947Y2776778D01*
X2326589Y2776169D01*
X2328214Y2774391D01*
X2331618Y2774086D01*
X2331618Y2774797D01*
X2329434Y2777286D01*
X2326487Y2779166D01*
G37*
G36*
X2256637Y2777236D02*
G01*
X2256637Y2776575D01*
X2257856Y2775508D01*
X2260295Y2774492D01*
X2261311Y2774899D01*
X2261311Y2775712D01*
X2259990Y2776931D01*
G37*
G36*
X2265629Y2776474D02*
G01*
X2265629Y2775254D01*
X2268728Y2771851D01*
X2269744Y2771851D01*
X2272334Y2774492D01*
X2272131Y2776321D01*
X2270810Y2776118D01*
X2269083Y2774188D01*
X2268626Y2774188D01*
X2268626Y2775407D01*
X2267407Y2776474D01*
G37*
G36*
X2288946Y2775813D02*
G01*
X2288540Y2774848D01*
X2289657Y2773121D01*
X2291791Y2773324D01*
X2292045Y2774543D01*
X2290876Y2775813D01*
G37*
G36*
X2281072Y2775153D02*
G01*
X2280615Y2774696D01*
X2280615Y2773527D01*
X2282139Y2772511D01*
X2285644Y2772511D01*
X2285644Y2773070D01*
X2284476Y2774086D01*
X2282342Y2775153D01*
G37*
G36*
X2312466Y2775153D02*
G01*
X2311501Y2774543D01*
X2313330Y2773832D01*
X2315006Y2774238D01*
X2314752Y2775000D01*
G37*
G36*
X2231745Y2774848D02*
G01*
X2215572Y2763824D01*
X2220010Y2763824D01*
X2220010Y2764383D01*
X2221839Y2766110D01*
X2229459Y2771190D01*
X2232964Y2769768D01*
X2232964Y2769158D01*
X2227986Y2764332D01*
X2227986Y2762300D01*
X2226767Y2761945D01*
X2222855Y2762554D01*
X2220010Y2763824D01*
X2215572Y2763824D01*
X2211171Y2760726D01*
X2207768Y2757373D01*
X2207412Y2755544D01*
X2207971Y2755188D01*
X2210155Y2757932D01*
X2215235Y2761742D01*
X2218334Y2763266D01*
X2218791Y2762808D01*
X2207971Y2752394D01*
X2207971Y2750210D01*
X2203399Y2745587D01*
X2200097Y2740761D01*
X2195423Y2732684D01*
X2191715Y2724454D01*
X2191258Y2722168D01*
X2192274Y2723032D01*
X2197049Y2731008D01*
X2197303Y2730754D01*
X2194102Y2721152D01*
X2191613Y2714498D01*
X2188718Y2708503D01*
X2188006Y2704642D01*
X2185009Y2698038D01*
X2183993Y2694228D01*
X2184400Y2693009D01*
X2185517Y2693212D01*
X2187295Y2696565D01*
X2193086Y2713482D01*
X2198420Y2727807D01*
X2203602Y2740101D01*
X2204720Y2744571D01*
X2205177Y2744317D01*
X2206752Y2740914D01*
X2207310Y2740914D01*
X2207310Y2743758D01*
X2207717Y2745232D01*
X2208479Y2745282D01*
X2209393Y2745841D01*
X2209952Y2749194D01*
X2211070Y2751582D01*
X2211578Y2751582D01*
X2212035Y2749804D01*
X2211984Y2740253D01*
X2212594Y2740253D01*
X2215337Y2745638D01*
X2215337Y2746908D01*
X2212644Y2746502D01*
X2212644Y2747467D01*
X2214727Y2750058D01*
X2214270Y2753918D01*
X2215692Y2756814D01*
X2218385Y2759252D01*
X2221839Y2760878D01*
X2227935Y2760878D01*
X2230069Y2762656D01*
X2234692Y2768803D01*
X2237181Y2770784D01*
X2238959Y2771241D01*
X2238959Y2770530D01*
X2236978Y2769057D01*
X2236978Y2768498D01*
X2239060Y2769362D01*
X2239822Y2771648D01*
X2242312Y2773273D01*
X2242058Y2773578D01*
X2232202Y2771140D01*
X2231542Y2771800D01*
X2232304Y2774848D01*
G37*
G36*
X2179726Y2773883D02*
G01*
X2178354Y2772156D01*
X2178761Y2771190D01*
X2179929Y2771190D01*
X2180691Y2772156D01*
X2180488Y2773629D01*
G37*
G36*
X2251811Y2773832D02*
G01*
X2247798Y2773781D01*
X2245969Y2773121D01*
X2246223Y2772359D01*
X2250795Y2772410D01*
X2252776Y2773222D01*
G37*
G36*
X2319121Y2773781D02*
G01*
X2317953Y2773476D01*
X2317953Y2772918D01*
X2318969Y2772105D01*
X2322220Y2772105D01*
X2324100Y2773019D01*
X2324150Y2773680D01*
G37*
G36*
X2183688Y2772511D02*
G01*
X2180640Y2768955D01*
X2180640Y2768498D01*
X2181809Y2769108D01*
X2184654Y2771749D01*
X2184654Y2772511D01*
G37*
G36*
X2169515Y2772156D02*
G01*
X2164842Y2769768D01*
X2161489Y2767380D01*
X2156104Y2762910D01*
X2150719Y2757576D01*
X2148941Y2754884D01*
X2149348Y2753309D01*
X2150668Y2753664D01*
X2152040Y2755341D01*
X2151989Y2757881D01*
X2153107Y2757881D01*
X2156510Y2760522D01*
X2163470Y2767533D01*
X2168398Y2769870D01*
X2170684Y2771597D01*
X2170684Y2772156D01*
G37*
G36*
X2273300Y2772156D02*
G01*
X2273300Y2771546D01*
X2275128Y2771343D01*
X2277313Y2771597D01*
X2277313Y2772156D01*
G37*
G36*
X2338628Y2772156D02*
G01*
X2338628Y2771546D01*
X2340457Y2771343D01*
X2342642Y2771597D01*
X2342642Y2772156D01*
G37*
G36*
X2351328Y2771851D02*
G01*
X2349906Y2770378D01*
X2348941Y2767025D01*
X2347620Y2755036D01*
X2348230Y2756103D01*
X2350363Y2764383D01*
X2350719Y2769514D01*
X2352598Y2770886D01*
X2352598Y2771851D01*
G37*
G36*
X2188159Y2771292D02*
G01*
X2185568Y2769006D01*
X2184654Y2766872D01*
X2184654Y2765145D01*
X2183638Y2763215D01*
X2181809Y2762250D01*
X2183028Y2761792D01*
X2184958Y2762605D01*
X2186330Y2764942D01*
X2189988Y2764485D01*
X2189988Y2764891D01*
X2188311Y2767126D01*
X2187752Y2769057D01*
X2188362Y2770174D01*
G37*
G36*
X2191816Y2771190D02*
G01*
X2190242Y2769514D01*
X2191004Y2767838D01*
X2192223Y2767838D01*
X2193391Y2769108D01*
X2193137Y2770987D01*
G37*
G36*
X2302205Y2771190D02*
G01*
X2301443Y2771140D01*
X2297938Y2768904D01*
X2290622Y2766415D01*
X2290622Y2765653D01*
X2292350Y2764840D01*
X2294534Y2764840D01*
X2295804Y2766263D01*
X2298141Y2767431D01*
X2301900Y2768498D01*
X2303373Y2769717D01*
X2302916Y2771190D01*
G37*
G36*
X2176170Y2771140D02*
G01*
X2173986Y2770225D01*
X2170836Y2768041D01*
X2161844Y2760319D01*
X2154428Y2753309D01*
X2151583Y2751226D01*
X2150008Y2751226D01*
X2150465Y2749397D01*
X2150516Y2748076D01*
X2148027Y2747670D01*
X2146909Y2746756D01*
X2145030Y2744165D01*
X2145030Y2743200D01*
X2148027Y2745333D01*
X2149754Y2744571D01*
X2152599Y2746248D01*
X2154732Y2749397D01*
X2154428Y2752140D01*
X2156256Y2752547D01*
X2161184Y2756408D01*
X2168499Y2763266D01*
X2173478Y2767584D01*
X2176322Y2769209D01*
X2176729Y2770581D01*
G37*
G36*
X2200706Y2769819D02*
G01*
X2196388Y2765044D01*
X2192832Y2760726D01*
X2189683Y2759202D01*
X2186432Y2755188D01*
X2183638Y2749245D01*
X2183841Y2747416D01*
X2186381Y2749956D01*
X2188057Y2753309D01*
X2187702Y2754223D01*
X2191156Y2756814D01*
X2195880Y2761691D01*
X2199995Y2766923D01*
X2201316Y2769463D01*
X2201316Y2769819D01*
G37*
G36*
X2229713Y2769819D02*
G01*
X2226310Y2767177D01*
X2223668Y2763824D01*
X2223668Y2763215D01*
X2224328Y2763215D01*
X2230323Y2769006D01*
X2230323Y2769819D01*
G37*
G36*
X2342388Y2769819D02*
G01*
X2340508Y2767838D01*
X2338222Y2767431D01*
X2332482Y2768193D01*
X2331872Y2767584D01*
X2333904Y2766517D01*
X2338120Y2765552D01*
X2341219Y2765501D01*
X2342642Y2766720D01*
X2343048Y2769412D01*
G37*
G36*
X2307132Y2769768D02*
G01*
X2305659Y2769209D01*
X2304542Y2766822D01*
X2303170Y2765856D01*
X2301798Y2765856D01*
X2299614Y2764536D01*
X2299614Y2763520D01*
X2304643Y2763977D01*
X2304643Y2762961D01*
X2302916Y2761234D01*
X2303322Y2759913D01*
X2306726Y2756865D01*
X2307031Y2757170D01*
X2304948Y2759964D01*
X2304948Y2761234D01*
X2305913Y2761589D01*
X2308453Y2760218D01*
X2310130Y2759049D01*
X2307590Y2762351D01*
X2305964Y2765704D01*
X2305964Y2767025D01*
X2306523Y2767888D01*
X2309215Y2766517D01*
X2310688Y2764485D01*
X2310434Y2762554D01*
X2310892Y2762554D01*
X2312720Y2764688D01*
X2313381Y2766212D01*
X2312111Y2767584D01*
X2308809Y2769260D01*
G37*
G36*
X2344978Y2768650D02*
G01*
X2344674Y2767685D01*
X2344318Y2764129D01*
X2341880Y2758694D01*
X2341524Y2757220D01*
X2342642Y2757220D01*
X2344877Y2758135D01*
X2345639Y2760319D01*
X2345588Y2767685D01*
G37*
G36*
X2322423Y2768498D02*
G01*
X2320188Y2766212D01*
X2316734Y2765501D01*
X2313940Y2763113D01*
X2311958Y2760268D01*
X2311958Y2759202D01*
X2312466Y2759202D01*
X2315768Y2761945D01*
X2317343Y2762554D01*
X2322118Y2762504D01*
X2325725Y2761589D01*
X2328418Y2759405D01*
X2330145Y2759557D01*
X2335631Y2762300D01*
X2336647Y2761894D01*
X2335885Y2760370D01*
X2334514Y2758897D01*
X2334869Y2758490D01*
X2339136Y2761691D01*
X2339340Y2763012D01*
X2338171Y2763875D01*
X2335631Y2763875D01*
X2330551Y2761183D01*
X2331008Y2763926D01*
X2328011Y2763520D01*
X2326640Y2764942D01*
X2320950Y2764536D01*
X2320950Y2765094D01*
X2322931Y2767685D01*
X2322982Y2768498D01*
G37*
G36*
X2176678Y2766872D02*
G01*
X2170176Y2761640D01*
X2166620Y2758440D01*
X2166924Y2758186D01*
X2169820Y2759608D01*
X2174951Y2762910D01*
X2177643Y2765856D01*
X2177643Y2766872D01*
G37*
G36*
X2352344Y2764536D02*
G01*
X2351481Y2763469D01*
X2351227Y2759202D01*
X2351633Y2758135D01*
X2353005Y2759354D01*
X2354275Y2761843D01*
X2354275Y2763723D01*
X2353462Y2764536D01*
G37*
G36*
X2261616Y2763875D02*
G01*
X2261209Y2762808D01*
X2262479Y2761538D01*
X2265629Y2761132D01*
X2266086Y2762300D01*
X2264257Y2763875D01*
G37*
G36*
X2202840Y2762504D02*
G01*
X2201468Y2761792D01*
X2199944Y2760065D01*
X2195372Y2753410D01*
X2192477Y2749651D01*
X2187956Y2744419D01*
X2185822Y2740761D01*
X2183536Y2735783D01*
X2180539Y2730652D01*
X2178710Y2728874D01*
X2177999Y2729331D01*
X2177999Y2731363D01*
X2176881Y2730449D01*
X2175967Y2728214D01*
X2177592Y2725013D01*
X2177237Y2723489D01*
X2182215Y2729941D01*
X2191156Y2743047D01*
X2193848Y2745689D01*
X2195220Y2749092D01*
X2197150Y2749092D01*
X2197557Y2752394D01*
X2198624Y2754477D01*
X2201926Y2758744D01*
X2203043Y2760929D01*
G37*
G36*
X2146401Y2761538D02*
G01*
X2143912Y2758795D01*
X2139797Y2752394D01*
X2135428Y2744774D01*
X2130094Y2734106D01*
X2125268Y2723489D01*
X2122424Y2716479D01*
X2120696Y2709824D01*
X2119934Y2704338D01*
X2120239Y2700731D01*
X2121458Y2699410D01*
X2121052Y2695244D01*
X2119680Y2690876D01*
X2119680Y2688996D01*
X2121662Y2689809D01*
X2119884Y2685897D01*
X2119579Y2679852D01*
X2120392Y2671978D01*
X2120950Y2652014D01*
X2122119Y2647340D01*
X2123592Y2644038D01*
X2126640Y2639568D01*
X2127351Y2636164D01*
X2127351Y2634386D01*
X2128012Y2632100D01*
X2129942Y2630068D01*
X2130704Y2627833D01*
X2130704Y2624074D01*
X2129637Y2622550D01*
X2130450Y2620518D01*
X2133752Y2617266D01*
X2135733Y2616860D01*
X2138781Y2613761D01*
X2142693Y2608529D01*
X2144420Y2605633D01*
X2145030Y2602788D01*
X2148636Y2595270D01*
X2152142Y2589530D01*
X2155545Y2586024D01*
X2157222Y2586024D01*
X2157984Y2586837D01*
X2157984Y2588666D01*
X2157374Y2588666D01*
X2156053Y2586990D01*
X2155291Y2587396D01*
X2153716Y2591054D01*
X2151684Y2592171D01*
X2152040Y2595168D01*
X2150313Y2596692D01*
X2149094Y2599486D01*
X2146960Y2606344D01*
X2144420Y2612186D01*
X2141423Y2616809D01*
X2138375Y2619298D01*
X2139035Y2620975D01*
X2143810Y2627884D01*
X2147976Y2613660D01*
X2150059Y2608630D01*
X2152142Y2607005D01*
X2151329Y2604414D01*
X2151329Y2603906D01*
X2153412Y2604363D01*
X2158847Y2598674D01*
X2161438Y2597810D01*
X2161946Y2596845D01*
X2162505Y2594864D01*
X2165248Y2592933D01*
X2169922Y2592679D01*
X2171852Y2591968D01*
X2173732Y2590190D01*
X2175662Y2586329D01*
X2176068Y2583332D01*
X2174900Y2582062D01*
X2175611Y2579522D01*
X2180285Y2569565D01*
X2182469Y2563571D01*
X2182469Y2556002D01*
X2184196Y2558084D01*
X2184654Y2558084D01*
X2184654Y2554935D01*
X2185619Y2548636D01*
X2185416Y2548432D01*
X2184349Y2551074D01*
X2183587Y2551531D01*
X2182977Y2550617D01*
X2181555Y2545994D01*
X2180258Y2543251D01*
X2183638Y2543251D01*
X2183638Y2544165D01*
X2184704Y2546197D01*
X2185517Y2545943D01*
X2185720Y2543251D01*
X2184654Y2542387D01*
X2183638Y2543251D01*
X2180234Y2543200D01*
X2178913Y2540050D01*
X2181199Y2540050D01*
X2181656Y2541168D01*
X2183231Y2541168D01*
X2184755Y2539949D01*
X2183993Y2538476D01*
X2183028Y2538476D01*
X2181199Y2540050D01*
X2178913Y2540050D01*
X2178913Y2538730D01*
X2180082Y2538120D01*
X2179624Y2535834D01*
X2181148Y2535834D01*
X2183841Y2537256D01*
X2187803Y2540508D01*
X2188667Y2540508D01*
X2188667Y2540101D01*
X2187702Y2538222D01*
X2184146Y2535224D01*
X2180285Y2533192D01*
X2178354Y2533192D01*
X2178354Y2532532D01*
X2180285Y2531160D01*
X2182368Y2530754D01*
X2183942Y2532430D01*
X2186990Y2532075D01*
X2187702Y2534107D01*
X2188768Y2534513D01*
X2189632Y2533751D01*
X2190089Y2531465D01*
X2189276Y2525369D01*
X2187651Y2519730D01*
X2183638Y2509621D01*
X2183638Y2508250D01*
X2184044Y2508250D01*
X2186635Y2510282D01*
X2188057Y2512314D01*
X2189175Y2515362D01*
X2191156Y2516428D01*
X2191562Y2519019D01*
X2193645Y2520746D01*
X2193645Y2522880D01*
X2191359Y2534361D01*
X2190292Y2541676D01*
X2188565Y2550617D01*
X2185060Y2564587D01*
X2181352Y2577236D01*
X2177034Y2589784D01*
X2175611Y2593340D01*
X2173274Y2595270D01*
X2167839Y2596743D01*
X2162962Y2599080D01*
X2157679Y2604058D01*
X2153818Y2609850D01*
X2150414Y2616758D01*
X2147366Y2626410D01*
X2144115Y2632710D01*
X2143353Y2632964D01*
X2143353Y2632100D01*
X2140305Y2625852D01*
X2134920Y2620264D01*
X2134108Y2620264D01*
X2133701Y2622753D01*
X2133701Y2626004D01*
X2136343Y2628493D01*
X2136343Y2629814D01*
X2135276Y2630728D01*
X2130501Y2631744D01*
X2130044Y2635859D01*
X2128621Y2640990D01*
X2126640Y2646222D01*
X2125167Y2647188D01*
X2125370Y2657754D01*
X2124354Y2658770D01*
X2123744Y2665628D01*
X2123338Y2684576D01*
X2123236Y2709824D01*
X2124354Y2716276D01*
X2125726Y2719933D01*
X2126792Y2720340D01*
X2128926Y2719933D01*
X2130704Y2721457D01*
X2131110Y2724607D01*
X2130653Y2726283D01*
X2128672Y2726283D01*
X2129383Y2728061D01*
X2133955Y2735122D01*
X2135682Y2738932D01*
X2135682Y2741523D01*
X2137765Y2741422D01*
X2138527Y2744470D01*
X2140102Y2746756D01*
X2147468Y2754223D01*
X2146757Y2754985D01*
X2144318Y2754172D01*
X2143912Y2754528D01*
X2148027Y2758795D01*
X2148027Y2760472D01*
X2147620Y2761538D01*
G37*
G36*
X2319629Y2761538D02*
G01*
X2320036Y2759811D01*
X2319121Y2759202D01*
X2316886Y2759202D01*
X2314702Y2758135D01*
X2314295Y2757220D01*
X2314702Y2756204D01*
X2315921Y2755544D01*
X2317445Y2757576D01*
X2320950Y2758084D01*
X2321966Y2758948D01*
X2321966Y2759913D01*
X2320340Y2761538D01*
G37*
G36*
X2353970Y2760726D02*
G01*
X2353970Y2758998D01*
X2352700Y2754223D01*
X2353310Y2754223D01*
X2354935Y2757728D01*
X2354935Y2759405D01*
G37*
G36*
X2358745Y2760573D02*
G01*
X2358034Y2759710D01*
X2356256Y2756154D01*
X2356154Y2753614D01*
X2357018Y2752547D01*
X2358491Y2752547D01*
X2359609Y2753766D01*
X2360066Y2756001D01*
X2358593Y2755595D01*
X2358237Y2756204D01*
X2359253Y2760014D01*
G37*
G36*
X2173376Y2759862D02*
G01*
X2171954Y2758389D01*
X2170277Y2755544D01*
X2170582Y2755188D01*
X2173986Y2758846D01*
X2173986Y2759862D01*
G37*
G36*
X2223465Y2759202D02*
G01*
X2222601Y2758643D01*
X2222804Y2757373D01*
X2224379Y2757170D01*
X2227326Y2758287D01*
X2227326Y2758795D01*
X2226259Y2759202D01*
G37*
G36*
X2182063Y2758897D02*
G01*
X2180488Y2758846D01*
X2176373Y2756865D01*
X2173579Y2753715D01*
X2171242Y2750058D01*
X2168956Y2747264D01*
X2166620Y2745892D01*
X2167077Y2742387D01*
X2164740Y2742641D01*
X2163368Y2740914D01*
X2162352Y2736291D01*
X2162352Y2732938D01*
X2163267Y2730703D01*
X2164029Y2730246D01*
X2165654Y2731312D01*
X2165654Y2732227D01*
X2164232Y2732430D01*
X2163673Y2734462D01*
X2164080Y2737815D01*
X2164486Y2738424D01*
X2166264Y2739237D01*
X2170176Y2745282D01*
X2173986Y2750464D01*
X2176424Y2752293D01*
X2173986Y2748838D01*
X2173986Y2747568D01*
X2175256Y2748229D01*
X2176983Y2750261D01*
X2177440Y2751988D01*
X2176729Y2754223D01*
X2177897Y2755646D01*
X2179269Y2754884D01*
X2181301Y2752852D01*
X2182723Y2753614D01*
X2183079Y2754579D01*
X2182723Y2754934D01*
X2181250Y2754172D01*
X2180894Y2754528D01*
G37*
G36*
X2219604Y2757525D02*
G01*
X2217978Y2755900D01*
X2217978Y2754223D01*
X2218436Y2754223D01*
X2220417Y2756052D01*
X2220061Y2749092D01*
X2218588Y2745181D01*
X2213000Y2736900D01*
X2213000Y2735580D01*
X2214168Y2736240D01*
X2216556Y2738780D01*
X2220620Y2744063D01*
X2221382Y2746095D01*
X2221738Y2754782D01*
X2220976Y2757119D01*
G37*
G36*
X2344115Y2756611D02*
G01*
X2336596Y2750718D01*
X2340813Y2750261D01*
X2343200Y2750921D01*
X2343556Y2752242D01*
X2345385Y2751785D01*
X2344928Y2754579D01*
G37*
G36*
X2310333Y2756560D02*
G01*
X2309876Y2755849D01*
X2310282Y2754223D01*
X2312212Y2753258D01*
X2315311Y2749804D01*
X2322372Y2739593D01*
X2322982Y2739237D01*
X2322931Y2740101D01*
X2321356Y2743454D01*
X2318512Y2748076D01*
X2314346Y2753766D01*
X2311298Y2756560D01*
G37*
G36*
X2338273Y2756560D02*
G01*
X2336444Y2756509D01*
X2329027Y2753207D01*
X2325268Y2753207D01*
X2327097Y2749804D01*
X2327910Y2749499D01*
X2329434Y2750566D01*
X2331821Y2750159D01*
X2334310Y2751175D01*
X2336546Y2752902D01*
X2338273Y2755442D01*
G37*
G36*
X2318359Y2755392D02*
G01*
X2317902Y2754223D01*
X2319020Y2751226D01*
X2325065Y2742793D01*
X2329129Y2736189D01*
X2329738Y2736088D01*
X2330348Y2738424D01*
X2331161Y2739288D01*
X2332329Y2738831D01*
X2330958Y2734106D01*
X2330706Y2730398D01*
X2332228Y2730398D01*
X2332634Y2733395D01*
X2334260Y2736951D01*
X2334818Y2736951D01*
X2335631Y2736138D01*
X2335631Y2733598D01*
X2334361Y2731109D01*
X2332990Y2729890D01*
X2332228Y2730398D01*
X2330706Y2730398D01*
X2330551Y2728112D01*
X2329942Y2726029D01*
X2328976Y2725674D01*
X2328976Y2724962D01*
X2330602Y2723286D01*
X2332278Y2723286D01*
X2332278Y2725013D01*
X2333904Y2728112D01*
X2337562Y2732989D01*
X2338425Y2735021D01*
X2337612Y2736240D01*
X2337612Y2737459D01*
X2340203Y2742793D01*
X2340660Y2744266D01*
X2340051Y2744266D01*
X2337257Y2740609D01*
X2335174Y2739542D01*
X2331720Y2740304D01*
X2328773Y2742184D01*
X2326792Y2744317D01*
X2326792Y2747060D01*
X2323947Y2747568D01*
X2324404Y2749956D01*
X2322423Y2749550D01*
X2320848Y2750108D01*
X2322779Y2751886D01*
X2323287Y2751886D01*
X2323287Y2752547D01*
X2321255Y2752547D01*
X2319324Y2753563D01*
G37*
G36*
X2163927Y2755239D02*
G01*
X2159965Y2751074D01*
X2159254Y2749753D01*
X2164689Y2754274D01*
X2164689Y2755239D01*
G37*
G36*
X2204974Y2754579D02*
G01*
X2201672Y2751175D01*
X2199741Y2748381D01*
X2198014Y2744927D01*
X2198014Y2743911D01*
X2198674Y2743911D01*
X2200808Y2747010D01*
X2204008Y2751074D01*
X2205990Y2753969D01*
X2205634Y2754579D01*
G37*
G36*
X2228799Y2753817D02*
G01*
X2227275Y2753207D01*
X2224278Y2751074D01*
X2223262Y2749194D01*
X2223617Y2748838D01*
X2225243Y2749245D01*
X2228646Y2752293D01*
X2229307Y2753512D01*
G37*
G36*
X2351633Y2752547D02*
G01*
X2350109Y2752496D01*
X2348585Y2751886D01*
X2348788Y2750718D01*
X2351430Y2750820D01*
X2354122Y2751937D01*
X2353106Y2752547D01*
G37*
G36*
X2356916Y2749905D02*
G01*
X2357323Y2747924D01*
X2355951Y2746552D01*
X2354275Y2746552D01*
X2353614Y2748229D01*
X2352040Y2748635D01*
X2350211Y2748381D01*
X2353564Y2744063D01*
X2354224Y2741168D01*
X2354884Y2740507D01*
X2355951Y2740914D01*
X2355494Y2744368D01*
X2357475Y2743911D01*
X2360726Y2743504D01*
X2360168Y2745435D01*
X2360117Y2746654D01*
X2361692Y2747568D01*
X2360777Y2748686D01*
X2358136Y2749905D01*
G37*
G36*
X2340051Y2748584D02*
G01*
X2339238Y2747619D01*
X2339441Y2746451D01*
X2340203Y2746197D01*
X2342083Y2747822D01*
X2341575Y2748584D01*
G37*
G36*
X2336647Y2747924D02*
G01*
X2335479Y2747873D01*
X2333142Y2746654D01*
X2331516Y2744927D01*
X2331923Y2744520D01*
X2333904Y2744978D01*
X2336647Y2746908D01*
G37*
G36*
X2156612Y2746552D02*
G01*
X2153361Y2743200D01*
X2153361Y2741930D01*
X2154174Y2741930D01*
X2156612Y2743555D01*
X2158034Y2745892D01*
X2157628Y2746552D01*
G37*
G36*
X2173122Y2745892D02*
G01*
X2171750Y2744419D01*
X2169617Y2741269D01*
X2167382Y2736443D01*
X2166975Y2734919D01*
X2167585Y2734919D01*
X2169871Y2738424D01*
X2173681Y2745892D01*
G37*
G36*
X2182418Y2745892D02*
G01*
X2179980Y2743200D01*
X2179218Y2741574D01*
X2179624Y2741168D01*
X2181199Y2742184D01*
X2183028Y2745536D01*
G37*
G36*
X2345029Y2745892D02*
G01*
X2343353Y2745536D01*
X2341880Y2743962D01*
X2342134Y2742742D01*
X2349398Y2742742D01*
X2350516Y2740761D01*
X2351938Y2740558D01*
X2351938Y2741980D01*
X2350973Y2743860D01*
X2348788Y2745181D01*
G37*
G36*
X2162098Y2745587D02*
G01*
X2156307Y2740761D01*
X2154631Y2737967D01*
X2154631Y2736596D01*
X2156002Y2736596D01*
X2156002Y2737612D01*
X2158746Y2740609D01*
X2159000Y2740609D01*
X2158593Y2738780D01*
X2156968Y2736596D01*
X2154631Y2736596D01*
X2154631Y2733954D01*
X2155393Y2732532D01*
X2157069Y2734106D01*
X2161286Y2740406D01*
X2163318Y2744368D01*
X2163318Y2745587D01*
G37*
G36*
X2175764Y2742946D02*
G01*
X2175357Y2742488D01*
X2175357Y2740406D01*
X2175967Y2739440D01*
X2176678Y2741320D01*
X2176272Y2742946D01*
G37*
G36*
X2147925Y2742590D02*
G01*
X2144369Y2741320D01*
X2142032Y2739898D01*
X2141524Y2736799D01*
X2139899Y2736443D01*
X2139848Y2734106D01*
X2138324Y2733903D01*
X2138324Y2732938D01*
X2139340Y2732938D01*
X2142845Y2735834D01*
X2148332Y2742031D01*
X2148332Y2742590D01*
G37*
G36*
X2220976Y2741269D02*
G01*
X2220976Y2736138D01*
X2221585Y2736748D01*
X2221636Y2741269D01*
G37*
G36*
X2194001Y2740609D02*
G01*
X2191308Y2738170D01*
X2188819Y2734818D01*
X2185517Y2728112D01*
X2183841Y2727909D01*
X2182571Y2726791D01*
X2179574Y2722168D01*
X2177034Y2719171D01*
X2173681Y2713634D01*
X2171649Y2707538D01*
X2171649Y2706573D01*
X2173325Y2708148D01*
X2176576Y2712821D01*
X2180691Y2720136D01*
X2182520Y2722016D01*
X2183638Y2722626D01*
X2184654Y2721610D01*
X2184654Y2719933D01*
X2183231Y2719578D01*
X2180590Y2715514D01*
X2171649Y2697683D01*
X2171649Y2695702D01*
X2172208Y2695702D01*
X2173579Y2697226D01*
X2175662Y2701391D01*
X2175967Y2701391D01*
X2177288Y2698902D01*
X2177592Y2699867D01*
X2177948Y2704896D01*
X2179929Y2710027D01*
X2184603Y2717495D01*
X2186076Y2720492D01*
X2186127Y2722930D01*
X2183841Y2725369D01*
X2185162Y2724962D01*
X2185873Y2725470D01*
X2186330Y2726690D01*
X2188311Y2726232D01*
X2187905Y2728264D01*
X2189632Y2732024D01*
X2195017Y2739593D01*
X2195017Y2740609D01*
G37*
G36*
X2345639Y2740609D02*
G01*
X2345639Y2739745D01*
X2347315Y2737256D01*
X2350058Y2735275D01*
X2351227Y2735275D01*
X2351582Y2735834D01*
X2349957Y2738170D01*
X2346706Y2740609D01*
G37*
G36*
X2341372Y2739288D02*
G01*
X2340559Y2738323D01*
X2340813Y2737154D01*
X2341930Y2736443D01*
X2343099Y2737154D01*
X2343353Y2738323D01*
X2342540Y2739288D01*
G37*
G36*
X2354376Y2738577D02*
G01*
X2353970Y2738170D01*
X2353970Y2737612D01*
X2355443Y2736189D01*
X2359456Y2734259D01*
X2361285Y2734259D01*
X2361285Y2734919D01*
X2358440Y2737002D01*
X2355138Y2738577D01*
G37*
G36*
X2209495Y2737459D02*
G01*
X2206650Y2734462D01*
X2204974Y2731160D01*
X2204974Y2729280D01*
X2205939Y2729280D01*
X2207971Y2732176D01*
X2209698Y2736088D01*
G37*
G36*
X2174341Y2737256D02*
G01*
X2173071Y2735173D01*
X2172208Y2730855D01*
X2170734Y2730195D01*
X2168855Y2730855D01*
X2169058Y2732125D01*
X2171395Y2734970D01*
X2171141Y2735224D01*
X2169058Y2733903D01*
X2166721Y2730449D01*
X2166315Y2728976D01*
X2167178Y2728976D01*
X2167991Y2729738D01*
X2168652Y2729077D01*
X2166315Y2724200D01*
X2166721Y2723845D01*
X2169718Y2725420D01*
X2172665Y2729128D01*
X2175357Y2734208D01*
X2175764Y2737256D01*
G37*
G36*
X2323947Y2737256D02*
G01*
X2323998Y2735783D01*
X2324862Y2733497D01*
X2325624Y2733243D01*
X2325573Y2735783D01*
X2324608Y2737256D01*
G37*
G36*
X2151126Y2735275D02*
G01*
X2148941Y2733802D01*
X2147874Y2731973D01*
X2148738Y2730449D01*
X2151126Y2728620D01*
X2151380Y2728874D01*
X2150668Y2731566D01*
X2151075Y2732633D01*
X2151938Y2732633D01*
X2152751Y2733598D01*
X2152345Y2735275D01*
G37*
G36*
X2344013Y2735275D02*
G01*
X2343251Y2734310D01*
X2343454Y2733192D01*
X2344623Y2732430D01*
X2345791Y2733192D01*
X2345994Y2734310D01*
X2345182Y2735275D01*
G37*
G36*
X2211171Y2733294D02*
G01*
X2210308Y2732481D01*
X2210308Y2728722D01*
X2209596Y2726639D01*
X2207361Y2726639D01*
X2205177Y2723946D01*
X2203500Y2723134D01*
X2200757Y2717698D01*
X2198319Y2710535D01*
X2198319Y2708605D01*
X2194712Y2699562D01*
X2194001Y2696819D01*
X2194356Y2693873D01*
X2193798Y2691942D01*
X2191562Y2691333D01*
X2185822Y2685592D01*
X2182672Y2681427D01*
X2181910Y2681427D01*
X2182368Y2684881D01*
X2184298Y2690876D01*
X2183942Y2691231D01*
X2182012Y2688894D01*
X2180996Y2685948D01*
X2180996Y2679141D01*
X2179726Y2675280D01*
X2177084Y2669286D01*
X2176439Y2666492D01*
X2179015Y2666492D01*
X2179015Y2663139D01*
X2178354Y2663139D01*
X2178354Y2666492D01*
X2176439Y2666492D01*
X2175916Y2665171D01*
X2173884Y2664460D01*
X2172309Y2663037D01*
X2170999Y2658516D01*
X2172614Y2658516D01*
X2173376Y2660853D01*
X2175662Y2663190D01*
X2176475Y2662936D01*
X2176729Y2660345D01*
X2176322Y2658211D01*
X2175103Y2656738D01*
X2173376Y2657144D01*
X2172614Y2658516D01*
X2170999Y2658516D01*
X2169261Y2655163D01*
X2170074Y2654198D01*
X2174798Y2652776D01*
X2176627Y2650947D01*
X2177694Y2647035D01*
X2179370Y2642057D01*
X2182723Y2636012D01*
X2186940Y2630373D01*
X2193544Y2624023D01*
X2198471Y2620975D01*
X2203500Y2619298D01*
X2207818Y2618587D01*
X2215134Y2618181D01*
X2222754Y2618943D01*
X2228342Y2620264D01*
X2234793Y2622651D01*
X2238654Y2624683D01*
X2238654Y2625344D01*
X2236825Y2624886D01*
X2227529Y2621229D01*
X2225497Y2621432D01*
X2234793Y2626309D01*
X2240483Y2630017D01*
X2246477Y2634488D01*
X2250643Y2638806D01*
X2250643Y2639872D01*
X2249728Y2639872D01*
X2247138Y2638145D01*
X2244140Y2635351D01*
X2241143Y2632964D01*
X2239010Y2631897D01*
X2237841Y2631897D01*
X2236876Y2632506D01*
X2236470Y2634996D01*
X2235657Y2635300D01*
X2234946Y2633421D01*
X2234387Y2628493D01*
X2232558Y2626614D01*
X2227935Y2624937D01*
X2220468Y2622956D01*
X2214829Y2622194D01*
X2211222Y2622651D01*
X2209038Y2623667D01*
X2208225Y2625191D01*
X2209444Y2631948D01*
X2208276Y2648356D01*
X2207310Y2654300D01*
X2206091Y2657043D01*
X2203145Y2657906D01*
X2188616Y2658262D01*
X2188848Y2655570D01*
X2191308Y2655570D01*
X2192020Y2656840D01*
X2192731Y2656840D01*
X2194001Y2656128D01*
X2194001Y2655316D01*
X2193086Y2654096D01*
X2191715Y2654554D01*
X2191308Y2655570D01*
X2188848Y2655570D01*
X2189175Y2652318D01*
X2189073Y2646578D01*
X2187651Y2643682D01*
X2186025Y2641041D01*
X2185974Y2639822D01*
X2188006Y2640279D01*
X2187668Y2637739D01*
X2190597Y2637739D01*
X2191410Y2650693D01*
X2191969Y2652166D01*
X2193696Y2652826D01*
X2201672Y2653131D01*
X2203805Y2653385D01*
X2202840Y2653792D01*
X2196846Y2655112D01*
X2202586Y2655163D01*
X2204720Y2654757D01*
X2205634Y2653334D01*
X2206345Y2645714D01*
X2206752Y2633726D01*
X2205990Y2630068D01*
X2203145Y2627579D01*
X2205786Y2625242D01*
X2204974Y2625242D01*
X2198827Y2628036D01*
X2197150Y2629052D01*
X2194356Y2631287D01*
X2193645Y2633929D01*
X2191918Y2634589D01*
X2192274Y2636367D01*
X2190597Y2637739D01*
X2187668Y2637739D01*
X2187600Y2637231D01*
X2188819Y2636774D01*
X2189988Y2635808D01*
X2189988Y2634691D01*
X2191512Y2631846D01*
X2195474Y2627833D01*
X2199690Y2624836D01*
X2204364Y2622854D01*
X2208834Y2621889D01*
X2221179Y2621330D01*
X2223008Y2620873D01*
X2222754Y2620111D01*
X2218486Y2619502D01*
X2208174Y2620314D01*
X2203196Y2621229D01*
X2198979Y2623261D01*
X2194306Y2626360D01*
X2188311Y2631948D01*
X2183942Y2637739D01*
X2181402Y2643022D01*
X2180590Y2646680D01*
X2180234Y2654655D01*
X2180996Y2667152D01*
X2182063Y2672638D01*
X2183739Y2676956D01*
X2186635Y2681376D01*
X2194509Y2689809D01*
X2196947Y2693111D01*
X2196592Y2694127D01*
X2200351Y2697632D01*
X2200351Y2698292D01*
X2198319Y2699156D01*
X2196642Y2700426D01*
X2196642Y2701442D01*
X2199081Y2700985D01*
X2198217Y2705760D01*
X2201316Y2705303D01*
X2201316Y2706319D01*
X2200656Y2708097D01*
X2200960Y2708452D01*
X2205177Y2705049D01*
X2205990Y2705049D01*
X2205990Y2705658D01*
X2203450Y2708859D01*
X2202230Y2709824D01*
X2200656Y2713177D01*
X2200656Y2714548D01*
X2201113Y2715006D01*
X2202230Y2713532D01*
X2204059Y2714752D01*
X2205939Y2718816D01*
X2207768Y2725013D01*
X2208225Y2724150D01*
X2209444Y2719324D01*
X2210003Y2720136D01*
X2210003Y2723286D01*
X2211374Y2726893D01*
X2213102Y2729433D01*
X2213965Y2731566D01*
X2212797Y2732938D01*
G37*
G36*
X2158746Y2732633D02*
G01*
X2158034Y2731770D01*
X2156002Y2727452D01*
X2156002Y2726283D01*
X2156612Y2726639D01*
X2159355Y2730703D01*
X2159355Y2732633D01*
G37*
G36*
X2348077Y2732633D02*
G01*
X2346604Y2731566D01*
X2346604Y2730652D01*
X2347874Y2729992D01*
X2350465Y2729382D01*
X2351938Y2729941D01*
X2351278Y2731719D01*
X2350109Y2732582D01*
G37*
G36*
X2365044Y2732633D02*
G01*
X2364638Y2732176D01*
X2364638Y2730703D01*
X2365603Y2729890D01*
X2366721Y2730144D01*
X2366975Y2730855D01*
X2365552Y2732633D01*
G37*
G36*
X2353970Y2732278D02*
G01*
X2353970Y2730754D01*
X2356002Y2728976D01*
X2355240Y2724962D01*
X2355799Y2724962D01*
X2357424Y2727452D01*
X2357424Y2729636D01*
X2354834Y2732278D01*
G37*
G36*
X2133498Y2731262D02*
G01*
X2132330Y2730601D01*
X2131314Y2728620D01*
X2131720Y2727960D01*
X2132736Y2727960D01*
X2134666Y2729890D01*
X2134666Y2731262D01*
G37*
G36*
X2361031Y2730449D02*
G01*
X2360422Y2729128D01*
X2360523Y2721813D01*
X2361946Y2716530D01*
X2363114Y2714193D01*
X2364790Y2712974D01*
X2367127Y2712618D01*
X2369261Y2714396D01*
X2369261Y2716022D01*
X2368448Y2715971D01*
X2366772Y2715006D01*
X2365400Y2715006D01*
X2363978Y2716479D01*
X2362657Y2721457D01*
X2361539Y2729077D01*
G37*
G36*
X2160625Y2729941D02*
G01*
X2162657Y2726893D01*
X2162657Y2724912D01*
X2161997Y2723642D01*
X2162759Y2723642D01*
X2165654Y2726029D01*
X2165654Y2726537D01*
X2160981Y2729941D01*
G37*
G36*
X2365959Y2728366D02*
G01*
X2365959Y2727960D01*
X2367686Y2724454D01*
X2370175Y2720797D01*
X2372258Y2716682D01*
X2372766Y2713228D01*
X2373579Y2712974D01*
X2374036Y2714701D01*
X2373274Y2717749D01*
X2370988Y2722168D01*
X2367076Y2727452D01*
G37*
G36*
X2147163Y2727299D02*
G01*
X2145182Y2726283D01*
X2143302Y2724454D01*
X2141118Y2721152D01*
X2140610Y2719628D01*
X2141321Y2719628D01*
X2143760Y2721305D01*
X2145944Y2720898D01*
X2146401Y2722981D01*
X2149652Y2726893D01*
X2149246Y2727299D01*
G37*
G36*
X2153208Y2727299D02*
G01*
X2150008Y2723845D01*
X2150008Y2723286D01*
X2151176Y2723896D01*
X2154021Y2726334D01*
X2154021Y2727299D01*
G37*
G36*
X2340102Y2726944D02*
G01*
X2336038Y2725013D01*
X2333294Y2722575D01*
X2333294Y2721152D01*
X2333904Y2720238D01*
X2337409Y2718511D01*
X2338984Y2715514D01*
X2342134Y2712313D01*
X2345232Y2710027D01*
X2346248Y2710027D01*
X2347569Y2708300D01*
X2348026Y2706370D01*
X2348636Y2706725D01*
X2348636Y2708503D01*
X2349195Y2709418D01*
X2350617Y2709062D01*
X2350617Y2709621D01*
X2346807Y2713075D01*
X2338984Y2716834D01*
X2338984Y2717139D01*
X2344318Y2720035D01*
X2343912Y2720492D01*
X2336139Y2721152D01*
X2339441Y2722422D01*
X2341372Y2724150D01*
X2341981Y2725724D01*
X2341575Y2726944D01*
G37*
G36*
X2349042Y2726944D02*
G01*
X2348636Y2726537D01*
X2348636Y2722676D01*
X2349398Y2722219D01*
X2351278Y2724302D01*
X2350871Y2725470D01*
X2349500Y2726944D01*
G37*
G36*
X2413762Y2725978D02*
G01*
X2412796Y2725318D01*
X2414625Y2724658D01*
X2416302Y2725064D01*
X2416048Y2725826D01*
G37*
G36*
X2344978Y2725369D02*
G01*
X2343607Y2723134D01*
X2343607Y2722321D01*
X2344216Y2722321D01*
X2345994Y2724404D01*
X2345740Y2725115D01*
G37*
G36*
X2464917Y2725318D02*
G01*
X2464917Y2721305D01*
X2465527Y2721305D01*
X2465730Y2723134D01*
X2465527Y2725318D01*
G37*
G36*
X2155088Y2724658D02*
G01*
X2152853Y2723134D01*
X2151329Y2720898D01*
X2151329Y2719628D01*
X2151938Y2719628D01*
X2155342Y2723134D01*
X2154072Y2719070D01*
X2151329Y2714091D01*
X2151329Y2712364D01*
X2152345Y2712720D01*
X2155342Y2717241D01*
X2157069Y2721152D01*
X2157171Y2723997D01*
X2156155Y2724607D01*
G37*
G36*
X2133701Y2721965D02*
G01*
X2132634Y2720898D01*
X2132838Y2718816D01*
X2134057Y2718612D01*
X2135327Y2719781D01*
X2135327Y2721203D01*
X2134565Y2721965D01*
G37*
G36*
X2326284Y2721965D02*
G01*
X2326284Y2721406D01*
X2329180Y2717495D01*
X2330348Y2715310D01*
X2332329Y2704541D01*
X2333091Y2702001D01*
X2334920Y2700426D01*
X2338120Y2700020D01*
X2340051Y2700731D01*
X2339695Y2703220D01*
X2337257Y2708452D01*
X2335580Y2710688D01*
X2334310Y2710688D01*
X2331618Y2713075D01*
X2331618Y2713990D01*
X2334768Y2713024D01*
X2336292Y2713024D01*
X2336292Y2714142D01*
X2330602Y2719628D01*
X2327148Y2721965D01*
G37*
G36*
X2168702Y2721660D02*
G01*
X2166112Y2718663D01*
X2163724Y2713837D01*
X2161641Y2708757D01*
X2159304Y2704947D01*
X2159558Y2704693D01*
X2162810Y2707081D01*
X2163064Y2706014D01*
X2159812Y2699867D01*
X2148687Y2681833D01*
X2148687Y2681122D01*
X2150618Y2681782D01*
X2153361Y2684170D01*
X2153361Y2686050D01*
X2155240Y2688234D01*
X2159050Y2694838D01*
X2163419Y2703525D01*
X2164994Y2707995D01*
X2163521Y2708198D01*
X2163267Y2709418D01*
X2164080Y2711297D01*
X2165146Y2711653D01*
X2166975Y2714548D01*
X2169312Y2720644D01*
X2169312Y2721660D01*
G37*
G36*
X2162505Y2721610D02*
G01*
X2159863Y2720695D01*
X2158593Y2719171D01*
X2155291Y2712618D01*
X2155952Y2712821D01*
X2159406Y2717139D01*
X2161082Y2720035D01*
X2164689Y2719578D01*
X2164638Y2720492D01*
X2164181Y2721254D01*
G37*
G36*
X2172360Y2720644D02*
G01*
X2171293Y2719578D01*
X2171496Y2717495D01*
X2172716Y2717292D01*
X2173986Y2718409D01*
X2173986Y2719832D01*
X2173224Y2720644D01*
G37*
G36*
X2347061Y2719324D02*
G01*
X2345842Y2718409D01*
X2346248Y2717342D01*
X2347772Y2717342D01*
X2350008Y2718663D01*
X2349601Y2719324D01*
G37*
G36*
X2197404Y2718663D02*
G01*
X2195372Y2714142D01*
X2189937Y2699715D01*
X2190597Y2699715D01*
X2193290Y2703677D01*
X2195931Y2710535D01*
X2197608Y2715717D01*
X2198065Y2718663D01*
G37*
G36*
X2351633Y2718663D02*
G01*
X2350617Y2717190D01*
X2350617Y2714802D01*
X2353614Y2711399D01*
X2354021Y2709316D01*
X2354630Y2708960D01*
X2356256Y2710027D01*
X2356662Y2712262D01*
X2355900Y2713685D01*
X2354376Y2713685D01*
X2353310Y2714904D01*
X2353310Y2716987D01*
X2352497Y2718663D01*
G37*
G36*
X2140813Y2718003D02*
G01*
X2139340Y2716987D01*
X2137918Y2712161D01*
X2136749Y2709824D01*
X2134006Y2706268D01*
X2131923Y2700883D01*
X2130044Y2693466D01*
X2129028Y2686253D01*
X2128570Y2679192D01*
X2129028Y2677464D01*
X2130653Y2677464D01*
X2133346Y2680004D01*
X2133346Y2681782D01*
X2132076Y2681071D01*
X2131720Y2681071D01*
X2130704Y2682138D01*
X2130704Y2685694D01*
X2131720Y2690571D01*
X2135073Y2701848D01*
X2138629Y2709164D01*
X2141982Y2714345D01*
X2143048Y2714345D01*
X2142591Y2715818D01*
X2141524Y2717749D01*
G37*
G36*
X2127504Y2717647D02*
G01*
X2126691Y2717088D01*
X2126030Y2714853D01*
X2126030Y2711602D01*
X2126843Y2711856D01*
X2128367Y2714853D01*
X2128164Y2717444D01*
G37*
G36*
X2209088Y2717647D02*
G01*
X2208631Y2717190D01*
X2208682Y2715158D01*
X2209292Y2714193D01*
X2210003Y2716022D01*
X2209596Y2717647D01*
G37*
G36*
X2146401Y2716682D02*
G01*
X2145030Y2714955D01*
X2145436Y2713990D01*
X2146604Y2713990D01*
X2147366Y2714955D01*
X2147163Y2716428D01*
G37*
G36*
X2186076Y2716022D02*
G01*
X2184044Y2711450D01*
X2182723Y2707335D01*
X2181860Y2702001D01*
X2182672Y2701239D01*
X2183993Y2704287D01*
X2186330Y2712415D01*
X2186736Y2716022D01*
G37*
G36*
X2205075Y2714091D02*
G01*
X2204415Y2712821D01*
X2203602Y2710332D01*
X2204008Y2708706D01*
X2205329Y2708706D01*
X2206040Y2710484D01*
X2205583Y2713177D01*
G37*
G36*
X2362403Y2712669D02*
G01*
X2361234Y2711399D01*
X2361438Y2710180D01*
X2363266Y2709214D01*
X2363978Y2709926D01*
X2362860Y2712669D01*
G37*
G36*
X2170379Y2712059D02*
G01*
X2169007Y2709824D01*
X2169007Y2709011D01*
X2169617Y2709011D01*
X2171344Y2711094D01*
X2171141Y2711805D01*
G37*
G36*
X2147671Y2711348D02*
G01*
X2146350Y2707995D01*
X2143760Y2705201D01*
X2142032Y2702610D01*
X2142032Y2701340D01*
X2143861Y2702306D01*
X2146960Y2705608D01*
X2148687Y2709011D01*
X2148687Y2711348D01*
G37*
G36*
X2366365Y2709367D02*
G01*
X2365959Y2708910D01*
X2365959Y2707132D01*
X2366822Y2705912D01*
X2368600Y2706370D01*
X2368600Y2707894D01*
X2367584Y2709367D01*
G37*
G36*
X2361082Y2708706D02*
G01*
X2360625Y2708249D01*
X2360625Y2706776D01*
X2361590Y2705963D01*
X2362708Y2706217D01*
X2362962Y2706928D01*
X2361590Y2708706D01*
G37*
G36*
X2125116Y2708351D02*
G01*
X2124659Y2707894D01*
X2124710Y2705862D01*
X2125319Y2704896D01*
X2126030Y2706725D01*
X2125624Y2708351D01*
G37*
G36*
X2158034Y2708351D02*
G01*
X2153920Y2702915D01*
X2153310Y2701340D01*
X2153767Y2700629D01*
X2156002Y2699715D01*
X2156561Y2699715D01*
X2156256Y2702001D01*
X2159000Y2707894D01*
X2159000Y2708351D01*
G37*
G36*
X2341880Y2708351D02*
G01*
X2342286Y2706217D01*
X2344166Y2703525D01*
X2345283Y2703322D01*
X2345283Y2704388D01*
X2344216Y2706522D01*
X2342489Y2708351D01*
G37*
G36*
X2304440Y2707995D02*
G01*
X2302814Y2707436D01*
X2300732Y2706370D01*
X2298649Y2704642D01*
X2298649Y2703372D01*
X2299817Y2703372D01*
X2302103Y2705049D01*
X2308250Y2705049D01*
X2313127Y2704084D01*
X2316784Y2702814D01*
X2317445Y2701391D01*
X2321306Y2702204D01*
X2321458Y2702864D01*
X2314803Y2705252D01*
X2310180Y2707843D01*
G37*
G36*
X2356713Y2706725D02*
G01*
X2354630Y2704998D01*
X2353868Y2702407D01*
X2354732Y2699207D01*
X2358288Y2695803D01*
X2359609Y2695448D01*
X2360320Y2696768D01*
X2359863Y2700223D01*
X2359406Y2701036D01*
X2356967Y2699308D01*
X2355951Y2699715D01*
X2356408Y2701544D01*
X2357678Y2704388D01*
X2357475Y2706471D01*
G37*
G36*
X2150516Y2705354D02*
G01*
X2149094Y2704185D01*
X2147976Y2702458D01*
X2148433Y2701391D01*
X2149703Y2701391D01*
X2151024Y2703525D01*
X2151024Y2705354D01*
G37*
G36*
X2233422Y2704693D02*
G01*
X2232609Y2703728D01*
X2232812Y2702610D01*
X2233574Y2702356D01*
X2235403Y2703931D01*
X2234946Y2704693D01*
G37*
G36*
X2371191Y2704439D02*
G01*
X2371648Y2702509D01*
X2373122Y2699918D01*
X2373934Y2699664D01*
X2373934Y2700883D01*
X2372106Y2704134D01*
G37*
G36*
X2170328Y2703372D02*
G01*
X2169363Y2701848D01*
X2167737Y2698191D01*
X2166315Y2693670D01*
X2166315Y2691739D01*
X2167940Y2692400D01*
X2168652Y2694482D01*
X2168652Y2696565D01*
X2169363Y2698953D01*
X2171039Y2701442D01*
X2171395Y2703372D01*
G37*
G36*
X2213305Y2703372D02*
G01*
X2212136Y2701391D01*
X2207666Y2699410D01*
X2207666Y2698292D01*
X2210765Y2698699D01*
X2214118Y2700629D01*
X2215388Y2702306D01*
X2215032Y2703372D01*
G37*
G36*
X2223465Y2703322D02*
G01*
X2219350Y2702306D01*
X2218334Y2701188D01*
X2219350Y2699715D01*
X2220823Y2699715D01*
X2224786Y2701798D01*
X2229256Y2701391D01*
X2231085Y2702052D01*
X2229967Y2703169D01*
G37*
G36*
X2365044Y2703017D02*
G01*
X2364638Y2702610D01*
X2364638Y2700528D01*
X2365248Y2699562D01*
X2365959Y2701442D01*
X2365552Y2703017D01*
G37*
G36*
X2351633Y2702712D02*
G01*
X2351633Y2697581D01*
X2352243Y2698191D01*
X2352294Y2702712D01*
G37*
G36*
X2585872Y2702052D02*
G01*
X2506421Y2686710D01*
X2502001Y2685440D01*
X2501138Y2684373D01*
X2502255Y2677871D01*
X2503322Y2660954D01*
X2503881Y2659989D01*
X2506218Y2661259D01*
X2509570Y2660904D01*
X2509570Y2661869D01*
X2507894Y2663393D01*
X2505964Y2663799D01*
X2505202Y2665984D01*
X2503830Y2681478D01*
X2505100Y2682849D01*
X2508097Y2684322D01*
X2512720Y2685389D01*
X2528062Y2688082D01*
X2548382Y2692044D01*
X2558034Y2693416D01*
X2561742Y2693263D01*
X2563774Y2694736D01*
X2567381Y2695702D01*
X2576728Y2697124D01*
X2583027Y2698800D01*
X2584399Y2699461D01*
X2585872Y2700832D01*
G37*
G36*
X2205685Y2701391D02*
G01*
X2204516Y2701340D01*
X2201011Y2699969D01*
X2201011Y2699410D01*
X2202637Y2698343D01*
X2204567Y2698750D01*
X2206091Y2700324D01*
G37*
G36*
X2367584Y2700731D02*
G01*
X2367229Y2699766D01*
X2367432Y2697530D01*
X2368905Y2697327D01*
X2369616Y2698699D01*
X2368600Y2700731D01*
G37*
G36*
X2317445Y2700020D02*
G01*
X2259787Y2699918D01*
X2246477Y2699461D01*
X2225141Y2697022D01*
X2213965Y2695346D01*
X2206498Y2693466D01*
X2201468Y2691536D01*
X2195880Y2688234D01*
X2191004Y2683560D01*
X2191004Y2682748D01*
X2192680Y2683814D01*
X2195017Y2683560D01*
X2194610Y2685440D01*
X2196998Y2687675D01*
X2201468Y2689809D01*
X2207514Y2691790D01*
X2217166Y2693670D01*
X2230475Y2695041D01*
X2242159Y2695803D01*
X2252827Y2695549D01*
X2254758Y2694076D01*
X2256332Y2694076D01*
X2256332Y2694686D01*
X2254300Y2696159D01*
X2254300Y2696768D01*
X2256129Y2696311D01*
X2258466Y2694584D01*
X2262225Y2690723D01*
X2263292Y2690723D01*
X2263292Y2691231D01*
X2262327Y2692654D01*
X2259990Y2694127D01*
X2259990Y2695295D01*
X2261057Y2696210D01*
X2263800Y2694584D01*
X2283866Y2694127D01*
X2283968Y2692603D01*
X2280310Y2685237D01*
X2279294Y2680106D01*
X2279294Y2674264D01*
X2278684Y2671318D01*
X2277719Y2670657D01*
X2278583Y2668320D01*
X2286254Y2652826D01*
X2288997Y2645968D01*
X2291892Y2641041D01*
X2294991Y2638094D01*
X2294940Y2638704D01*
X2291638Y2644038D01*
X2291638Y2645562D01*
X2293112Y2644749D01*
X2301849Y2636367D01*
X2308148Y2631897D01*
X2316784Y2627579D01*
X2322118Y2625953D01*
X2329789Y2624632D01*
X2332634Y2623515D01*
X2331008Y2615438D01*
X2324862Y2588514D01*
X2322068Y2580233D01*
X2318867Y2572562D01*
X2311755Y2558592D01*
X2300528Y2538679D01*
X2301798Y2523845D01*
X2302306Y2520035D01*
X2303678Y2513076D01*
X2306523Y2504440D01*
X2309266Y2499055D01*
X2313178Y2492806D01*
X2314905Y2489454D01*
X2315667Y2486812D01*
X2316226Y2473401D01*
X2317343Y2471013D01*
X2315667Y2468168D01*
X2310790Y2463495D01*
X2304643Y2459431D01*
X2300935Y2458059D01*
X2294788Y2457399D01*
X2284120Y2457399D01*
X2273147Y2458059D01*
X2267813Y2458770D01*
X2258822Y2460802D01*
X2238502Y2466340D01*
X2214168Y2473604D01*
X2197506Y2479090D01*
X2172766Y2487980D01*
X2171395Y2487980D01*
X2169363Y2489657D01*
X2168144Y2488996D01*
X2166112Y2486812D01*
X2162098Y2481478D01*
X2156764Y2476449D01*
X2151989Y2473960D01*
X2147112Y2470048D01*
X2143150Y2465781D01*
X2130501Y2449931D01*
X2123643Y2442819D01*
X2119172Y2439517D01*
X2110536Y2434386D01*
X2101697Y2427833D01*
X2090877Y2418689D01*
X2081174Y2409037D01*
X2075586Y2402027D01*
X2073605Y2397861D01*
X2074367Y2396236D01*
X2075688Y2396236D01*
X2076094Y2395220D01*
X2075281Y2394254D01*
X2073402Y2394254D01*
X2072030Y2392476D01*
X2070709Y2388158D01*
X2070709Y2382418D01*
X2071725Y2378506D01*
X2073046Y2376373D01*
X2073046Y2373020D01*
X2072030Y2367889D01*
X2070303Y2362149D01*
X2068372Y2357983D01*
X2065274Y2353716D01*
X2064715Y2354072D01*
X2064715Y2390546D01*
X2058517Y2391562D01*
X2044903Y2393238D01*
X2041550Y2393238D01*
X2040636Y2392680D01*
X2040889Y2391410D01*
X2043226Y2391613D01*
X2044446Y2390241D01*
X2045665Y2390241D01*
X2049170Y2391613D01*
X2053539Y2390241D01*
X2061464Y2389276D01*
X2061718Y2389022D01*
X2062327Y2357831D01*
X2063038Y2352700D01*
X2064512Y2352700D01*
X2065477Y2352090D01*
X2064207Y2350109D01*
X2061311Y2346604D01*
X2061667Y2345334D01*
X2059686Y2342235D01*
X2057095Y2335225D01*
X2055368Y2329332D01*
X2055368Y2327859D01*
X2056333Y2327046D01*
X2057704Y2327452D01*
X2058416Y2332228D01*
X2060397Y2338222D01*
X2064969Y2347518D01*
X2070100Y2356154D01*
X2072589Y2361184D01*
X2073097Y2363165D01*
X2077110Y2371140D01*
X2077161Y2373833D01*
X2073656Y2381300D01*
X2072639Y2386431D01*
X2073097Y2389428D01*
X2074214Y2391308D01*
X2077364Y2392934D01*
X2078431Y2394559D01*
X2078532Y2396744D01*
X2076957Y2396540D01*
X2077364Y2398572D01*
X2079345Y2401519D01*
X2080717Y2401925D01*
X2082088Y2401468D01*
X2081580Y2403703D01*
X2081631Y2405227D01*
X2082800Y2406548D01*
X2084679Y2406548D01*
X2087067Y2404465D01*
X2087422Y2404821D01*
X2087016Y2406497D01*
X2085035Y2408783D01*
X2085035Y2409545D01*
X2085949Y2409545D01*
X2088591Y2412441D01*
X2089454Y2414016D01*
X2091791Y2416860D01*
X2095296Y2418435D01*
X2098852Y2421077D01*
X2106168Y2427173D01*
X2113584Y2432761D01*
X2119528Y2436622D01*
X2122830Y2437688D01*
X2123795Y2439822D01*
X2125827Y2440228D01*
X2129536Y2443937D01*
X2133447Y2449525D01*
X2137410Y2453741D01*
X2138984Y2453741D01*
X2138984Y2455418D01*
X2140356Y2458059D01*
X2144420Y2462377D01*
X2145995Y2462784D01*
X2147976Y2465019D01*
X2150770Y2469743D01*
X2152802Y2471775D01*
X2155037Y2471369D01*
X2156815Y2472029D01*
X2158339Y2474315D01*
X2161692Y2475026D01*
X2162302Y2476652D01*
X2163978Y2476652D01*
X2163978Y2479243D01*
X2166721Y2482342D01*
X2169617Y2484018D01*
X2173224Y2484374D01*
X2177186Y2483256D01*
X2185162Y2479497D01*
X2188514Y2479446D01*
X2188718Y2478328D01*
X2190546Y2477363D01*
X2197811Y2475636D01*
X2205482Y2472436D01*
X2222449Y2467000D01*
X2228088Y2466035D01*
X2229612Y2464358D01*
X2239873Y2462377D01*
X2242820Y2461361D01*
X2245156Y2459786D01*
X2252167Y2459482D01*
X2258771Y2457043D01*
X2266137Y2456027D01*
X2272131Y2454351D01*
X2272995Y2453944D01*
X2272995Y2453132D01*
X2277465Y2452624D01*
X2288794Y2453386D01*
X2292807Y2454402D01*
X2301951Y2455418D01*
X2305812Y2456840D01*
X2307793Y2458059D01*
X2309215Y2458059D01*
X2314041Y2463393D01*
X2316073Y2464460D01*
X2318867Y2464054D01*
X2318562Y2469540D01*
X2319680Y2481122D01*
X2319223Y2484831D01*
X2317699Y2488793D01*
X2314854Y2494432D01*
X2311908Y2499004D01*
X2312162Y2499258D01*
X2326436Y2493060D01*
X2329281Y2491282D01*
X2330399Y2489606D01*
X2333599Y2490012D01*
X2335834Y2489301D01*
X2337308Y2487726D01*
X2337104Y2485491D01*
X2338781Y2485491D01*
X2340000Y2488031D01*
X2341118Y2487777D01*
X2341321Y2485898D01*
X2343658Y2486355D01*
X2344623Y2485542D01*
X2344623Y2483916D01*
X2346553Y2481986D01*
X2348026Y2481986D01*
X2347620Y2483662D01*
X2349296Y2483662D01*
X2353462Y2482240D01*
X2358898Y2479700D01*
X2360625Y2477617D01*
X2360625Y2475026D01*
X2361234Y2475026D01*
X2363317Y2477973D01*
X2364587Y2478684D01*
X2365298Y2478684D01*
X2365298Y2476347D01*
X2366772Y2476042D01*
X2371648Y2475636D01*
X2374696Y2474722D01*
X2375865Y2473655D01*
X2375560Y2472436D01*
X2378100Y2472029D01*
X2382215Y2469337D01*
X2385263Y2465984D01*
X2384856Y2464409D01*
X2387092Y2464765D01*
X2387752Y2463190D01*
X2390038Y2461869D01*
X2393035Y2459228D01*
X2398572Y2452319D01*
X2400249Y2448915D01*
X2402433Y2443632D01*
X2403246Y2443378D01*
X2403246Y2445359D01*
X2404618Y2446934D01*
X2405938Y2445359D01*
X2405938Y2443480D01*
X2405227Y2441600D01*
X2403805Y2440076D01*
X2405583Y2434945D01*
X2405176Y2430932D01*
X2407259Y2428544D01*
X2407259Y2427478D01*
X2405583Y2427478D01*
X2405583Y2426512D01*
X2407361Y2421636D01*
X2409291Y2417826D01*
X2410002Y2417826D01*
X2409698Y2418689D01*
X2406243Y2438755D01*
X2406243Y2440787D01*
X2407310Y2440787D01*
X2408631Y2437790D01*
X2410256Y2429560D01*
X2411120Y2427630D01*
X2412288Y2425903D01*
X2412644Y2420975D01*
X2413355Y2419146D01*
X2413965Y2419553D01*
X2414930Y2418791D01*
X2416251Y2415184D01*
X2417927Y2405837D01*
X2419908Y2400401D01*
X2419908Y2398217D01*
X2418588Y2397404D01*
X2418588Y2396185D01*
X2420061Y2393391D01*
X2420112Y2386431D01*
X2421737Y2382418D01*
X2422194Y2385771D01*
X2422245Y2390902D01*
X2422855Y2390902D01*
X2423922Y2389276D01*
X2426004Y2383180D01*
X2425547Y2376474D01*
X2426970Y2371953D01*
X2430627Y2366314D01*
X2429916Y2364994D01*
X2427884Y2363927D01*
X2428087Y2362504D01*
X2429865Y2362301D01*
X2430272Y2363978D01*
X2430932Y2363978D01*
X2431999Y2362352D01*
X2433523Y2354732D01*
X2434336Y2347366D01*
X2433878Y2344724D01*
X2434539Y2344724D01*
X2435301Y2346960D01*
X2436317Y2347823D01*
X2437536Y2346350D01*
X2439974Y2336241D01*
X2441600Y2333853D01*
X2442616Y2328976D01*
X2443581Y2326741D01*
X2444902Y2324811D01*
X2444902Y2322576D01*
X2443835Y2318969D01*
X2441194Y2313635D01*
X2437892Y2308504D01*
X2435860Y2306828D01*
X2434996Y2306828D01*
X2434183Y2307793D01*
X2434285Y2315362D01*
X2433878Y2316480D01*
X2432964Y2316480D01*
X2432608Y2314956D01*
X2432405Y2302306D01*
X2430576Y2298446D01*
X2430576Y2297074D01*
X2431694Y2291689D01*
X2431237Y2289860D01*
X2430373Y2289860D01*
X2428240Y2292502D01*
X2426716Y2292502D01*
X2425954Y2291740D01*
X2425954Y2290216D01*
X2428138Y2290216D01*
X2430780Y2288336D01*
X2432913Y2285847D01*
X2433980Y2283815D01*
X2433167Y2281834D01*
X2431440Y2280767D01*
X2429916Y2279446D01*
X2429916Y2278583D01*
X2430881Y2278583D01*
X2434386Y2281224D01*
X2435250Y2281224D01*
X2435250Y2280056D01*
X2433675Y2276754D01*
X2432608Y2275840D01*
X2432608Y2275179D01*
X2434132Y2275535D01*
X2435656Y2274468D01*
X2436926Y2271725D01*
X2436926Y2268931D01*
X2435758Y2268321D01*
X2437942Y2265426D01*
X2439009Y2263089D01*
X2439619Y2256790D01*
X2441651Y2246833D01*
X2444242Y2238857D01*
X2444089Y2232863D01*
X2445969Y2228748D01*
X2447544Y2227275D01*
X2448255Y2227732D01*
X2448255Y2229612D01*
X2432253Y2298903D01*
X2438654Y2305608D01*
X2441498Y2309317D01*
X2445258Y2315057D01*
X2448052Y2320899D01*
X2448001Y2324252D01*
X2444851Y2332583D01*
X2442616Y2337104D01*
X2439873Y2346096D01*
X2437180Y2352852D01*
X2434234Y2361082D01*
X2430932Y2372055D01*
X2429256Y2380437D01*
X2425192Y2394051D01*
X2416860Y2419350D01*
X2412542Y2429967D01*
X2407208Y2445918D01*
X2404872Y2450592D01*
X2402789Y2453233D01*
X2397302Y2459228D01*
X2387752Y2468016D01*
X2382418Y2472131D01*
X2376982Y2475687D01*
X2371750Y2478328D01*
X2364790Y2480716D01*
X2322118Y2498496D01*
X2310333Y2502916D01*
X2308402Y2505557D01*
X2306980Y2510078D01*
X2305253Y2519375D01*
X2303983Y2529535D01*
X2303983Y2533345D01*
X2305659Y2536901D01*
X2305558Y2541168D01*
X2308047Y2544826D01*
X2307691Y2547467D01*
X2308910Y2547467D01*
X2310993Y2549956D01*
X2314549Y2556967D01*
X2321255Y2571699D01*
X2326233Y2584196D01*
X2329688Y2598470D01*
X2331313Y2604160D01*
X2333752Y2608986D01*
X2332939Y2611170D01*
X2332939Y2614472D01*
X2334666Y2618079D01*
X2337206Y2621432D01*
X2339848Y2623261D01*
X2343556Y2623870D01*
X2345639Y2624937D01*
X2345639Y2625953D01*
X2344724Y2626258D01*
X2335276Y2624277D01*
X2334209Y2624683D01*
X2334615Y2626664D01*
X2337511Y2632710D01*
X2338882Y2634386D01*
X2339289Y2633980D01*
X2338628Y2632202D01*
X2338628Y2630170D01*
X2339441Y2630424D01*
X2340660Y2632811D01*
X2344521Y2648356D01*
X2344216Y2648712D01*
X2341981Y2646121D01*
X2340559Y2643073D01*
X2339187Y2637739D01*
X2338273Y2635910D01*
X2337257Y2635910D01*
X2336647Y2637586D01*
X2336596Y2640685D01*
X2336088Y2642006D01*
X2334717Y2640634D01*
X2334310Y2637028D01*
X2333853Y2629154D01*
X2332685Y2627985D01*
X2329789Y2628595D01*
X2325674Y2630576D01*
X2323947Y2632659D01*
X2323642Y2632354D01*
X2325624Y2628188D01*
X2325624Y2626918D01*
X2324201Y2626918D01*
X2318308Y2628900D01*
X2313482Y2631287D01*
X2309469Y2633675D01*
X2304440Y2637434D01*
X2299157Y2642362D01*
X2293823Y2649118D01*
X2289606Y2655874D01*
X2286050Y2662631D01*
X2285644Y2664307D01*
X2286152Y2665120D01*
X2290826Y2664155D01*
X2293975Y2664155D01*
X2296363Y2665120D01*
X2298598Y2667101D01*
X2303018Y2667863D01*
X2303424Y2668879D01*
X2302611Y2671876D01*
X2301240Y2673807D01*
X2298242Y2674518D01*
X2297836Y2675585D01*
X2297125Y2676093D01*
X2289810Y2676093D01*
X2287320Y2676804D01*
X2287320Y2677769D01*
X2286406Y2677769D01*
X2284628Y2675890D01*
X2284628Y2675128D01*
X2286304Y2674010D01*
X2299208Y2672029D01*
X2299411Y2671826D01*
X2297582Y2668117D01*
X2296261Y2667457D01*
X2295601Y2667863D01*
X2296058Y2670708D01*
X2294686Y2671470D01*
X2289810Y2671419D01*
X2287473Y2670606D01*
X2287066Y2668473D01*
X2286782Y2668117D01*
X2288946Y2668117D01*
X2292451Y2670098D01*
X2293213Y2670149D01*
X2293975Y2669235D01*
X2293518Y2668066D01*
X2291943Y2667457D01*
X2289352Y2667457D01*
X2288946Y2668117D01*
X2286782Y2668117D01*
X2286254Y2667457D01*
X2284984Y2668117D01*
X2284272Y2672130D01*
X2282596Y2672130D01*
X2281986Y2673807D01*
X2281529Y2678328D01*
X2282342Y2682849D01*
X2284730Y2687574D01*
X2286965Y2690520D01*
X2286965Y2691841D01*
X2285288Y2694686D01*
X2285695Y2695702D01*
X2287879Y2696413D01*
X2294788Y2697022D01*
X2318461Y2697022D01*
X2331466Y2696362D01*
X2340305Y2695346D01*
X2345436Y2694025D01*
X2352446Y2689250D01*
X2354935Y2685897D01*
X2357526Y2680919D01*
X2359253Y2676296D01*
X2360574Y2671622D01*
X2361742Y2665628D01*
X2361742Y2656687D01*
X2360523Y2650998D01*
X2358542Y2645054D01*
X2356967Y2641904D01*
X2354935Y2639568D01*
X2353462Y2639364D01*
X2353462Y2637129D01*
X2352700Y2636875D01*
X2349195Y2639212D01*
X2348636Y2639212D01*
X2348636Y2637840D01*
X2350262Y2636215D01*
X2350973Y2636215D01*
X2350973Y2634945D01*
X2348331Y2632608D01*
X2344775Y2630779D01*
X2336444Y2627579D01*
X2338120Y2627579D01*
X2344775Y2628595D01*
X2348433Y2629966D01*
X2352141Y2632049D01*
X2356510Y2636418D01*
X2358948Y2640177D01*
X2360879Y2644038D01*
X2363266Y2650998D01*
X2364282Y2657348D01*
X2364689Y2667609D01*
X2363927Y2673604D01*
X2360980Y2682849D01*
X2358847Y2686304D01*
X2355392Y2690418D01*
X2350770Y2694076D01*
X2344775Y2697022D01*
X2340813Y2697988D01*
X2333548Y2698343D01*
X2331974Y2699410D01*
G37*
G36*
X2152751Y2699359D02*
G01*
X2152091Y2698546D01*
X2151989Y2695194D01*
X2153005Y2693873D01*
X2154021Y2695194D01*
X2154021Y2697683D01*
X2153361Y2699359D01*
G37*
G36*
X2140508Y2697734D02*
G01*
X2138375Y2696413D01*
X2137968Y2694127D01*
X2138172Y2692603D01*
X2138934Y2692349D01*
X2141016Y2694127D01*
X2142388Y2696768D01*
X2142032Y2697734D01*
G37*
G36*
X2362403Y2697734D02*
G01*
X2361946Y2697276D01*
X2361946Y2695244D01*
X2362555Y2694228D01*
X2363266Y2696108D01*
X2362860Y2697734D01*
G37*
G36*
X2033066Y2696718D02*
G01*
X2032711Y2696108D01*
X2033524Y2695448D01*
X2036419Y2694686D01*
X2037384Y2695041D01*
X2037384Y2695702D01*
X2035403Y2696718D01*
G37*
G36*
X2179777Y2696718D02*
G01*
X2178710Y2695549D01*
X2176881Y2691587D01*
X2176475Y2693568D01*
X2175357Y2691892D01*
X2172309Y2684678D01*
X2170023Y2677871D01*
X2170023Y2676753D01*
X2171700Y2676753D01*
X2173376Y2678430D01*
X2179269Y2692552D01*
X2180285Y2695956D01*
G37*
G36*
X2203043Y2695397D02*
G01*
X2201824Y2695346D01*
X2199995Y2694381D01*
X2199995Y2693314D01*
X2202180Y2693670D01*
X2204720Y2694686D01*
X2204262Y2695397D01*
G37*
G36*
X2293670Y2695397D02*
G01*
X2292451Y2695346D01*
X2290622Y2694381D01*
X2290622Y2693314D01*
X2292858Y2693670D01*
X2295347Y2694686D01*
X2294940Y2695397D01*
G37*
G36*
X2314600Y2695397D02*
G01*
X2313940Y2693670D01*
X2314397Y2689453D01*
X2313940Y2687726D01*
X2311806Y2686405D01*
X2313940Y2686405D01*
X2315718Y2687929D01*
X2316022Y2692958D01*
X2315260Y2695397D01*
G37*
G36*
X2583027Y2695397D02*
G01*
X2582062Y2694736D01*
X2583942Y2694076D01*
X2585567Y2694482D01*
X2585313Y2695244D01*
G37*
G36*
X2355951Y2694736D02*
G01*
X2356967Y2692704D01*
X2360168Y2689402D01*
X2360930Y2689402D01*
X2361590Y2690622D01*
X2360320Y2693365D01*
X2357628Y2694736D01*
G37*
G36*
X2366264Y2694736D02*
G01*
X2366264Y2690723D01*
X2366924Y2690723D01*
X2367127Y2692552D01*
X2366873Y2694736D01*
G37*
G36*
X2304186Y2694381D02*
G01*
X2301798Y2694330D01*
X2299360Y2693568D01*
X2298852Y2693060D01*
X2305812Y2693060D01*
X2307285Y2693466D01*
X2306574Y2694381D01*
G37*
G36*
X2334412Y2694228D02*
G01*
X2333955Y2692552D01*
X2333955Y2687269D01*
X2334666Y2684729D01*
X2335479Y2684983D01*
X2335377Y2691892D01*
G37*
G36*
X2170480Y2693720D02*
G01*
X2170023Y2693263D01*
X2170023Y2691536D01*
X2168956Y2690063D01*
X2167991Y2690063D01*
X2167991Y2688437D01*
X2168652Y2688031D01*
X2170023Y2688437D01*
X2170988Y2690368D01*
X2170988Y2692908D01*
G37*
G36*
X2144064Y2692704D02*
G01*
X2143404Y2691892D01*
X2141321Y2687574D01*
X2141321Y2686354D01*
X2141982Y2686761D01*
X2144674Y2690825D01*
X2144674Y2692704D01*
G37*
G36*
X2149500Y2692704D02*
G01*
X2148027Y2691688D01*
X2148027Y2690723D01*
X2149195Y2690723D01*
X2151329Y2692044D01*
X2151329Y2692704D01*
G37*
G36*
X2239822Y2692704D02*
G01*
X2237536Y2691892D01*
X2237232Y2690977D01*
X2241499Y2691333D01*
X2243328Y2692044D01*
X2242921Y2692704D01*
G37*
G36*
X2252319Y2692704D02*
G01*
X2252319Y2692146D01*
X2253488Y2691180D01*
X2258771Y2688234D01*
X2262327Y2684627D01*
X2263902Y2681274D01*
X2264664Y2677718D01*
X2264664Y2669844D01*
X2264054Y2669438D01*
X2261260Y2671775D01*
X2257856Y2672791D01*
X2255672Y2672791D01*
X2254656Y2672384D01*
X2254656Y2671165D01*
X2256028Y2670403D01*
X2260142Y2670606D01*
X2259533Y2665120D01*
X2259990Y2665120D01*
X2263089Y2667457D01*
X2263343Y2667203D01*
X2260193Y2658008D01*
X2258314Y2653385D01*
X2256586Y2651099D01*
X2255316Y2651455D01*
X2255723Y2649626D01*
X2253996Y2646273D01*
X2251964Y2643276D01*
X2251557Y2641193D01*
X2252878Y2641193D01*
X2254605Y2642565D01*
X2258060Y2647696D01*
X2263597Y2658973D01*
X2266188Y2666644D01*
X2267407Y2671978D01*
X2268423Y2673959D01*
X2269388Y2674670D01*
X2268982Y2679954D01*
X2267712Y2684322D01*
X2266391Y2687269D01*
X2264257Y2689758D01*
X2261920Y2689758D01*
X2253538Y2692704D01*
G37*
G36*
X2368550Y2692704D02*
G01*
X2368956Y2689352D01*
X2370277Y2685897D01*
X2371344Y2684576D01*
X2370937Y2689199D01*
X2369210Y2692704D01*
G37*
G36*
X2189022Y2692095D02*
G01*
X2187651Y2689910D01*
X2187651Y2689098D01*
X2188260Y2689098D01*
X2190038Y2691130D01*
X2189784Y2691841D01*
G37*
G36*
X2272995Y2690723D02*
G01*
X2270912Y2687929D01*
X2269947Y2685694D01*
X2270201Y2684932D01*
X2272334Y2687218D01*
X2273655Y2689707D01*
X2273655Y2690723D01*
G37*
G36*
X2306726Y2690063D02*
G01*
X2305913Y2689098D01*
X2306320Y2687726D01*
X2307894Y2687370D01*
X2309114Y2687574D01*
X2309368Y2688793D01*
X2308199Y2690063D01*
G37*
G36*
X2290470Y2689758D02*
G01*
X2287676Y2688336D01*
X2286050Y2686202D01*
X2284984Y2683662D01*
X2284984Y2681173D01*
X2285390Y2680106D01*
X2286000Y2680106D01*
X2287981Y2684576D01*
X2289454Y2687370D01*
X2294788Y2688437D01*
X2295702Y2688996D01*
X2295245Y2689758D01*
G37*
G36*
X2162403Y2689402D02*
G01*
X2161082Y2687574D01*
X2158593Y2682748D01*
X2156764Y2681427D01*
X2156358Y2679344D01*
X2153666Y2675788D01*
X2153158Y2675788D01*
X2150668Y2672537D01*
X2149957Y2668981D01*
X2150567Y2666644D01*
X2151430Y2669286D01*
X2154123Y2673959D01*
X2157120Y2678277D01*
X2160676Y2682494D01*
X2162251Y2685592D01*
X2163267Y2688996D01*
X2162911Y2689402D01*
G37*
G36*
X2362657Y2689402D02*
G01*
X2361946Y2687320D01*
X2361946Y2685084D01*
X2362809Y2685084D01*
X2364181Y2686558D01*
X2364638Y2688031D01*
X2363927Y2689402D01*
G37*
G36*
X2133447Y2688742D02*
G01*
X2132634Y2687777D01*
X2132838Y2686659D01*
X2133600Y2686405D01*
X2135428Y2687980D01*
X2134971Y2688742D01*
G37*
G36*
X2420416Y2688742D02*
G01*
X2419451Y2688132D01*
X2421331Y2687421D01*
X2422956Y2687828D01*
X2422702Y2688590D01*
G37*
G36*
X2125522Y2688386D02*
G01*
X2124760Y2687929D01*
X2123694Y2685796D01*
X2123694Y2684272D01*
X2124252Y2683357D01*
X2125675Y2685135D01*
X2126081Y2687370D01*
G37*
G36*
X2166772Y2687421D02*
G01*
X2166061Y2686558D01*
X2165350Y2683916D01*
X2165350Y2682748D01*
X2165908Y2682748D01*
X2167991Y2684678D01*
X2167991Y2686304D01*
G37*
G36*
X2108504Y2686100D02*
G01*
X2107539Y2685440D01*
X2109419Y2684729D01*
X2111044Y2685186D01*
X2110790Y2685897D01*
G37*
G36*
X2240483Y2686100D02*
G01*
X2239518Y2685440D01*
X2241346Y2684729D01*
X2243023Y2685186D01*
X2242769Y2685897D01*
G37*
G36*
X2305354Y2686100D02*
G01*
X2305050Y2685592D01*
X2305558Y2684221D01*
X2306624Y2683357D01*
X2307285Y2683814D01*
X2307285Y2685288D01*
X2306472Y2686100D01*
G37*
G36*
X2368092Y2685999D02*
G01*
X2365654Y2684729D01*
X2364943Y2683459D01*
X2364943Y2681732D01*
X2365908Y2679852D01*
X2367026Y2679446D01*
X2368296Y2679446D01*
X2368296Y2680055D01*
X2366264Y2681528D01*
X2366264Y2682646D01*
X2368346Y2685389D01*
G37*
G36*
X2246325Y2685796D02*
G01*
X2244648Y2684119D01*
X2244648Y2682443D01*
X2245563Y2682443D01*
X2247341Y2684526D01*
X2247138Y2685542D01*
G37*
G36*
X2254656Y2685592D02*
G01*
X2254656Y2685084D01*
X2257044Y2680258D01*
X2258822Y2677464D01*
X2259330Y2677464D01*
X2259330Y2678988D01*
X2257653Y2682240D01*
G37*
G36*
X2290318Y2685440D02*
G01*
X2288997Y2683256D01*
X2288946Y2682443D01*
X2289556Y2682443D01*
X2291334Y2684526D01*
X2291080Y2685186D01*
G37*
G36*
X2370988Y2683408D02*
G01*
X2369921Y2682341D01*
X2370124Y2680258D01*
X2371344Y2680055D01*
X2372614Y2681224D01*
X2372614Y2682646D01*
X2371801Y2683408D01*
G37*
G36*
X2504897Y2681427D02*
G01*
X2504490Y2680360D01*
X2505710Y2679446D01*
X2507742Y2679446D01*
X2508707Y2680055D01*
X2506776Y2681427D01*
G37*
G36*
X2164080Y2680766D02*
G01*
X2163267Y2679801D01*
X2163521Y2678633D01*
X2164283Y2678430D01*
X2166112Y2680004D01*
X2165654Y2680766D01*
G37*
G36*
X2292146Y2680766D02*
G01*
X2290978Y2680055D01*
X2289962Y2678074D01*
X2290318Y2677464D01*
X2291334Y2677464D01*
X2293315Y2679395D01*
X2293315Y2680766D01*
G37*
G36*
X2375712Y2680766D02*
G01*
X2374544Y2679496D01*
X2374798Y2678277D01*
X2376576Y2677261D01*
X2377287Y2678023D01*
X2376220Y2680766D01*
G37*
G36*
X2186736Y2679446D02*
G01*
X2185771Y2677922D01*
X2183993Y2673096D01*
X2182622Y2666644D01*
X2182215Y2656281D01*
X2184095Y2654554D01*
X2183384Y2651861D01*
X2183942Y2651861D01*
X2185263Y2654554D01*
X2184654Y2656230D01*
X2183638Y2657652D01*
X2183638Y2658516D01*
X2185822Y2660497D01*
X2184552Y2661462D01*
X2183485Y2661513D01*
X2185416Y2662377D01*
X2185670Y2666339D01*
X2187651Y2676855D01*
X2187651Y2678379D01*
X2187244Y2679446D01*
G37*
G36*
X2253386Y2678125D02*
G01*
X2252522Y2677058D01*
X2253132Y2675331D01*
X2254199Y2674670D01*
X2255316Y2675077D01*
X2255316Y2676804D01*
X2254605Y2678125D01*
G37*
G36*
X2369413Y2678125D02*
G01*
X2367889Y2677058D01*
X2368092Y2675585D01*
X2370124Y2675432D01*
X2371394Y2676347D01*
X2370937Y2678125D01*
G37*
G36*
X2584856Y2678125D02*
G01*
X2584246Y2676499D01*
X2580894Y2675483D01*
X2565400Y2673502D01*
X2554071Y2671775D01*
X2551125Y2670810D01*
X2549042Y2670810D01*
X2546756Y2672435D01*
X2546299Y2672435D01*
X2546400Y2670302D01*
X2541066Y2669743D01*
X2532735Y2668473D01*
X2529332Y2666796D01*
X2528366Y2666796D01*
X2527655Y2667558D01*
X2526334Y2667101D01*
X2525572Y2665425D01*
X2525572Y2663799D01*
X2526588Y2661869D01*
X2527554Y2657652D01*
X2528570Y2646019D01*
X2529890Y2636723D01*
X2535936Y2580233D01*
X2536088Y2570886D01*
X2537510Y2571140D01*
X2537968Y2563926D01*
X2539644Y2545638D01*
X2539746Y2535326D01*
X2538222Y2532430D01*
X2538476Y2532176D01*
X2540254Y2532837D01*
X2541524Y2532176D01*
X2542235Y2528824D01*
X2542235Y2527350D01*
X2543505Y2524556D01*
X2545384Y2524150D01*
X2547721Y2523337D01*
X2547518Y2521102D01*
X2548585Y2521559D01*
X2555036Y2522829D01*
X2562352Y2523540D01*
X2566873Y2523540D01*
X2568549Y2522778D01*
X2568549Y2521559D01*
X2569464Y2521559D01*
X2570327Y2522575D01*
X2571546Y2523236D01*
X2582824Y2523896D01*
X2585669Y2524709D01*
X2585923Y2525471D01*
X2584754Y2525928D01*
X2575052Y2526588D01*
X2545232Y2526233D01*
X2537561Y2595168D01*
X2531211Y2656687D01*
X2530805Y2663748D01*
X2540914Y2665780D01*
X2576880Y2671927D01*
X2581046Y2672791D01*
X2584399Y2673908D01*
X2585872Y2674874D01*
X2585872Y2677058D01*
X2585466Y2678125D01*
G37*
G36*
X2334412Y2677464D02*
G01*
X2333955Y2677007D01*
X2333955Y2675432D01*
X2334971Y2673400D01*
X2336444Y2673604D01*
X2336647Y2675382D01*
X2335631Y2677464D01*
G37*
G36*
X2313076Y2677210D02*
G01*
X2312619Y2675026D01*
X2312619Y2672486D01*
X2313330Y2670657D01*
X2314143Y2670149D01*
X2317648Y2670149D01*
X2317648Y2670556D01*
X2314600Y2673807D01*
G37*
G36*
X2149449Y2676804D02*
G01*
X2146604Y2674721D01*
X2140102Y2668320D01*
X2138934Y2666441D01*
X2139340Y2666034D01*
X2141829Y2667914D01*
X2147824Y2673959D01*
X2149754Y2676448D01*
G37*
G36*
X2241143Y2676753D02*
G01*
X2239111Y2675534D01*
X2235352Y2670606D01*
X2233980Y2667609D01*
X2233980Y2665882D01*
X2234946Y2665120D01*
X2239467Y2666492D01*
X2243531Y2667050D01*
X2245309Y2666746D01*
X2245309Y2666136D01*
X2243785Y2665120D01*
X2239162Y2664104D01*
X2236368Y2663139D01*
X2235962Y2662072D01*
X2236368Y2660802D01*
X2237689Y2660091D01*
X2240127Y2660904D01*
X2248306Y2666238D01*
X2251151Y2666644D01*
X2251151Y2670454D01*
X2250033Y2671521D01*
X2248662Y2671114D01*
X2248255Y2669743D01*
X2246020Y2668828D01*
X2239822Y2668117D01*
X2236114Y2668524D01*
X2235250Y2669082D01*
X2236622Y2669794D01*
X2245461Y2670403D01*
X2247290Y2671114D01*
X2247290Y2672029D01*
X2246223Y2672943D01*
X2241143Y2672943D01*
X2241346Y2676753D01*
G37*
G36*
X2512872Y2676093D02*
G01*
X2512466Y2675026D01*
X2513685Y2674112D01*
X2515717Y2674112D01*
X2516733Y2674721D01*
X2514752Y2676093D01*
G37*
G36*
X2129383Y2675483D02*
G01*
X2127656Y2673756D01*
X2127910Y2672943D01*
X2129332Y2672740D01*
X2131060Y2674467D01*
X2130806Y2675280D01*
G37*
G36*
X2304643Y2675432D02*
G01*
X2304643Y2673096D01*
X2305304Y2671826D01*
X2308148Y2670556D01*
X2310587Y2667812D01*
X2312365Y2664968D01*
X2314143Y2663088D01*
X2316022Y2662123D01*
X2316378Y2662428D01*
X2313635Y2665577D01*
X2313635Y2668371D01*
X2311958Y2669489D01*
X2310892Y2671521D01*
X2309926Y2674772D01*
X2309012Y2674772D01*
X2307590Y2672791D01*
X2307031Y2672791D01*
X2305151Y2675432D01*
G37*
G36*
X2374036Y2675432D02*
G01*
X2373020Y2674264D01*
X2371344Y2670962D01*
X2369261Y2665018D01*
X2366314Y2653030D01*
X2363317Y2645714D01*
X2363266Y2644546D01*
X2363978Y2644140D01*
X2366568Y2646832D01*
X2368600Y2652064D01*
X2369972Y2658770D01*
X2369972Y2661666D01*
X2370937Y2665628D01*
X2375306Y2674518D01*
X2374950Y2675432D01*
G37*
G36*
X2162098Y2672435D02*
G01*
X2161336Y2669946D01*
X2158339Y2666390D01*
X2158339Y2665120D01*
X2159508Y2665730D01*
X2161641Y2667965D01*
X2163013Y2670962D01*
X2163013Y2672435D01*
G37*
G36*
X2269337Y2671572D02*
G01*
X2268575Y2669641D01*
X2266340Y2661869D01*
X2264054Y2655976D01*
X2259939Y2647797D01*
X2256332Y2642057D01*
X2250643Y2635148D01*
X2250643Y2634234D01*
X2251405Y2634234D01*
X2256739Y2639364D01*
X2260904Y2644698D01*
X2262276Y2648204D01*
X2264054Y2648204D01*
X2263495Y2650998D01*
X2265832Y2650490D01*
X2265578Y2652674D01*
X2267712Y2658313D01*
X2269286Y2664968D01*
X2270048Y2670860D01*
G37*
G36*
X2166010Y2671470D02*
G01*
X2166010Y2670606D01*
X2167940Y2669438D01*
X2169312Y2669438D01*
X2169312Y2670403D01*
X2167839Y2671470D01*
G37*
G36*
X2174443Y2671114D02*
G01*
X2173986Y2670657D01*
X2173986Y2668625D01*
X2174646Y2667660D01*
X2175357Y2669489D01*
X2174951Y2671114D01*
G37*
G36*
X2317699Y2668778D02*
G01*
X2316581Y2667711D01*
X2316784Y2665628D01*
X2318004Y2665425D01*
X2319274Y2666593D01*
X2319274Y2668016D01*
X2318512Y2668778D01*
G37*
G36*
X2164689Y2668117D02*
G01*
X2163927Y2665323D01*
X2162708Y2662885D01*
X2160930Y2661615D01*
X2161692Y2660142D01*
X2162251Y2660142D01*
X2164080Y2661615D01*
X2165654Y2664968D01*
X2165654Y2667101D01*
X2165248Y2668117D01*
G37*
G36*
X2129739Y2667152D02*
G01*
X2128824Y2664968D01*
X2128875Y2660345D01*
X2129434Y2658973D01*
X2130044Y2660650D01*
X2130450Y2667152D01*
G37*
G36*
X2135733Y2666187D02*
G01*
X2134362Y2664409D01*
X2134768Y2663494D01*
X2135936Y2663494D01*
X2136749Y2664460D01*
X2136495Y2665933D01*
G37*
G36*
X2308453Y2663494D02*
G01*
X2307488Y2662834D01*
X2309317Y2662123D01*
X2310993Y2662580D01*
X2310739Y2663291D01*
G37*
G36*
X2507081Y2658465D02*
G01*
X2505659Y2657906D01*
X2504592Y2655163D01*
X2504592Y2650998D01*
X2505456Y2649067D01*
X2506624Y2650286D01*
X2506167Y2654706D01*
X2507081Y2655417D01*
X2509062Y2655671D01*
X2509316Y2656890D01*
X2507792Y2658465D01*
G37*
G36*
X2164080Y2657652D02*
G01*
X2161743Y2657297D01*
X2160016Y2656179D01*
X2159609Y2654554D01*
X2159863Y2653030D01*
X2161692Y2652776D01*
X2163826Y2654147D01*
X2167077Y2657398D01*
G37*
G36*
X2221738Y2656840D02*
G01*
X2220468Y2656789D01*
X2218283Y2655874D01*
X2211222Y2654808D01*
X2209952Y2654147D01*
X2210206Y2653334D01*
X2214422Y2653131D01*
X2219807Y2654198D01*
X2222804Y2655671D01*
X2223058Y2656840D01*
G37*
G36*
X2292604Y2656484D02*
G01*
X2293569Y2654198D01*
X2296922Y2649270D01*
X2301697Y2643378D01*
X2304796Y2640126D01*
X2307742Y2638196D01*
X2309317Y2638196D01*
X2309317Y2639466D01*
X2308555Y2641549D01*
X2307691Y2641549D01*
X2306624Y2639872D01*
X2305964Y2639872D01*
X2305964Y2642057D01*
X2304948Y2643530D01*
X2303678Y2643530D01*
X2302052Y2644241D01*
X2301290Y2646375D01*
X2293315Y2656484D01*
G37*
G36*
X2236978Y2653436D02*
G01*
X2236012Y2652522D01*
X2235504Y2648712D01*
X2235504Y2638399D01*
X2236012Y2637129D01*
X2236825Y2637942D01*
X2236927Y2647492D01*
X2237384Y2649677D01*
X2238705Y2651810D01*
X2238298Y2653080D01*
G37*
G36*
X2145182Y2652928D02*
G01*
X2144115Y2651658D01*
X2143353Y2650236D01*
X2143760Y2649169D01*
X2144318Y2649169D01*
X2145385Y2651201D01*
G37*
G36*
X2153462Y2652826D02*
G01*
X2153005Y2652420D01*
X2153005Y2650591D01*
X2153412Y2649524D01*
X2154275Y2649524D01*
X2155088Y2650540D01*
X2154021Y2652826D01*
G37*
G36*
X2167737Y2651556D02*
G01*
X2166366Y2649829D01*
X2166721Y2648864D01*
X2167940Y2648864D01*
X2168702Y2649829D01*
X2168499Y2651302D01*
G37*
G36*
X2136089Y2651506D02*
G01*
X2135276Y2650540D01*
X2135530Y2649423D01*
X2136292Y2649169D01*
X2138121Y2650744D01*
X2137613Y2651506D01*
G37*
G36*
X2525014Y2651201D02*
G01*
X2524556Y2650744D01*
X2524556Y2648712D01*
X2525217Y2647696D01*
X2525877Y2649575D01*
X2525522Y2651201D01*
G37*
G36*
X2213152Y2651099D02*
G01*
X2211832Y2650591D01*
X2210562Y2649169D01*
X2211628Y2646832D01*
X2212644Y2646832D01*
X2213660Y2649270D01*
X2213660Y2650794D01*
G37*
G36*
X2314346Y2650185D02*
G01*
X2313279Y2649118D01*
X2313279Y2647696D01*
X2314498Y2645410D01*
X2315311Y2645156D01*
X2315311Y2648712D01*
X2314905Y2650185D01*
G37*
G36*
X2339441Y2649829D02*
G01*
X2334514Y2647696D01*
X2334260Y2646934D01*
X2335834Y2645105D01*
X2337765Y2645562D01*
X2340965Y2648966D01*
X2340965Y2649829D01*
G37*
G36*
X2510028Y2649524D02*
G01*
X2507030Y2647594D01*
X2505557Y2645765D01*
X2505557Y2644190D01*
X2506573Y2643784D01*
X2507640Y2644698D01*
X2509469Y2642514D01*
X2509875Y2642514D01*
X2509215Y2644241D01*
X2509215Y2646527D01*
X2511247Y2648762D01*
X2511247Y2649524D01*
G37*
G36*
X2330704Y2648864D02*
G01*
X2329891Y2647899D01*
X2330145Y2646730D01*
X2330907Y2646476D01*
X2332736Y2648102D01*
X2332228Y2648864D01*
G37*
G36*
X2148687Y2647543D02*
G01*
X2147062Y2645359D01*
X2145080Y2641396D01*
X2144369Y2638755D01*
X2144928Y2638196D01*
X2146604Y2640177D01*
X2149906Y2646680D01*
X2149602Y2647543D01*
G37*
G36*
X2166366Y2647543D02*
G01*
X2165350Y2645562D01*
X2165350Y2643835D01*
X2166315Y2643479D01*
X2167991Y2643886D01*
X2167991Y2645156D01*
X2166874Y2647543D01*
G37*
G36*
X2195372Y2647188D02*
G01*
X2194306Y2645714D01*
X2194306Y2643987D01*
X2195525Y2642870D01*
X2197760Y2642870D01*
X2200656Y2644241D01*
X2200351Y2644800D01*
X2197506Y2645156D01*
X2195779Y2647188D01*
G37*
G36*
X2159863Y2646375D02*
G01*
X2158034Y2643987D01*
X2156663Y2641041D01*
X2156663Y2639872D01*
X2157679Y2639872D01*
X2158949Y2641142D01*
X2160066Y2644495D01*
G37*
G36*
X2153818Y2646172D02*
G01*
X2151989Y2645156D01*
X2151989Y2644089D01*
X2154224Y2644444D01*
X2156714Y2645511D01*
X2156307Y2646172D01*
G37*
G36*
X2225751Y2644851D02*
G01*
X2225294Y2644394D01*
X2225344Y2643022D01*
X2226665Y2640838D01*
X2227326Y2641244D01*
X2227326Y2643581D01*
X2226614Y2644851D01*
G37*
G36*
X2222093Y2644546D02*
G01*
X2220874Y2643225D01*
X2220569Y2639771D01*
X2221484Y2640076D01*
X2222957Y2642717D01*
X2223008Y2644546D01*
G37*
G36*
X2316988Y2643530D02*
G01*
X2316632Y2642920D01*
X2318105Y2642108D01*
X2322626Y2641803D01*
X2322220Y2642819D01*
X2320188Y2643530D01*
G37*
G36*
X2526233Y2642870D02*
G01*
X2526233Y2637739D01*
X2526842Y2638399D01*
X2526893Y2642870D01*
G37*
G36*
X2167788Y2642209D02*
G01*
X2167331Y2641752D01*
X2167331Y2639364D01*
X2168245Y2638094D01*
X2169312Y2638501D01*
X2169312Y2640025D01*
X2167991Y2642209D01*
G37*
G36*
X2214930Y2642209D02*
G01*
X2213813Y2642158D01*
X2212949Y2641803D01*
X2211679Y2639263D01*
X2211679Y2638552D01*
X2212238Y2638552D01*
X2215438Y2641396D01*
G37*
G36*
X2506370Y2641854D02*
G01*
X2505913Y2641447D01*
X2505913Y2639364D01*
X2506522Y2638399D01*
X2507234Y2640279D01*
X2506827Y2641854D01*
G37*
G36*
X2151735Y2641549D02*
G01*
X2150110Y2639364D01*
X2148738Y2637028D01*
X2147925Y2634538D01*
X2148332Y2633573D01*
X2149348Y2633980D01*
X2151024Y2636774D01*
X2152345Y2640634D01*
X2152345Y2641549D01*
G37*
G36*
X2538628Y2640888D02*
G01*
X2537866Y2639923D01*
X2538069Y2638806D01*
X2539238Y2638044D01*
X2540406Y2638806D01*
X2540609Y2639923D01*
X2539796Y2640888D01*
G37*
G36*
X2370988Y2640584D02*
G01*
X2368702Y2638552D01*
X2367432Y2638552D01*
X2362809Y2639872D01*
X2360726Y2639212D01*
X2358694Y2637028D01*
X2354275Y2631084D01*
X2354275Y2630220D01*
X2355291Y2630220D01*
X2358745Y2633573D01*
X2362098Y2633573D01*
X2368397Y2632913D01*
X2368651Y2633167D01*
X2361387Y2635554D01*
X2360117Y2636520D01*
X2360879Y2637282D01*
X2368804Y2636520D01*
X2371801Y2638044D01*
X2372004Y2639771D01*
G37*
G36*
X2218385Y2639872D02*
G01*
X2217928Y2637840D01*
X2218334Y2634945D01*
X2219756Y2633167D01*
X2222398Y2633522D01*
X2224786Y2635402D01*
X2225446Y2636520D01*
X2225040Y2636926D01*
X2223617Y2636469D01*
X2221331Y2634488D01*
X2220366Y2634843D01*
X2218893Y2639872D01*
G37*
G36*
X2200097Y2639568D02*
G01*
X2199284Y2638602D01*
X2199487Y2637434D01*
X2200656Y2636723D01*
X2201824Y2637434D01*
X2202027Y2638602D01*
X2201265Y2639568D01*
G37*
G36*
X2320290Y2639568D02*
G01*
X2319528Y2637942D01*
X2319985Y2636215D01*
X2320848Y2636215D01*
X2321966Y2637434D01*
X2321966Y2638501D01*
X2321560Y2639568D01*
G37*
G36*
X2344470Y2639568D02*
G01*
X2343454Y2638907D01*
X2345334Y2638196D01*
X2346960Y2638602D01*
X2346756Y2639364D01*
G37*
G36*
X2161082Y2638196D02*
G01*
X2159965Y2636926D01*
X2160168Y2635707D01*
X2162505Y2635707D01*
X2162708Y2636926D01*
X2161540Y2638196D01*
G37*
G36*
X2314143Y2638145D02*
G01*
X2309317Y2636875D01*
X2309317Y2635910D01*
X2312314Y2633827D01*
X2317445Y2631287D01*
X2321661Y2629865D01*
X2322271Y2630271D01*
X2321255Y2632202D01*
X2321661Y2633827D01*
X2318410Y2633472D01*
X2316124Y2635758D01*
G37*
G36*
X2509012Y2637891D02*
G01*
X2508605Y2636367D01*
X2508554Y2632710D01*
X2509266Y2630220D01*
X2509926Y2630220D01*
X2510586Y2631948D01*
X2510536Y2634742D01*
X2509723Y2637688D01*
G37*
G36*
X2273096Y2636570D02*
G01*
X2272639Y2636113D01*
X2272639Y2634081D01*
X2273249Y2633065D01*
X2273960Y2634945D01*
X2273554Y2636570D01*
G37*
G36*
X2582062Y2636469D02*
G01*
X2556713Y2632710D01*
X2540660Y2629916D01*
X2537104Y2628849D01*
X2538374Y2627934D01*
X2540457Y2627934D01*
X2547061Y2628900D01*
X2563977Y2630627D01*
X2565704Y2631287D01*
X2580386Y2632913D01*
X2584043Y2633624D01*
X2585923Y2634589D01*
X2585720Y2636367D01*
G37*
G36*
X2169109Y2635199D02*
G01*
X2168652Y2634792D01*
X2168652Y2631897D01*
X2169617Y2629560D01*
X2170684Y2629560D01*
X2170684Y2632100D01*
X2169617Y2635199D01*
G37*
G36*
X2214321Y2632608D02*
G01*
X2212644Y2630932D01*
X2212644Y2629255D01*
X2213610Y2629255D01*
X2215337Y2631338D01*
X2215134Y2632354D01*
G37*
G36*
X2260041Y2631592D02*
G01*
X2259279Y2630627D01*
X2259482Y2629458D01*
X2260244Y2629204D01*
X2262073Y2630779D01*
X2261616Y2631592D01*
G37*
G36*
X2218486Y2631287D02*
G01*
X2217978Y2630779D01*
X2217978Y2627223D01*
X2218944Y2624937D01*
X2219858Y2624937D01*
X2220671Y2625699D01*
X2220671Y2627020D01*
X2219909Y2629509D01*
G37*
G36*
X2084374Y2630271D02*
G01*
X2083562Y2628747D01*
X2083307Y2620111D01*
X2083968Y2618435D01*
X2084781Y2620416D01*
X2085136Y2629814D01*
G37*
G36*
X2162454Y2630271D02*
G01*
X2161997Y2629814D01*
X2161997Y2626868D01*
X2163013Y2624429D01*
X2164791Y2623007D01*
X2164334Y2621838D01*
X2160524Y2622194D01*
X2158695Y2623007D01*
X2158695Y2624175D01*
X2157577Y2624582D01*
X2154986Y2623820D01*
X2154224Y2622905D01*
X2154986Y2621280D01*
X2156815Y2620365D01*
X2161844Y2619197D01*
X2164283Y2618232D01*
X2164486Y2616504D01*
X2166823Y2615895D01*
X2170379Y2616149D01*
X2171395Y2617216D01*
X2170684Y2619451D01*
X2164334Y2625648D01*
X2163216Y2627731D01*
G37*
G36*
X2293620Y2628900D02*
G01*
X2292858Y2627274D01*
X2293315Y2625598D01*
X2294178Y2625598D01*
X2295296Y2626817D01*
X2295296Y2627833D01*
X2294890Y2628900D01*
G37*
G36*
X2509672Y2627579D02*
G01*
X2509266Y2626055D01*
X2510231Y2621483D01*
X2510586Y2621178D01*
X2511501Y2623413D01*
X2511958Y2625902D01*
X2510891Y2627579D01*
G37*
G36*
X2249373Y2624937D02*
G01*
X2248814Y2624683D01*
X2247646Y2623312D01*
X2248306Y2621534D01*
X2249830Y2621788D01*
X2250033Y2623312D01*
X2249627Y2624937D01*
G37*
G36*
X2101392Y2623566D02*
G01*
X2096871Y2622600D01*
X2091182Y2619756D01*
X2090775Y2615438D01*
X2090724Y2589174D01*
X2091334Y2578658D01*
X2092147Y2577642D01*
X2092401Y2561285D01*
X2092706Y2559100D01*
X2093620Y2559100D01*
X2094026Y2558034D01*
X2094026Y2556408D01*
X2093315Y2555087D01*
X2090166Y2555544D01*
X2095347Y2550210D01*
X2095347Y2549448D01*
X2093569Y2549448D01*
X2087016Y2547315D01*
X2087016Y2546908D01*
X2088540Y2546451D01*
X2094890Y2546045D01*
X2094077Y2543556D01*
X2093366Y2535682D01*
X2093366Y2520696D01*
X2094026Y2516733D01*
X2095042Y2514396D01*
X2097278Y2512872D01*
X2100529Y2511653D01*
X2103678Y2511145D01*
X2106726Y2512669D01*
X2109774Y2511907D01*
X2109368Y2513533D01*
X2110892Y2514549D01*
X2116023Y2515209D01*
X2116023Y2532329D01*
X2114651Y2579522D01*
X2113686Y2604160D01*
X2112619Y2618943D01*
X2112060Y2619298D01*
X2110841Y2617470D01*
X2110638Y2609342D01*
X2112010Y2578201D01*
X2113991Y2524709D01*
X2114448Y2517648D01*
X2112873Y2516632D01*
X2097125Y2514396D01*
X2096668Y2518257D01*
X2096262Y2533548D01*
X2097125Y2541016D01*
X2096312Y2554935D01*
X2095703Y2560929D01*
X2094687Y2577541D01*
X2094026Y2592527D01*
X2093569Y2618943D01*
X2105355Y2618943D01*
X2106320Y2607767D01*
X2107031Y2593848D01*
X2108047Y2549956D01*
X2108657Y2541066D01*
X2109520Y2540050D01*
X2109876Y2522524D01*
X2110638Y2521762D01*
X2111197Y2523032D01*
X2111197Y2540965D01*
X2109978Y2543302D01*
X2109368Y2554274D01*
X2109317Y2593187D01*
X2108708Y2612796D01*
X2107946Y2618079D01*
X2107031Y2620264D01*
X2103628Y2621737D01*
X2103069Y2623159D01*
X2101951Y2623566D01*
G37*
G36*
X2349144Y2623566D02*
G01*
X2345944Y2620111D01*
X2345944Y2619552D01*
X2347112Y2620213D01*
X2349957Y2622651D01*
X2349957Y2623566D01*
G37*
G36*
X2121103Y2622245D02*
G01*
X2120696Y2621838D01*
X2120696Y2620365D01*
X2121662Y2619552D01*
X2122779Y2619756D01*
X2123033Y2620467D01*
X2121611Y2622245D01*
G37*
G36*
X2250389Y2619654D02*
G01*
X2248966Y2617825D01*
X2248966Y2614422D01*
X2251303Y2609850D01*
X2250948Y2609342D01*
X2249322Y2610053D01*
X2248814Y2609596D01*
X2250440Y2608275D01*
X2253538Y2608681D01*
X2253234Y2607005D01*
X2254808Y2606598D01*
X2260142Y2607564D01*
X2261971Y2608275D01*
X2261971Y2608986D01*
X2260142Y2608986D01*
X2259177Y2609596D01*
X2260346Y2610866D01*
X2264460Y2612694D01*
X2268931Y2613050D01*
X2272334Y2610967D01*
X2273960Y2610967D01*
X2273960Y2611323D01*
X2272639Y2613863D01*
X2270150Y2615438D01*
X2265121Y2615387D01*
X2261819Y2614066D01*
X2256282Y2610307D01*
X2255570Y2610307D01*
X2253284Y2611374D01*
X2250998Y2614371D01*
X2250236Y2616860D01*
X2250897Y2618841D01*
G37*
G36*
X2511399Y2619603D02*
G01*
X2510282Y2618943D01*
X2509824Y2616911D01*
X2510332Y2613456D01*
X2511196Y2616200D01*
X2511958Y2617622D01*
X2513736Y2617419D01*
X2513939Y2618536D01*
X2512872Y2619603D01*
G37*
G36*
X2527147Y2617673D02*
G01*
X2527604Y2615133D01*
X2529078Y2612136D01*
X2529992Y2611882D01*
X2529535Y2613761D01*
X2528062Y2617368D01*
G37*
G36*
X2085136Y2617419D02*
G01*
X2083663Y2611120D01*
X2083866Y2607818D01*
X2085289Y2607614D01*
X2085848Y2609138D01*
X2085695Y2615438D01*
G37*
G36*
X2288489Y2616606D02*
G01*
X2286558Y2615336D01*
X2285288Y2613456D01*
X2285288Y2611577D01*
X2286762Y2611780D01*
X2287828Y2613761D01*
X2290724Y2614117D01*
X2291486Y2615285D01*
X2290724Y2616454D01*
G37*
G36*
X2222449Y2614371D02*
G01*
X2221331Y2613253D01*
X2220925Y2611678D01*
X2221179Y2610459D01*
X2222804Y2610459D01*
X2223363Y2612136D01*
G37*
G36*
X2155342Y2614269D02*
G01*
X2155342Y2613355D01*
X2158339Y2610612D01*
X2159050Y2610612D01*
X2158695Y2612237D01*
X2156968Y2614269D01*
G37*
G36*
X2296109Y2614269D02*
G01*
X2294636Y2613253D01*
X2294636Y2612288D01*
X2295804Y2612288D01*
X2297988Y2613609D01*
X2297988Y2614269D01*
G37*
G36*
X2510332Y2611628D02*
G01*
X2509926Y2611170D01*
X2509926Y2609748D01*
X2511501Y2608021D01*
X2512568Y2592832D01*
X2512974Y2590698D01*
X2514396Y2590698D01*
X2517902Y2592476D01*
X2517902Y2592984D01*
X2515209Y2592984D01*
X2513939Y2593695D01*
X2514498Y2595524D01*
X2515920Y2598318D01*
X2515920Y2599639D01*
X2514396Y2599690D01*
X2513482Y2600248D01*
X2514346Y2607868D01*
X2513228Y2610104D01*
X2511044Y2611628D01*
G37*
G36*
X2164842Y2610205D02*
G01*
X2163470Y2609697D01*
X2161336Y2607259D01*
X2161997Y2606040D01*
X2163368Y2605684D01*
X2165045Y2607157D01*
X2165400Y2609900D01*
G37*
G36*
X2101088Y2607614D02*
G01*
X2098344Y2604516D01*
X2098548Y2603804D01*
X2100376Y2603601D01*
X2102002Y2604668D01*
X2102002Y2606598D01*
X2101596Y2607614D01*
G37*
G36*
X2122525Y2603652D02*
G01*
X2119528Y2603601D01*
X2117953Y2602992D01*
X2118207Y2601823D01*
X2120849Y2601874D01*
X2123490Y2602992D01*
G37*
G36*
X2153005Y2603296D02*
G01*
X2151634Y2601925D01*
X2152040Y2599537D01*
X2153005Y2597708D01*
X2153666Y2597302D01*
X2154783Y2599029D01*
X2154783Y2601976D01*
X2153564Y2603296D01*
G37*
G36*
X2140559Y2601722D02*
G01*
X2141067Y2599182D01*
X2142490Y2596184D01*
X2143455Y2595930D01*
X2142947Y2597810D01*
X2141524Y2601417D01*
G37*
G36*
X2251811Y2599283D02*
G01*
X2250643Y2598623D01*
X2250643Y2596845D01*
X2251964Y2594660D01*
X2253284Y2595372D01*
X2253742Y2597048D01*
X2253030Y2598623D01*
G37*
G36*
X2085086Y2595422D02*
G01*
X2084628Y2587040D01*
X2085339Y2577236D01*
X2085746Y2576068D01*
X2086356Y2576423D01*
X2086356Y2585212D01*
X2085644Y2594813D01*
G37*
G36*
X2118410Y2594356D02*
G01*
X2117293Y2593238D01*
X2118410Y2587955D01*
X2118918Y2588514D01*
X2119731Y2591511D01*
X2121662Y2593949D01*
X2121255Y2594356D01*
G37*
G36*
X2281275Y2590342D02*
G01*
X2276805Y2590292D01*
X2274011Y2589733D01*
X2271979Y2588666D01*
X2271979Y2587802D01*
X2273655Y2587040D01*
X2274722Y2587040D01*
X2274316Y2588666D01*
X2281783Y2588615D01*
X2283155Y2589631D01*
G37*
G36*
X2526334Y2590038D02*
G01*
X2525877Y2589580D01*
X2525928Y2587548D01*
X2526538Y2586532D01*
X2527249Y2588412D01*
X2526842Y2590038D01*
G37*
G36*
X2513482Y2589022D02*
G01*
X2513888Y2580894D01*
X2516581Y2556611D01*
X2517292Y2552598D01*
X2518511Y2549804D01*
X2519172Y2549804D01*
X2519883Y2550668D01*
X2520492Y2554935D01*
X2519883Y2557068D01*
X2518613Y2557475D01*
X2518156Y2558592D01*
X2517648Y2577236D01*
X2517140Y2578760D01*
X2515666Y2579319D01*
X2515362Y2581300D01*
X2515768Y2584551D01*
X2517394Y2581351D01*
X2518003Y2581351D01*
X2517597Y2584348D01*
X2516276Y2586888D01*
X2514295Y2589022D01*
G37*
G36*
X2120900Y2586380D02*
G01*
X2119528Y2586329D01*
X2118614Y2585770D01*
X2118868Y2584551D01*
X2120442Y2584297D01*
X2123338Y2585415D01*
X2123338Y2585974D01*
X2122271Y2586380D01*
G37*
G36*
X2286304Y2585720D02*
G01*
X2284984Y2583535D01*
X2284984Y2582722D01*
X2285593Y2582722D01*
X2287320Y2584805D01*
X2287117Y2585466D01*
G37*
G36*
X2281377Y2585008D02*
G01*
X2280564Y2584043D01*
X2280818Y2582926D01*
X2281986Y2582214D01*
X2283155Y2582926D01*
X2283358Y2584043D01*
X2282545Y2585008D01*
G37*
G36*
X2277059Y2583738D02*
G01*
X2275687Y2582011D01*
X2276043Y2581046D01*
X2277211Y2581046D01*
X2278024Y2582011D01*
X2277821Y2583484D01*
G37*
G36*
X2155494Y2583688D02*
G01*
X2152802Y2582468D01*
X2150313Y2580284D01*
X2150922Y2579674D01*
X2153869Y2580944D01*
X2156358Y2583129D01*
X2155952Y2583688D01*
G37*
G36*
X2293315Y2583688D02*
G01*
X2293061Y2583180D01*
X2293569Y2581859D01*
X2294585Y2580995D01*
X2295296Y2581402D01*
X2295296Y2582926D01*
X2294483Y2583688D01*
G37*
G36*
X2268829Y2583332D02*
G01*
X2265527Y2582062D01*
X2264867Y2581402D01*
X2267762Y2580640D01*
X2270658Y2580589D01*
X2271369Y2581300D01*
X2271115Y2583180D01*
G37*
G36*
X2303729Y2582367D02*
G01*
X2302205Y2580741D01*
X2297785Y2579776D01*
X2289454Y2578709D01*
X2277465Y2577744D01*
X2259126Y2577033D01*
X2248154Y2576372D01*
X2240330Y2575001D01*
X2240330Y2574137D01*
X2243886Y2572105D01*
X2248712Y2567686D01*
X2250998Y2566720D01*
X2251659Y2567127D01*
X2251659Y2567635D01*
X2246934Y2572359D01*
X2247138Y2573883D01*
X2248814Y2574340D01*
X2253488Y2574340D01*
X2256078Y2573578D01*
X2256840Y2572105D01*
X2260549Y2573934D01*
X2268524Y2574391D01*
X2273706Y2575458D01*
X2275281Y2575052D01*
X2275281Y2573375D01*
X2276297Y2573375D01*
X2276805Y2574290D01*
X2278786Y2575306D01*
X2294991Y2578150D01*
X2296617Y2577388D01*
X2296617Y2576220D01*
X2294636Y2572004D01*
X2294636Y2571089D01*
X2295652Y2571089D01*
X2297684Y2572105D01*
X2297328Y2573020D01*
X2299055Y2575560D01*
X2304643Y2581351D01*
X2304643Y2582367D01*
G37*
G36*
X2162759Y2579725D02*
G01*
X2161946Y2578760D01*
X2162149Y2577592D01*
X2162911Y2577338D01*
X2164791Y2578963D01*
X2164283Y2579725D01*
G37*
G36*
X2153666Y2578404D02*
G01*
X2152853Y2578354D01*
X2150160Y2577236D01*
X2138222Y2570886D01*
X2137968Y2570175D01*
X2139797Y2569718D01*
X2148433Y2569108D01*
X2150821Y2569464D01*
X2152650Y2570175D01*
X2152650Y2571597D01*
X2153716Y2573070D01*
X2154986Y2573070D01*
X2154986Y2574036D01*
X2154326Y2574036D01*
X2151837Y2573020D01*
X2148738Y2571038D01*
X2146604Y2570429D01*
X2145334Y2571089D01*
X2145334Y2572105D01*
X2146706Y2574036D01*
X2149500Y2574798D01*
X2152192Y2576322D01*
X2153666Y2577744D01*
G37*
G36*
X2166010Y2575712D02*
G01*
X2166010Y2573883D01*
X2167026Y2572410D01*
X2167991Y2572410D01*
X2167991Y2573578D01*
X2166670Y2575712D01*
G37*
G36*
X2172004Y2571800D02*
G01*
X2170836Y2569667D01*
X2165654Y2570073D01*
X2166010Y2569464D01*
X2171192Y2566568D01*
X2173020Y2565755D01*
X2175256Y2565755D01*
X2176322Y2566974D01*
X2176322Y2567736D01*
X2174189Y2567736D01*
X2173173Y2568397D01*
X2173173Y2571546D01*
G37*
G36*
X2275738Y2571394D02*
G01*
X2275281Y2570937D01*
X2275332Y2568905D01*
X2275941Y2567940D01*
X2276652Y2569768D01*
X2276246Y2571394D01*
G37*
G36*
X2157526Y2570073D02*
G01*
X2155901Y2569260D01*
X2155240Y2568194D01*
X2155698Y2566314D01*
X2157679Y2566720D01*
X2161387Y2569108D01*
X2161133Y2569921D01*
G37*
G36*
X2255164Y2567787D02*
G01*
X2253894Y2566873D01*
X2254148Y2565654D01*
X2255316Y2564942D01*
X2257145Y2565958D01*
X2257145Y2567584D01*
G37*
G36*
X2177084Y2565095D02*
G01*
X2175967Y2563825D01*
X2176627Y2562606D01*
X2178151Y2561183D01*
X2180285Y2560116D01*
X2180640Y2560675D01*
X2179624Y2563672D01*
X2178304Y2565095D01*
G37*
G36*
X2159508Y2564739D02*
G01*
X2156510Y2564384D01*
X2153361Y2563368D01*
X2151126Y2560777D01*
X2149348Y2557170D01*
X2149348Y2556103D01*
X2150313Y2555748D01*
X2151837Y2556510D01*
X2156866Y2561742D01*
X2159254Y2561742D01*
X2160981Y2563164D01*
X2160981Y2564333D01*
G37*
G36*
X2262632Y2563418D02*
G01*
X2262632Y2562809D01*
X2264460Y2562606D01*
X2266645Y2562809D01*
X2266645Y2563418D01*
G37*
G36*
X2165350Y2563114D02*
G01*
X2162911Y2560980D01*
X2157882Y2554630D01*
X2152650Y2549448D01*
X2152904Y2548636D01*
X2154224Y2548432D01*
X2159863Y2553512D01*
X2162708Y2554833D01*
X2163318Y2556510D01*
X2163318Y2558440D01*
X2164334Y2560828D01*
X2166010Y2562148D01*
X2166010Y2563114D01*
G37*
G36*
X2146757Y2562402D02*
G01*
X2145944Y2561437D01*
X2146147Y2560320D01*
X2146909Y2560066D01*
X2148789Y2561640D01*
X2148281Y2562402D01*
G37*
G36*
X2167788Y2561082D02*
G01*
X2166670Y2559862D01*
X2166670Y2558440D01*
X2167737Y2558034D01*
X2167331Y2556052D01*
X2163318Y2550363D01*
X2163318Y2549448D01*
X2164029Y2549448D01*
X2165400Y2550210D01*
X2166061Y2549550D01*
X2165096Y2547264D01*
X2161997Y2543810D01*
X2161997Y2543251D01*
X2162403Y2542844D01*
X2164842Y2543860D01*
X2166975Y2545943D01*
X2168093Y2548788D01*
X2167636Y2550464D01*
X2166670Y2550464D01*
X2166670Y2551633D01*
X2167483Y2552446D01*
X2168347Y2552446D01*
X2169312Y2550160D01*
X2169312Y2544470D01*
X2170379Y2544064D01*
X2172004Y2544927D01*
X2175764Y2549448D01*
X2176678Y2549448D01*
X2176678Y2547467D01*
X2177592Y2547467D01*
X2179624Y2549144D01*
X2182012Y2552395D01*
X2182012Y2553462D01*
X2179624Y2556052D01*
X2175052Y2559202D01*
X2173376Y2558796D01*
X2171649Y2560929D01*
X2171700Y2559913D01*
X2172309Y2557272D01*
X2171954Y2556052D01*
X2170328Y2555443D01*
X2170328Y2554884D01*
X2171242Y2553716D01*
X2172817Y2554528D01*
X2174697Y2556764D01*
X2175256Y2556459D01*
X2174804Y2554376D01*
X2177897Y2554376D01*
X2178354Y2555138D01*
X2179320Y2555138D01*
X2180640Y2553665D01*
X2180640Y2552395D01*
X2179218Y2552598D01*
X2177897Y2554376D01*
X2174804Y2554376D01*
X2171903Y2547112D01*
X2171344Y2547112D01*
X2171293Y2550972D01*
X2170379Y2553512D01*
X2169261Y2554782D01*
X2169718Y2559761D01*
X2168956Y2561082D01*
G37*
G36*
X1994357Y2557119D02*
G01*
X1994001Y2556154D01*
X1994712Y2553919D01*
X1996541Y2551734D01*
X1997659Y2552192D01*
X1998065Y2553208D01*
X1997659Y2555443D01*
X1995982Y2557119D01*
G37*
G36*
X2523693Y2556459D02*
G01*
X2523236Y2556002D01*
X2523236Y2553970D01*
X2523642Y2552446D01*
X2525064Y2552446D01*
X2526741Y2553563D01*
X2527249Y2554274D01*
X2527249Y2555494D01*
X2525166Y2555036D01*
G37*
G36*
X2120493Y2553106D02*
G01*
X2119528Y2552496D01*
X2121408Y2551785D01*
X2123033Y2552192D01*
X2122779Y2552954D01*
G37*
G36*
X1996846Y2548585D02*
G01*
X1996389Y2546451D01*
X1995627Y2535783D01*
X1995932Y2526233D01*
X1996439Y2525674D01*
X1997405Y2526995D01*
X1996948Y2532126D01*
X1998065Y2533650D01*
X1998065Y2541320D01*
X1997303Y2547264D01*
G37*
G36*
X2213051Y2547823D02*
G01*
X2212492Y2547772D01*
X2218131Y2542286D01*
X2226462Y2536088D01*
X2238806Y2527909D01*
X2246477Y2523540D01*
X2253030Y2521204D01*
X2253996Y2521204D01*
X2253996Y2522118D01*
X2242566Y2529027D01*
X2239822Y2531821D01*
X2238502Y2531872D01*
X2235047Y2533446D01*
X2230170Y2536748D01*
X2226970Y2539593D01*
X2227173Y2540965D01*
X2222804Y2541371D01*
X2219147Y2543200D01*
X2217674Y2544572D01*
X2217674Y2546604D01*
X2216912Y2545892D01*
X2214981Y2546451D01*
G37*
G36*
X2518968Y2546451D02*
G01*
X2518156Y2545486D01*
X2517851Y2540965D01*
X2518918Y2538425D01*
X2519730Y2538730D01*
X2520543Y2540304D01*
X2520594Y2544165D01*
X2519629Y2546451D01*
G37*
G36*
X2176068Y2545181D02*
G01*
X2172970Y2542336D01*
X2171598Y2540457D01*
X2171954Y2540101D01*
X2174189Y2541066D01*
X2176018Y2543200D01*
X2176424Y2544826D01*
G37*
G36*
X2120798Y2543810D02*
G01*
X2119274Y2542387D01*
X2119630Y2539441D01*
X2120900Y2537663D01*
X2122068Y2537460D01*
X2121560Y2538984D01*
X2121662Y2540863D01*
X2123033Y2543200D01*
X2123033Y2543810D01*
G37*
G36*
X2086457Y2543505D02*
G01*
X2086000Y2543048D01*
X2086051Y2540965D01*
X2086660Y2540000D01*
X2087372Y2541879D01*
X2086965Y2543505D01*
G37*
G36*
X2167229Y2541828D02*
G01*
X2163673Y2541168D01*
X2160981Y2539796D01*
X2160981Y2539085D01*
X2165197Y2539390D01*
X2168499Y2540863D01*
G37*
G36*
X2522321Y2539492D02*
G01*
X2519984Y2536901D01*
X2519527Y2535478D01*
X2521610Y2533091D01*
X2522321Y2531516D01*
X2522880Y2531872D01*
X2522880Y2539492D01*
G37*
G36*
X2169820Y2538476D02*
G01*
X2168194Y2537663D01*
X2167331Y2535986D01*
X2167382Y2533700D01*
X2167890Y2532380D01*
X2169414Y2532329D01*
X2170785Y2530500D01*
X2170125Y2529840D01*
X2167991Y2530602D01*
X2167585Y2530195D01*
X2169464Y2526030D01*
X2169363Y2521559D01*
X2170684Y2520848D01*
X2170277Y2517597D01*
X2171649Y2513076D01*
X2173833Y2510993D01*
X2175256Y2510282D01*
X2178456Y2509520D01*
X2181606Y2510282D01*
X2183333Y2512009D01*
X2183333Y2513634D01*
X2176170Y2513330D01*
X2174392Y2513939D01*
X2173681Y2515717D01*
X2172868Y2520035D01*
X2172817Y2535682D01*
X2171598Y2538476D01*
G37*
G36*
X2121408Y2535834D02*
G01*
X2120646Y2534869D01*
X2120849Y2533751D01*
X2122017Y2532989D01*
X2123186Y2533751D01*
X2123389Y2534869D01*
X2122576Y2535834D01*
G37*
G36*
X2518613Y2533243D02*
G01*
X2517902Y2531872D01*
X2517902Y2530297D01*
X2518765Y2529128D01*
X2520035Y2529382D01*
X2520696Y2531160D01*
X2520035Y2532989D01*
G37*
G36*
X2100783Y2527503D02*
G01*
X2099970Y2526538D01*
X2100326Y2525522D01*
X2102764Y2524506D01*
X2104186Y2524709D01*
X2104390Y2525725D01*
X2102967Y2527503D01*
G37*
G36*
X2287473Y2526538D02*
G01*
X2280920Y2523896D01*
X2277110Y2522880D01*
X2269794Y2522270D01*
X2267915Y2521559D01*
X2268372Y2520899D01*
X2270963Y2520899D01*
X2278380Y2521915D01*
X2284780Y2523540D01*
X2288489Y2525369D01*
X2288489Y2526334D01*
G37*
G36*
X1996744Y2523845D02*
G01*
X1995982Y2522474D01*
X1995424Y2519070D01*
X1996033Y2515412D01*
X1996998Y2514498D01*
X1998319Y2514904D01*
X1999030Y2516987D01*
X1999030Y2521559D01*
X1998065Y2523845D01*
G37*
G36*
X2519222Y2523845D02*
G01*
X2519222Y2512720D01*
X2519934Y2505100D01*
X2520950Y2499410D01*
X2521508Y2498547D01*
X2535377Y2497937D01*
X2582367Y2497785D01*
X2585720Y2498750D01*
X2585923Y2499868D01*
X2584551Y2500630D01*
X2576372Y2501239D01*
X2525877Y2501290D01*
X2524556Y2502611D01*
X2524556Y2504084D01*
X2523998Y2504998D01*
X2523286Y2504592D01*
X2522474Y2505608D01*
X2522067Y2517597D01*
X2520899Y2518257D01*
X2520289Y2520696D01*
X2519883Y2523845D01*
G37*
G36*
X2541371Y2523845D02*
G01*
X2539898Y2522829D01*
X2539898Y2521661D01*
X2541117Y2520543D01*
X2542946Y2520543D01*
X2544216Y2521254D01*
X2544216Y2522423D01*
X2542692Y2523845D01*
G37*
G36*
X2523693Y2523540D02*
G01*
X2523236Y2523083D01*
X2523236Y2521051D01*
X2523845Y2520086D01*
X2524556Y2521915D01*
X2524150Y2523540D01*
G37*
G36*
X2581706Y2518562D02*
G01*
X2580741Y2517902D01*
X2582621Y2517241D01*
X2584246Y2517648D01*
X2583992Y2518359D01*
G37*
G36*
X1991258Y2513888D02*
G01*
X1988921Y2513380D01*
X1987702Y2511755D01*
X1986737Y2507081D01*
X1986025Y2496769D01*
X1986686Y2487726D01*
X1987448Y2484628D01*
X1988007Y2484323D01*
X1989074Y2485796D01*
X1989074Y2491282D01*
X1987651Y2498394D01*
X1988413Y2504084D01*
X1990089Y2509062D01*
X1991918Y2511755D01*
X1993696Y2512618D01*
X1993696Y2513228D01*
X1992020Y2513888D01*
G37*
G36*
X2546756Y2511552D02*
G01*
X2547416Y2510942D01*
X2551887Y2510891D01*
X2551887Y2511552D01*
G37*
G36*
X2528874Y2510891D02*
G01*
X2527249Y2509164D01*
X2525826Y2506268D01*
X2526080Y2505557D01*
X2528163Y2507030D01*
X2529586Y2509113D01*
X2529586Y2510891D01*
G37*
G36*
X2582316Y2510586D02*
G01*
X2580944Y2508859D01*
X2581300Y2507894D01*
X2582468Y2507894D01*
X2583281Y2508859D01*
X2583027Y2510332D01*
G37*
G36*
X2118156Y2506573D02*
G01*
X2114550Y2504744D01*
X2114296Y2503932D01*
X2115515Y2503932D01*
X2118817Y2505760D01*
X2119071Y2506573D01*
G37*
G36*
X2484932Y2506573D02*
G01*
X2484932Y2501290D01*
X2485542Y2501290D01*
X2485745Y2503779D01*
X2485491Y2506573D01*
G37*
G36*
X2107184Y2505252D02*
G01*
X2106218Y2504643D01*
X2108047Y2503932D01*
X2109724Y2504338D01*
X2109470Y2505100D01*
G37*
G36*
X2082342Y2500579D02*
G01*
X2082342Y2495499D01*
X2082952Y2496108D01*
X2083003Y2500579D01*
G37*
G36*
X2486253Y2495956D02*
G01*
X2486253Y2490622D01*
X2486863Y2490622D01*
X2487066Y2493111D01*
X2486863Y2495956D01*
G37*
G36*
X2323642Y2487980D02*
G01*
X2322779Y2487930D01*
X2321966Y2487574D01*
X2321966Y2486050D01*
X2323185Y2484526D01*
X2324303Y2484983D01*
X2324303Y2486253D01*
G37*
G36*
X2486355Y2484983D02*
G01*
X2485898Y2484526D01*
X2485948Y2482494D01*
X2486558Y2481529D01*
X2487269Y2483358D01*
X2486863Y2484983D01*
G37*
G36*
X2331974Y2483967D02*
G01*
X2331974Y2482240D01*
X2333345Y2480005D01*
X2334615Y2480005D01*
X2334615Y2481732D01*
X2333244Y2483967D01*
G37*
G36*
X2354681Y2480005D02*
G01*
X2353868Y2479040D01*
X2354122Y2477871D01*
X2354884Y2477617D01*
X2356713Y2479243D01*
X2356256Y2480005D01*
G37*
G36*
X2327910Y2477516D02*
G01*
X2330602Y2467965D01*
X2330602Y2463393D01*
X2329281Y2459888D01*
X2327249Y2457399D01*
X2326640Y2457399D01*
X2326640Y2459329D01*
X2327300Y2461056D01*
X2326741Y2461056D01*
X2325217Y2458364D01*
X2325624Y2456738D01*
X2324709Y2454910D01*
X2319477Y2449830D01*
X2315108Y2446680D01*
X2311450Y2444851D01*
X2308707Y2444089D01*
X2307132Y2442819D01*
X2307894Y2442057D01*
X2311755Y2443124D01*
X2317750Y2446172D01*
X2322118Y2449017D01*
X2326284Y2452573D01*
X2329637Y2456789D01*
X2331262Y2459939D01*
X2332278Y2463952D01*
X2332278Y2467762D01*
X2331262Y2471775D01*
X2329332Y2475484D01*
G37*
G36*
X2487574Y2476652D02*
G01*
X2487574Y2474620D01*
X2488946Y2469184D01*
X2489657Y2468524D01*
X2489301Y2473604D01*
X2487930Y2476652D01*
G37*
G36*
X2573629Y2473452D02*
G01*
X2573172Y2472690D01*
X2580690Y2469184D01*
X2585516Y2464358D01*
X2585974Y2465070D01*
X2585516Y2467305D01*
X2582519Y2470658D01*
X2577744Y2472994D01*
G37*
G36*
X2340965Y2472994D02*
G01*
X2340965Y2472385D01*
X2343048Y2470658D01*
X2343759Y2470912D01*
X2344013Y2471674D01*
X2341778Y2472994D01*
G37*
G36*
X2335936Y2470708D02*
G01*
X2335936Y2469337D01*
X2337054Y2467203D01*
X2338425Y2465679D01*
X2338933Y2465679D01*
X2338933Y2467406D01*
X2338070Y2469540D01*
X2336901Y2470708D01*
G37*
G36*
X2567584Y2468321D02*
G01*
X2567228Y2467711D01*
X2570429Y2465222D01*
X2579827Y2459634D01*
X2583535Y2456383D01*
X2585516Y2452268D01*
X2585974Y2453386D01*
X2585516Y2456535D01*
X2584500Y2458872D01*
X2581706Y2460955D01*
X2575052Y2464968D01*
X2570073Y2467457D01*
G37*
G36*
X2346198Y2468168D02*
G01*
X2346655Y2466187D01*
X2347620Y2464714D01*
X2348687Y2464714D01*
X2348230Y2466187D01*
G37*
G36*
X2488844Y2465019D02*
G01*
X2489911Y2456891D01*
X2490368Y2447137D01*
X2489454Y2443937D01*
X2484577Y2439212D01*
X2484577Y2438044D01*
X2486101Y2438552D01*
X2488082Y2439873D01*
X2491181Y2442413D01*
X2492248Y2444699D01*
X2492248Y2449931D01*
X2491232Y2458872D01*
X2489809Y2465019D01*
G37*
G36*
X2339289Y2462682D02*
G01*
X2339289Y2460752D01*
X2342642Y2454249D01*
X2344572Y2451912D01*
X2345080Y2452420D01*
X2343912Y2455875D01*
X2339848Y2462682D01*
G37*
G36*
X2335682Y2462377D02*
G01*
X2334971Y2461514D01*
X2333955Y2458618D01*
X2333955Y2457297D01*
X2335022Y2458161D01*
X2336292Y2460701D01*
X2336292Y2462377D01*
G37*
G36*
X2563723Y2457348D02*
G01*
X2562098Y2456891D01*
X2565044Y2455976D01*
X2569413Y2453741D01*
X2575306Y2449322D01*
X2582367Y2442921D01*
X2584805Y2441092D01*
X2585872Y2441092D01*
X2585872Y2442311D01*
X2583992Y2445258D01*
X2578506Y2450388D01*
X2572004Y2454706D01*
X2567025Y2457043D01*
G37*
G36*
X2142540Y2453386D02*
G01*
X2138832Y2449576D01*
X2137918Y2447747D01*
X2138375Y2447290D01*
X2139492Y2447950D01*
X2143353Y2452522D01*
X2143353Y2453386D01*
G37*
G36*
X2293823Y2453386D02*
G01*
X2292807Y2452776D01*
X2294686Y2452065D01*
X2296312Y2452471D01*
X2296058Y2453233D01*
G37*
G36*
X2327808Y2450744D02*
G01*
X2324658Y2447442D01*
X2319121Y2443886D01*
X2318207Y2442768D01*
X2319070Y2442768D01*
X2323134Y2444851D01*
X2327148Y2447696D01*
X2328672Y2449372D01*
X2328468Y2450541D01*
G37*
G36*
X2301240Y2442768D02*
G01*
X2298446Y2442718D01*
X2294585Y2441041D01*
X2294890Y2440279D01*
X2299106Y2440482D01*
X2301595Y2441143D01*
X2302002Y2441803D01*
G37*
G36*
X2005177Y2441448D02*
G01*
X2004720Y2440990D01*
X2004720Y2439517D01*
X2005685Y2438704D01*
X2006803Y2438958D01*
X2007057Y2439670D01*
X2005685Y2441448D01*
G37*
G36*
X2575509Y2440787D02*
G01*
X2571038Y2440736D01*
X2569413Y2440228D01*
X2567279Y2439111D01*
X2565524Y2437180D01*
X2569159Y2437180D01*
X2570226Y2438247D01*
X2573375Y2438654D01*
X2576728Y2438400D01*
X2577388Y2438196D01*
X2574086Y2436672D01*
X2569667Y2436368D01*
X2569159Y2437180D01*
X2565524Y2437180D01*
X2563215Y2434640D01*
X2563215Y2434183D01*
X2560828Y2432710D01*
X2555798Y2433116D01*
X2557221Y2431592D01*
X2556814Y2429459D01*
X2558288Y2429459D01*
X2570073Y2433370D01*
X2584348Y2436774D01*
X2585008Y2437434D01*
X2584145Y2438400D01*
X2580386Y2439822D01*
G37*
G36*
X2312111Y2440076D02*
G01*
X2309469Y2438603D01*
X2309266Y2437130D01*
X2310282Y2436723D01*
X2311908Y2437739D01*
X2312365Y2439822D01*
G37*
G36*
X2482697Y2438095D02*
G01*
X2479040Y2435555D01*
X2470658Y2428646D01*
X2460447Y2421686D01*
X2434132Y2401316D01*
X2429154Y2397201D01*
X2427427Y2397404D01*
X2427427Y2395372D01*
X2428798Y2395220D01*
X2433777Y2398522D01*
X2456637Y2416505D01*
X2464765Y2422144D01*
X2474772Y2429916D01*
X2482088Y2436012D01*
X2483256Y2437180D01*
X2483256Y2438095D01*
G37*
G36*
X2009444Y2437434D02*
G01*
X2008682Y2436469D01*
X2008886Y2435352D01*
X2009648Y2435098D01*
X2011476Y2436672D01*
X2011019Y2437434D01*
G37*
G36*
X2215642Y2437434D02*
G01*
X2215642Y2436825D01*
X2217420Y2435453D01*
X2220010Y2434691D01*
X2220417Y2435098D01*
X2219502Y2436215D01*
X2216810Y2437434D01*
G37*
G36*
X2299106Y2437434D02*
G01*
X2298141Y2436825D01*
X2300020Y2436114D01*
X2301646Y2436520D01*
X2301392Y2437282D01*
G37*
G36*
X2005177Y2436114D02*
G01*
X2004720Y2435656D01*
X2004720Y2433269D01*
X2005634Y2431999D01*
X2006701Y2432456D01*
X2006701Y2433980D01*
X2005380Y2436114D01*
G37*
G36*
X2585516Y2434793D02*
G01*
X2581503Y2433777D01*
X2568041Y2429205D01*
X2557729Y2425395D01*
X2552242Y2422855D01*
X2552242Y2422194D01*
X2553512Y2421483D01*
X2555951Y2421483D01*
X2557881Y2422499D01*
X2557881Y2423820D01*
X2558186Y2423820D01*
X2560574Y2422194D01*
X2565400Y2421128D01*
X2571394Y2420823D01*
X2569870Y2421483D01*
X2569870Y2422093D01*
X2571699Y2423515D01*
X2576372Y2425801D01*
X2579166Y2426411D01*
X2580030Y2425852D01*
X2578049Y2425395D01*
X2575560Y2424125D01*
X2574493Y2422499D01*
X2574899Y2421483D01*
X2577744Y2420162D01*
X2579370Y2420213D01*
X2576880Y2422398D01*
X2577338Y2422804D01*
X2579776Y2422804D01*
X2581808Y2423515D01*
X2582164Y2424887D01*
X2585567Y2424430D01*
X2585974Y2425496D01*
X2584805Y2426817D01*
X2582570Y2426817D01*
X2582214Y2427427D01*
X2585567Y2430221D01*
X2585567Y2430780D01*
X2584246Y2430780D01*
X2579370Y2429052D01*
X2571038Y2425090D01*
X2566060Y2423210D01*
X2562910Y2422753D01*
X2561234Y2423160D01*
X2561234Y2423820D01*
X2565704Y2426055D01*
X2579065Y2430881D01*
X2584297Y2433116D01*
X2585923Y2434132D01*
G37*
G36*
X2036368Y2431796D02*
G01*
X2033219Y2431745D01*
X2031695Y2431135D01*
X2014118Y2428138D01*
X2011375Y2427071D01*
X2011375Y2426157D01*
X2015185Y2426157D01*
X2029460Y2428443D01*
X2039518Y2429205D01*
X2067864Y2428798D01*
X2069846Y2429357D01*
X2068220Y2429764D01*
X2061870Y2430475D01*
X2039518Y2431796D01*
G37*
G36*
X2007158Y2429459D02*
G01*
X2005939Y2428544D01*
X2006346Y2427478D01*
X2007870Y2427478D01*
X2010054Y2428798D01*
X2009698Y2429459D01*
G37*
G36*
X2077516Y2428798D02*
G01*
X2075586Y2427935D01*
X2076805Y2426970D01*
X2083663Y2426970D01*
X2084476Y2427782D01*
X2082546Y2428494D01*
G37*
G36*
X2055368Y2426817D02*
G01*
X2054199Y2426766D01*
X2050034Y2425852D01*
X2046020Y2424074D01*
X2046020Y2423464D01*
X2048306Y2423464D01*
X2052878Y2424887D01*
X2055368Y2426157D01*
G37*
G36*
X2000859Y2426766D02*
G01*
X1994865Y2425547D01*
X1986381Y2423261D01*
X1986229Y2423058D01*
X1995220Y2423566D01*
X2000859Y2424531D01*
X2002891Y2425700D01*
X2002891Y2426665D01*
G37*
G36*
X2071217Y2424785D02*
G01*
X2069134Y2423922D01*
X2067661Y2422042D01*
X2068220Y2421483D01*
X2070760Y2422194D01*
X2073808Y2423515D01*
X2072843Y2424430D01*
G37*
G36*
X2039518Y2424074D02*
G01*
X2036724Y2423464D01*
X2029714Y2420721D01*
X2030018Y2420213D01*
X2034793Y2419096D01*
X2038553Y2419451D01*
X2041652Y2420518D01*
X2043379Y2422144D01*
X2043379Y2423007D01*
X2042769Y2423922D01*
G37*
G36*
X2004771Y2423871D02*
G01*
X2003399Y2422042D01*
X2002383Y2418740D01*
X2003043Y2417521D01*
X2004060Y2417521D01*
X2005330Y2418791D01*
X2006142Y2421483D01*
X2005533Y2423617D01*
G37*
G36*
X2057095Y2423007D02*
G01*
X2056333Y2420874D01*
X2055215Y2420467D01*
X2049068Y2419908D01*
X2047697Y2419146D01*
X2047697Y2417978D01*
X2048205Y2417267D01*
X2050389Y2416149D01*
X2051050Y2416556D01*
X2050643Y2417927D01*
X2057196Y2417318D01*
X2057755Y2421128D01*
G37*
G36*
X2026462Y2422855D02*
G01*
X2025091Y2421128D01*
X2025446Y2420162D01*
X2026615Y2420162D01*
X2027428Y2421128D01*
X2027224Y2422601D01*
G37*
G36*
X2193036Y2422194D02*
G01*
X2191664Y2420010D01*
X2191664Y2419146D01*
X2192274Y2419146D01*
X2194001Y2421229D01*
X2193798Y2421940D01*
G37*
G36*
X2011476Y2421534D02*
G01*
X2009851Y2420213D01*
X2007971Y2417572D01*
X2005634Y2416454D01*
X1994865Y2415895D01*
X1992528Y2415184D01*
X1991614Y2414574D01*
X1992477Y2413508D01*
X1996287Y2413508D01*
X2003552Y2414219D01*
X2007870Y2415184D01*
X2011222Y2416810D01*
X2012746Y2419096D01*
X2012543Y2421331D01*
G37*
G36*
X1999386Y2421178D02*
G01*
X1997862Y2421077D01*
X1989531Y2419299D01*
X1995220Y2418791D01*
X1999386Y2419858D01*
G37*
G36*
X2063242Y2419807D02*
G01*
X2059381Y2415844D01*
X2059381Y2414879D01*
X2061870Y2414320D01*
X2080869Y2414320D01*
X2084070Y2415286D01*
X2084679Y2416454D01*
X2084679Y2417013D01*
X2079193Y2417114D01*
X2073198Y2418181D01*
X2067864Y2418130D01*
X2063597Y2416505D01*
X2063953Y2418689D01*
X2064461Y2419807D01*
G37*
G36*
X2017877Y2419705D02*
G01*
X2015083Y2419299D01*
X2014067Y2418435D01*
X2014067Y2416810D01*
X2014728Y2415489D01*
X2018741Y2415946D01*
X2018284Y2412542D01*
X2019503Y2412085D01*
X2020722Y2413609D01*
X2020722Y2415540D01*
X2021738Y2417521D01*
X2023364Y2417521D01*
X2023364Y2418435D01*
X2021128Y2419197D01*
G37*
G36*
X2154377Y2419502D02*
G01*
X2153158Y2419451D01*
X2151278Y2418892D01*
X2150364Y2418080D01*
X2150719Y2417521D01*
X2155190Y2417521D01*
X2156663Y2417927D01*
X2156663Y2418537D01*
G37*
G36*
X2160066Y2418842D02*
G01*
X2159304Y2417876D01*
X2159508Y2416759D01*
X2160676Y2415997D01*
X2161844Y2416759D01*
X2162048Y2417876D01*
X2161235Y2418842D01*
G37*
G36*
X2559405Y2418486D02*
G01*
X2551734Y2418435D01*
X2549550Y2417927D01*
X2549093Y2417470D01*
X2549855Y2416759D01*
X2553055Y2416200D01*
X2563418Y2416149D01*
X2570022Y2415489D01*
X2570632Y2414879D01*
X2569260Y2414168D01*
X2561945Y2413558D01*
X2557729Y2412492D01*
X2550414Y2409037D01*
X2545181Y2409037D01*
X2546756Y2407767D01*
X2550109Y2406192D01*
X2553665Y2405532D01*
X2555849Y2405532D01*
X2556256Y2406243D01*
X2552852Y2407615D01*
X2553106Y2408377D01*
X2556306Y2409545D01*
X2567584Y2410460D01*
X2570073Y2412136D01*
X2578100Y2413762D01*
X2582214Y2415438D01*
X2582621Y2414778D01*
X2581452Y2413508D01*
X2577388Y2411577D01*
X2560066Y2405481D01*
X2555773Y2403551D01*
X2564892Y2403551D01*
X2564892Y2404770D01*
X2565857Y2405583D01*
X2569057Y2406497D01*
X2572054Y2406497D01*
X2573324Y2405583D01*
X2572156Y2403805D01*
X2568702Y2402230D01*
X2567076Y2402230D01*
X2564892Y2403551D01*
X2555544Y2403449D01*
X2555544Y2402941D01*
X2563114Y2402687D01*
X2566263Y2401112D01*
X2571851Y2401112D01*
X2574036Y2402535D01*
X2576017Y2402535D01*
X2578862Y2400858D01*
X2579319Y2399436D01*
X2577795Y2398217D01*
X2575407Y2398217D01*
X2572054Y2400046D01*
X2571851Y2401112D01*
X2566365Y2401062D01*
X2567076Y2399842D01*
X2563215Y2396845D01*
X2563215Y2395575D01*
X2564180Y2395575D01*
X2568143Y2398572D01*
X2569565Y2398572D01*
X2573070Y2396794D01*
X2574239Y2395778D01*
X2574239Y2393950D01*
X2572512Y2391918D01*
X2570226Y2391918D01*
X2553614Y2396896D01*
X2543048Y2399639D01*
X2534666Y2399995D01*
X2529738Y2398877D01*
X2526385Y2397302D01*
X2524810Y2395575D01*
X2525115Y2395220D01*
X2531618Y2397556D01*
X2537917Y2398318D01*
X2545384Y2397506D01*
X2548229Y2396794D01*
X2547874Y2396236D01*
X2544419Y2396236D01*
X2537968Y2395270D01*
X2535732Y2394254D01*
X2549753Y2394661D01*
X2554986Y2393492D01*
X2558319Y2392273D01*
X2564536Y2392273D01*
X2570440Y2390343D01*
X2573934Y2390343D01*
X2574950Y2392426D01*
X2578658Y2396947D01*
X2580741Y2398572D01*
X2581706Y2398369D01*
X2581910Y2396693D01*
X2580538Y2394966D01*
X2578404Y2394712D01*
X2578354Y2392680D01*
X2577084Y2390749D01*
X2575712Y2389581D01*
X2574696Y2389581D01*
X2573934Y2390343D01*
X2570440Y2390343D01*
X2571343Y2389632D01*
X2570480Y2388616D01*
X2568041Y2389632D01*
X2564536Y2392019D01*
X2564536Y2392273D01*
X2558319Y2392273D01*
X2564384Y2389327D01*
X2566009Y2388006D01*
X2565400Y2387650D01*
X2551379Y2391359D01*
X2545740Y2391359D01*
X2542438Y2390749D01*
X2535072Y2391257D01*
X2526741Y2392578D01*
X2519070Y2394305D01*
X2512872Y2396286D01*
X2510332Y2398572D01*
X2509926Y2398572D01*
X2509926Y2395728D01*
X2510942Y2394254D01*
X2515260Y2392934D01*
X2533751Y2389530D01*
X2539542Y2388209D01*
X2540254Y2387295D01*
X2538933Y2386584D01*
X2536291Y2386584D01*
X2525064Y2387650D01*
X2514752Y2387295D01*
X2508758Y2386228D01*
X2506421Y2385517D01*
X2503576Y2384196D01*
X2503576Y2383586D01*
X2506065Y2383586D01*
X2512720Y2384907D01*
X2526080Y2385720D01*
X2535174Y2385009D01*
X2536647Y2384196D01*
X2535529Y2383028D01*
X2527757Y2382570D01*
X2519730Y2381554D01*
X2508402Y2379319D01*
X2501747Y2377084D01*
X2498801Y2375458D01*
X2498496Y2374544D01*
X2501036Y2375001D01*
X2508402Y2377287D01*
X2517394Y2379573D01*
X2524607Y2380945D01*
X2526944Y2380945D01*
X2526741Y2380284D01*
X2516835Y2370277D01*
X2516225Y2370277D01*
X2517343Y2372614D01*
X2516835Y2373122D01*
X2514142Y2370124D01*
X2506499Y2359660D01*
X2508910Y2359660D01*
X2508910Y2360828D01*
X2510383Y2363165D01*
X2510586Y2362047D01*
X2509621Y2359660D01*
X2506499Y2359660D01*
X2500376Y2350516D01*
X2495499Y2342032D01*
X2495245Y2342286D01*
X2496210Y2348179D01*
X2497582Y2351836D01*
X2502611Y2358186D01*
X2513685Y2373122D01*
X2516378Y2375966D01*
X2517597Y2375966D01*
X2518359Y2374290D01*
X2519222Y2374290D01*
X2520848Y2376474D01*
X2521559Y2378303D01*
X2520442Y2378710D01*
X2515057Y2376881D01*
X2509570Y2374341D01*
X2509570Y2374087D01*
X2511552Y2374341D01*
X2511552Y2373934D01*
X2505405Y2367432D01*
X2500325Y2361184D01*
X2495854Y2354529D01*
X2493111Y2348839D01*
X2493111Y2343861D01*
X2494280Y2339898D01*
X2495245Y2338374D01*
X2496210Y2338374D01*
X2496921Y2340559D01*
X2502966Y2351176D01*
X2507640Y2358339D01*
X2507996Y2358034D01*
X2501595Y2344877D01*
X2500477Y2340711D01*
X2501239Y2339949D01*
X2502408Y2342845D01*
X2506218Y2350668D01*
X2511348Y2359152D01*
X2513634Y2362047D01*
X2513939Y2361742D01*
X2512263Y2357374D01*
X2508300Y2348839D01*
X2506980Y2344877D01*
X2506573Y2342540D01*
X2507234Y2341524D01*
X2508605Y2342896D01*
X2512110Y2352497D01*
X2516682Y2363165D01*
X2520594Y2371242D01*
X2524861Y2375204D01*
X2530195Y2379268D01*
X2534056Y2381605D01*
X2534564Y2381605D01*
X2534564Y2380996D01*
X2529535Y2373985D01*
X2527198Y2368905D01*
X2525674Y2362809D01*
X2525166Y2357780D01*
X2525928Y2353614D01*
X2526588Y2351938D01*
X2526944Y2352294D01*
X2527554Y2361692D01*
X2528976Y2367381D01*
X2530856Y2371598D01*
X2533497Y2375509D01*
X2537002Y2379319D01*
X2537307Y2378964D01*
X2535580Y2372461D01*
X2530246Y2348179D01*
X2527604Y2337866D01*
X2527960Y2336393D01*
X2528468Y2336393D01*
X2529179Y2337206D01*
X2530602Y2341524D01*
X2532583Y2348839D01*
X2539593Y2378913D01*
X2545232Y2384856D01*
X2545232Y2385263D01*
X2541930Y2383586D01*
X2540914Y2383586D01*
X2540914Y2384602D01*
X2543810Y2387600D01*
X2545384Y2387549D01*
X2547061Y2386634D01*
X2549296Y2386584D01*
X2551226Y2387752D01*
X2551226Y2388260D01*
X2548686Y2388260D01*
X2547213Y2389276D01*
X2547620Y2389936D01*
X2550261Y2389936D01*
X2555443Y2388616D01*
X2557830Y2387600D01*
X2558237Y2386939D01*
X2557526Y2385568D01*
X2552852Y2382520D01*
X2548346Y2377592D01*
X2551226Y2377592D01*
X2551226Y2378252D01*
X2557373Y2383028D01*
X2562656Y2385669D01*
X2566720Y2386584D01*
X2569057Y2386279D01*
X2570734Y2385009D01*
X2570683Y2382266D01*
X2568752Y2380234D01*
X2565908Y2378862D01*
X2570530Y2378862D01*
X2572004Y2380284D01*
X2573223Y2380284D01*
X2573223Y2379014D01*
X2571445Y2377592D01*
X2570734Y2377846D01*
X2570530Y2378862D01*
X2565908Y2378862D01*
X2565298Y2378557D01*
X2560066Y2377643D01*
X2548346Y2377592D01*
X2547416Y2376576D01*
X2545842Y2376220D01*
X2545080Y2376982D01*
X2546299Y2379268D01*
X2549398Y2381808D01*
X2554833Y2385568D01*
X2555595Y2386533D01*
X2554986Y2386939D01*
X2552141Y2385923D01*
X2548686Y2383942D01*
X2546146Y2381961D01*
X2543962Y2379116D01*
X2543149Y2376474D01*
X2541422Y2373833D01*
X2541422Y2356866D01*
X2541930Y2354935D01*
X2542590Y2355545D01*
X2543556Y2360625D01*
X2544876Y2373071D01*
X2545384Y2373528D01*
X2554071Y2375611D01*
X2561386Y2376373D01*
X2565603Y2376017D01*
X2566263Y2375408D01*
X2564892Y2374188D01*
X2564892Y2372614D01*
X2566568Y2372614D01*
X2569514Y2375509D01*
X2572664Y2377033D01*
X2574798Y2377338D01*
X2575306Y2376576D01*
X2572816Y2374239D01*
X2565908Y2370937D01*
X2563825Y2368143D01*
X2562352Y2364841D01*
X2556560Y2355240D01*
X2556560Y2354326D01*
X2557119Y2354326D01*
X2561082Y2358491D01*
X2567330Y2366822D01*
X2571902Y2372309D01*
X2572562Y2372309D01*
X2572562Y2371445D01*
X2567533Y2362149D01*
X2565857Y2357932D01*
X2566060Y2356510D01*
X2567178Y2356307D01*
X2568549Y2357780D01*
X2573020Y2366416D01*
X2576271Y2371394D01*
X2580081Y2375357D01*
X2584856Y2378608D01*
X2585872Y2380538D01*
X2585008Y2381656D01*
X2583738Y2381402D01*
X2583738Y2380081D01*
X2583129Y2379218D01*
X2580386Y2377998D01*
X2576372Y2377541D01*
X2575052Y2378608D01*
X2576931Y2380284D01*
X2579065Y2380284D01*
X2579979Y2380894D01*
X2575255Y2382266D01*
X2574848Y2382926D01*
X2575864Y2382926D01*
X2576271Y2383586D01*
X2573274Y2385060D01*
X2573578Y2385517D01*
X2576372Y2385212D01*
X2583230Y2383891D01*
X2585669Y2384094D01*
X2585923Y2384907D01*
X2583281Y2386228D01*
X2578963Y2387295D01*
X2576880Y2388565D01*
X2576880Y2389225D01*
X2577947Y2390241D01*
X2581402Y2390241D01*
X2584297Y2388920D01*
X2585567Y2388920D01*
X2585974Y2389987D01*
X2582214Y2393492D01*
X2582214Y2394102D01*
X2583281Y2395626D01*
X2585872Y2395575D01*
X2585872Y2397252D01*
X2585161Y2398725D01*
X2583434Y2400147D01*
X2585872Y2402433D01*
X2585872Y2405227D01*
X2585110Y2405227D01*
X2580944Y2402230D01*
X2579878Y2402636D01*
X2579471Y2404313D01*
X2580081Y2405329D01*
X2585059Y2408021D01*
X2585313Y2409291D01*
X2582164Y2408885D01*
X2576779Y2406548D01*
X2574950Y2406548D01*
X2574594Y2407107D01*
X2576068Y2408428D01*
X2583738Y2412085D01*
X2585567Y2414219D01*
X2585567Y2417724D01*
X2567076Y2418486D01*
G37*
G36*
X2032711Y2417521D02*
G01*
X2030526Y2417419D01*
X2027123Y2416860D01*
X2022195Y2415082D01*
X2021687Y2414625D01*
X2022749Y2413711D01*
X2026310Y2413711D01*
X2027529Y2414778D01*
X2030526Y2415794D01*
X2032050Y2415844D01*
X2032050Y2415133D01*
X2029764Y2412847D01*
X2027478Y2412847D01*
X2026310Y2413711D01*
X2022749Y2413711D01*
X2025345Y2411476D01*
X2027682Y2410510D01*
X2030120Y2410510D01*
X2032609Y2411933D01*
X2033625Y2413660D01*
X2034082Y2416149D01*
G37*
G36*
X2412949Y2415489D02*
G01*
X2412949Y2411526D01*
X2413558Y2411526D01*
X2413762Y2413355D01*
X2413508Y2415489D01*
G37*
G36*
X2038705Y2414828D02*
G01*
X2038705Y2413914D01*
X2041702Y2411171D01*
X2042972Y2411171D01*
X2043277Y2412034D01*
X2042769Y2413406D01*
X2040940Y2414828D01*
G37*
G36*
X2392070Y2414828D02*
G01*
X2391664Y2414422D01*
X2393950Y2412288D01*
X2393950Y2410815D01*
X2394966Y2408834D01*
X2395677Y2408834D01*
X2395321Y2412746D01*
X2394458Y2414117D01*
X2392883Y2414828D01*
G37*
G36*
X2174849Y2413508D02*
G01*
X2173935Y2412949D01*
X2174189Y2411374D01*
X2176373Y2411577D01*
X2176729Y2410206D01*
X2178202Y2410206D01*
X2178964Y2410968D01*
X2178304Y2412187D01*
X2175713Y2413508D01*
G37*
G36*
X2194509Y2413508D02*
G01*
X2192985Y2411933D01*
X2193645Y2410155D01*
X2195169Y2410358D01*
X2195372Y2411933D01*
X2194966Y2413508D01*
G37*
G36*
X2539949Y2413508D02*
G01*
X2539593Y2412949D01*
X2541066Y2410764D01*
X2542387Y2409901D01*
X2543251Y2410409D01*
X2542590Y2412136D01*
X2541117Y2413508D01*
G37*
G36*
X2055622Y2413254D02*
G01*
X2049627Y2411831D01*
X2047849Y2411831D01*
X2045207Y2413203D01*
X2044700Y2412746D01*
X2044700Y2410358D01*
X2045106Y2408783D01*
X2047341Y2409240D01*
X2046986Y2408275D01*
X2043379Y2406345D01*
X2043379Y2405888D01*
X2046579Y2405888D01*
X2057196Y2406904D01*
X2065883Y2408885D01*
X2068677Y2410256D01*
X2068677Y2411526D01*
X2066848Y2412238D01*
X2061362Y2411882D01*
X2051050Y2408224D01*
X2050034Y2408580D01*
X2050034Y2409494D01*
X2051761Y2410815D01*
X2055520Y2411882D01*
X2057857Y2413000D01*
G37*
G36*
X2181453Y2412187D02*
G01*
X2180996Y2411730D01*
X2180996Y2409901D01*
X2181402Y2408834D01*
X2182266Y2408834D01*
X2183079Y2409901D01*
X2182012Y2412187D01*
G37*
G36*
X2017420Y2410866D02*
G01*
X2017115Y2410358D01*
X2017623Y2408986D01*
X2018690Y2408123D01*
X2019350Y2408580D01*
X2019350Y2410053D01*
X2018588Y2410866D01*
G37*
G36*
X2109825Y2410866D02*
G01*
X2108860Y2410206D01*
X2110740Y2409545D01*
X2112365Y2409952D01*
X2112111Y2410714D01*
G37*
G36*
X2158695Y2410866D02*
G01*
X2158390Y2410358D01*
X2158949Y2408986D01*
X2159965Y2408123D01*
X2160676Y2408580D01*
X2160676Y2410053D01*
X2159863Y2410866D01*
G37*
G36*
X2389073Y2410866D02*
G01*
X2388616Y2410409D01*
X2388616Y2408936D01*
X2389581Y2408123D01*
X2390698Y2408377D01*
X2390952Y2409088D01*
X2389581Y2410866D01*
G37*
G36*
X1987194Y2409139D02*
G01*
X1986025Y2408834D01*
X1986025Y2408174D01*
X1988210Y2407259D01*
X2006193Y2405176D01*
X2018538Y2403246D01*
X2024888Y2402535D01*
X2038553Y2401519D01*
X2046325Y2400554D01*
X2048967Y2400554D01*
X2050034Y2400960D01*
X2050034Y2402179D01*
X2049221Y2402687D01*
X2043531Y2402840D01*
X2033879Y2404211D01*
X1997557Y2407818D01*
G37*
G36*
X2150160Y2409139D02*
G01*
X2149348Y2408783D01*
X2149348Y2407920D01*
X2150364Y2407107D01*
X2152700Y2408224D01*
X2152446Y2409037D01*
G37*
G36*
X2163724Y2408224D02*
G01*
X2162352Y2406497D01*
X2162759Y2405532D01*
X2163927Y2405532D01*
X2164740Y2406497D01*
X2164486Y2407970D01*
G37*
G36*
X2139188Y2405532D02*
G01*
X2138222Y2404922D01*
X2140051Y2404211D01*
X2141728Y2404618D01*
X2141474Y2405380D01*
G37*
G36*
X2254402Y2404211D02*
G01*
X2253996Y2403754D01*
X2253996Y2402281D01*
X2254961Y2401519D01*
X2256078Y2401722D01*
X2256332Y2402433D01*
X2254910Y2404211D01*
G37*
G36*
X2142947Y2402941D02*
G01*
X2143201Y2402027D01*
X2146503Y2400249D01*
X2151634Y2398217D01*
X2153666Y2398217D01*
X2153666Y2398826D01*
X2151380Y2400147D01*
X2145487Y2402484D01*
G37*
G36*
X2402382Y2402890D02*
G01*
X2401163Y2401570D01*
X2401570Y2400554D01*
X2402890Y2400554D01*
X2403957Y2400960D01*
X2403957Y2401773D01*
X2402738Y2402890D01*
G37*
G36*
X1988108Y2401570D02*
G01*
X1987346Y2400604D01*
X1987550Y2399436D01*
X1988312Y2399182D01*
X1990140Y2400757D01*
X1989683Y2401570D01*
G37*
G36*
X2054250Y2401570D02*
G01*
X2052218Y2401519D01*
X2051202Y2400909D01*
X2053183Y2399538D01*
X2055063Y2399538D01*
X2055469Y2400655D01*
G37*
G36*
X2057552Y2400554D02*
G01*
X2056536Y2399893D01*
X2057704Y2398979D01*
X2063343Y2398572D01*
X2066645Y2397861D01*
X2068525Y2398064D01*
X2068525Y2399030D01*
X2066747Y2399893D01*
X2063292Y2400554D01*
G37*
G36*
X2171344Y2398318D02*
G01*
X2171344Y2396947D01*
X2172157Y2396388D01*
X2174798Y2395728D01*
X2176170Y2393594D01*
X2176678Y2393594D01*
X2176678Y2394610D01*
X2175662Y2396490D01*
X2173681Y2397912D01*
G37*
G36*
X2383637Y2398268D02*
G01*
X2382266Y2396083D01*
X2382266Y2395220D01*
X2382875Y2395220D01*
X2384653Y2397302D01*
X2384399Y2398014D01*
G37*
G36*
X2155647Y2397201D02*
G01*
X2155647Y2396591D01*
X2159254Y2392984D01*
X2165146Y2390089D01*
X2169312Y2385923D01*
X2172665Y2379014D01*
X2173681Y2378202D01*
X2174748Y2378608D01*
X2174290Y2380437D01*
X2172563Y2383942D01*
X2166670Y2391054D01*
X2165858Y2393289D01*
X2162505Y2392883D01*
X2161082Y2394762D01*
X2156409Y2397201D01*
G37*
G36*
X2285085Y2397201D02*
G01*
X2284628Y2396794D01*
X2284628Y2394712D01*
X2285238Y2393746D01*
X2285949Y2395626D01*
X2285542Y2397201D01*
G37*
G36*
X2033727Y2394915D02*
G01*
X2028545Y2394864D01*
X2026208Y2394051D01*
X2026208Y2393086D01*
X2029206Y2392832D01*
X2033727Y2394305D01*
G37*
G36*
X2081834Y2394915D02*
G01*
X2080869Y2394254D01*
X2082749Y2393594D01*
X2084374Y2394000D01*
X2084120Y2394712D01*
G37*
G36*
X2177389Y2392273D02*
G01*
X2176678Y2390952D01*
X2176678Y2389073D01*
X2177288Y2388108D01*
X2178304Y2389428D01*
X2178710Y2390851D01*
X2178507Y2392070D01*
G37*
G36*
X2103780Y2391613D02*
G01*
X2103272Y2390902D01*
X2104085Y2389936D01*
X2107692Y2388565D01*
X2109673Y2388565D01*
X2109673Y2389225D01*
X2105507Y2391206D01*
G37*
G36*
X1987854Y2389225D02*
G01*
X1987397Y2388819D01*
X1987397Y2386736D01*
X1988007Y2385771D01*
X1988718Y2387650D01*
X1988312Y2389225D01*
G37*
G36*
X2180082Y2386939D02*
G01*
X2179269Y2385974D01*
X2179472Y2384856D01*
X2180640Y2384094D01*
X2181809Y2384856D01*
X2182063Y2385974D01*
X2181250Y2386939D01*
G37*
G36*
X2058466Y2386584D02*
G01*
X2058009Y2386126D01*
X2058060Y2384094D01*
X2058670Y2383129D01*
X2059381Y2384958D01*
X2058974Y2386584D01*
G37*
G36*
X2151329Y2385568D02*
G01*
X2151329Y2383790D01*
X2152599Y2381046D01*
X2155139Y2378964D01*
X2155393Y2379218D01*
X2153716Y2381453D01*
X2151634Y2385568D01*
G37*
G36*
X2154021Y2385568D02*
G01*
X2154021Y2384653D01*
X2157374Y2381859D01*
X2157730Y2382215D01*
X2155291Y2385212D01*
G37*
G36*
X2500833Y2381605D02*
G01*
X2497785Y2380284D01*
X2496566Y2379167D01*
X2496566Y2378760D01*
X2497175Y2377897D01*
X2498648Y2378354D01*
X2501239Y2380691D01*
X2501239Y2381605D01*
G37*
G36*
X2058365Y2380945D02*
G01*
X2058365Y2376932D01*
X2058974Y2376932D01*
X2059178Y2378760D01*
X2058974Y2380945D01*
G37*
G36*
X2419654Y2376932D02*
G01*
X2419299Y2375916D01*
X2419959Y2370785D01*
X2426055Y2344724D01*
X2426512Y2344724D01*
X2427427Y2347874D01*
X2427376Y2350922D01*
X2426309Y2353614D01*
X2427986Y2356815D01*
X2427986Y2358999D01*
X2427173Y2360015D01*
X2425344Y2359609D01*
X2424277Y2361133D01*
X2424277Y2363165D01*
X2425395Y2364740D01*
X2427986Y2367076D01*
X2427782Y2368804D01*
X2425852Y2369007D01*
X2425141Y2368296D01*
X2425090Y2365806D01*
X2423414Y2365603D01*
X2421534Y2367076D01*
X2422296Y2374849D01*
X2420518Y2376932D01*
G37*
G36*
X2154275Y2376474D02*
G01*
X2154732Y2374442D01*
X2155698Y2372969D01*
X2156714Y2372969D01*
X2156256Y2374442D01*
G37*
G36*
X2175256Y2376271D02*
G01*
X2175611Y2372918D01*
X2177440Y2369616D01*
X2178100Y2369616D01*
X2177694Y2372969D01*
X2175916Y2376271D01*
G37*
G36*
X2585313Y2376271D02*
G01*
X2581554Y2372258D01*
X2578201Y2366568D01*
X2574950Y2360168D01*
X2572308Y2353868D01*
X2570784Y2348992D01*
X2571445Y2348331D01*
X2573578Y2350871D01*
X2581554Y2366975D01*
X2583230Y2369616D01*
X2584246Y2369210D01*
X2584602Y2367686D01*
X2580894Y2360168D01*
X2577541Y2349957D01*
X2577134Y2346960D01*
X2578049Y2347214D01*
X2581148Y2353411D01*
X2583535Y2360472D01*
X2585262Y2367127D01*
X2585669Y2376271D01*
G37*
G36*
X2026462Y2374646D02*
G01*
X2026056Y2374188D01*
X2026056Y2372156D01*
X2026666Y2371140D01*
X2027377Y2373020D01*
X2026970Y2374646D01*
G37*
G36*
X2562707Y2373731D02*
G01*
X2560320Y2371648D01*
X2559507Y2369667D01*
X2559710Y2368600D01*
X2561590Y2370023D01*
X2562910Y2372664D01*
G37*
G36*
X2010511Y2373630D02*
G01*
X2009393Y2371699D01*
X2009393Y2369972D01*
X2010460Y2369515D01*
X2011375Y2370785D01*
X2011375Y2372563D01*
X2010968Y2373630D01*
G37*
G36*
X2495397Y2373630D02*
G01*
X2491740Y2370734D01*
X2485339Y2364130D01*
X2484577Y2362657D01*
X2485288Y2362657D01*
X2487625Y2364282D01*
X2491943Y2368042D01*
X2495905Y2372664D01*
X2495905Y2373630D01*
G37*
G36*
X2506421Y2373528D02*
G01*
X2504744Y2373071D01*
X2500731Y2371039D01*
X2493721Y2366416D01*
X2484424Y2359456D01*
X2480919Y2356256D01*
X2480919Y2355037D01*
X2481427Y2355037D01*
X2484526Y2356967D01*
X2497074Y2366416D01*
X2505760Y2372207D01*
X2506675Y2373325D01*
G37*
G36*
X2040991Y2372309D02*
G01*
X2040636Y2371344D01*
X2040889Y2369159D01*
X2042312Y2368905D01*
X2043074Y2370277D01*
X2042007Y2372309D01*
G37*
G36*
X2189429Y2372258D02*
G01*
X2186330Y2370328D01*
X2186330Y2369616D01*
X2187346Y2369616D01*
X2189327Y2370632D01*
X2189988Y2371902D01*
G37*
G36*
X2539339Y2370632D02*
G01*
X2538171Y2369312D01*
X2537815Y2365095D01*
X2538476Y2364638D01*
X2540000Y2368143D01*
X2540304Y2370632D01*
G37*
G36*
X2221077Y2369667D02*
G01*
X2219706Y2367940D01*
X2220061Y2366975D01*
X2221230Y2366975D01*
X2222042Y2367940D01*
X2221839Y2369413D01*
G37*
G36*
X2158339Y2368956D02*
G01*
X2157933Y2367991D01*
X2158339Y2366416D01*
X2160981Y2362454D01*
X2164283Y2359355D01*
X2165654Y2359355D01*
X2165654Y2359863D01*
X2164537Y2361488D01*
X2161082Y2365197D01*
X2160270Y2368143D01*
X2159609Y2368956D01*
G37*
G36*
X2177999Y2368296D02*
G01*
X2177999Y2367330D01*
X2182063Y2346553D01*
X2182418Y2340508D01*
X2183790Y2339898D01*
X2184247Y2338882D01*
X2188667Y2320950D01*
X2189937Y2312314D01*
X2190851Y2304338D01*
X2190800Y2280412D01*
X2189683Y2270353D01*
X2187956Y2260447D01*
X2185924Y2250795D01*
X2183993Y2245969D01*
X2182977Y2242058D01*
X2182977Y2239314D01*
X2183587Y2239314D01*
X2185263Y2243175D01*
X2187956Y2251557D01*
X2189988Y2259126D01*
X2191613Y2266746D01*
X2192324Y2273757D01*
X2192985Y2294026D01*
X2192375Y2309977D01*
X2190953Y2320594D01*
X2189937Y2326589D01*
X2186025Y2338578D01*
X2184044Y2346198D01*
X2179675Y2366772D01*
X2178659Y2368296D01*
G37*
G36*
X2149398Y2366975D02*
G01*
X2149094Y2366467D01*
X2149602Y2365146D01*
X2150668Y2364282D01*
X2151329Y2364689D01*
X2151329Y2366162D01*
X2150516Y2366975D01*
G37*
G36*
X2325420Y2365654D02*
G01*
X2323947Y2364587D01*
X2323947Y2363673D01*
X2325116Y2363673D01*
X2327300Y2364994D01*
X2327300Y2365654D01*
G37*
G36*
X2498344Y2364994D02*
G01*
X2495346Y2362708D01*
X2493213Y2359507D01*
X2493568Y2358034D01*
X2491435Y2358745D01*
X2490063Y2358847D01*
X2490317Y2357526D01*
X2490368Y2354173D01*
X2486609Y2346960D01*
X2486964Y2346350D01*
X2487879Y2346350D01*
X2489809Y2348026D01*
X2491689Y2352192D01*
X2493721Y2355189D01*
X2495905Y2357780D01*
X2495905Y2358999D01*
X2494940Y2358999D01*
X2494483Y2359710D01*
X2498902Y2364181D01*
X2498902Y2364994D01*
G37*
G36*
X2035149Y2364333D02*
G01*
X2034692Y2363876D01*
X2034692Y2362504D01*
X2036064Y2360320D01*
X2036724Y2360676D01*
X2036724Y2363012D01*
X2036013Y2364333D01*
G37*
G36*
X2010714Y2362301D02*
G01*
X2010765Y2360828D01*
X2011578Y2358542D01*
X2012391Y2358288D01*
X2012340Y2360828D01*
X2011375Y2362301D01*
G37*
G36*
X2555544Y2362301D02*
G01*
X2555544Y2358339D01*
X2556205Y2358339D01*
X2556408Y2360168D01*
X2556154Y2362301D01*
G37*
G36*
X1991309Y2358999D02*
G01*
X1991614Y2355697D01*
X1992731Y2354021D01*
X1994154Y2354021D01*
X1993696Y2356104D01*
X1991868Y2358999D01*
G37*
G36*
X2346756Y2358999D02*
G01*
X2345283Y2357983D01*
X2345283Y2357018D01*
X2346452Y2357018D01*
X2348636Y2358339D01*
X2348636Y2358999D01*
G37*
G36*
X2215794Y2357678D02*
G01*
X2214219Y2356002D01*
X2214981Y2354326D01*
X2216200Y2354326D01*
X2217369Y2355596D01*
X2217166Y2357526D01*
G37*
G36*
X2584958Y2355494D02*
G01*
X2582875Y2348687D01*
X2580792Y2344521D01*
X2573883Y2338070D01*
X2573883Y2336749D01*
X2574899Y2337104D01*
X2576322Y2339441D01*
X2577896Y2340457D01*
X2578912Y2340051D01*
X2578455Y2336393D01*
X2579217Y2336393D01*
X2580589Y2337917D01*
X2583180Y2343200D01*
X2585313Y2349550D01*
X2585618Y2354275D01*
G37*
G36*
X2206701Y2353665D02*
G01*
X2206396Y2353157D01*
X2206904Y2351836D01*
X2207971Y2350973D01*
X2208631Y2351379D01*
X2208631Y2352903D01*
X2207869Y2353665D01*
G37*
G36*
X2293366Y2353665D02*
G01*
X2292604Y2352700D01*
X2292807Y2351582D01*
X2293569Y2351328D01*
X2295398Y2352903D01*
X2294940Y2353665D01*
G37*
G36*
X2011222Y2352344D02*
G01*
X2010257Y2351735D01*
X2012086Y2351024D01*
X2013762Y2351430D01*
X2013508Y2352192D01*
G37*
G36*
X2171344Y2352344D02*
G01*
X2171344Y2351430D01*
X2174697Y2348636D01*
X2175052Y2348992D01*
X2172614Y2351938D01*
G37*
G36*
X2161336Y2351074D02*
G01*
X2159355Y2348941D01*
X2159355Y2347722D01*
X2160320Y2347722D01*
X2162708Y2350109D01*
X2162454Y2350871D01*
G37*
G36*
X2050135Y2350719D02*
G01*
X2049373Y2348992D01*
X2049373Y2345740D01*
X2050135Y2344064D01*
X2050694Y2344064D01*
X2051050Y2345537D01*
X2050846Y2350465D01*
G37*
G36*
X2189073Y2349703D02*
G01*
X2187702Y2347976D01*
X2188057Y2347010D01*
X2189226Y2347010D01*
X2190038Y2347976D01*
X2189835Y2349449D01*
G37*
G36*
X2003806Y2349347D02*
G01*
X2003399Y2348941D01*
X2003399Y2347163D01*
X2005482Y2342997D01*
X2005990Y2343556D01*
X2006142Y2348331D01*
X2005279Y2349347D01*
G37*
G36*
X2013712Y2348382D02*
G01*
X2012543Y2348331D01*
X2011629Y2347976D01*
X2010054Y2344521D01*
X2010054Y2341676D01*
X2011172Y2341880D01*
X2014118Y2347366D01*
G37*
G36*
X2041753Y2348382D02*
G01*
X2041296Y2347620D01*
X2040940Y2343454D01*
X2041753Y2340051D01*
X2042718Y2340051D01*
X2043379Y2341778D01*
X2043379Y2345893D01*
X2042668Y2348382D01*
G37*
G36*
X1994509Y2347722D02*
G01*
X1994052Y2347264D01*
X1994052Y2344216D01*
X1994763Y2341727D01*
X1995576Y2341727D01*
X1996389Y2342489D01*
X1996389Y2344572D01*
X1995322Y2347722D01*
G37*
G36*
X2028850Y2347010D02*
G01*
X2026869Y2345994D01*
X2025599Y2344877D01*
X2024684Y2342743D01*
X2024684Y2341067D01*
X2025345Y2340711D01*
X2028443Y2345385D01*
X2030018Y2346452D01*
X2030018Y2347010D01*
G37*
G36*
X2177897Y2346807D02*
G01*
X2178354Y2344877D01*
X2179828Y2342286D01*
X2180640Y2341981D01*
X2180640Y2343200D01*
X2178812Y2346502D01*
G37*
G36*
X2037740Y2344369D02*
G01*
X2036673Y2343302D01*
X2036876Y2341219D01*
X2038096Y2341016D01*
X2039366Y2342134D01*
X2039366Y2343556D01*
X2038553Y2344369D01*
G37*
G36*
X2190750Y2343048D02*
G01*
X2189937Y2342083D01*
X2190140Y2340965D01*
X2190902Y2340711D01*
X2192782Y2342286D01*
X2192274Y2343048D01*
G37*
G36*
X2413355Y2340406D02*
G01*
X2412542Y2339441D01*
X2412746Y2338273D01*
X2413508Y2338019D01*
X2415387Y2339594D01*
X2414879Y2340406D01*
G37*
G36*
X2193086Y2339086D02*
G01*
X2191715Y2337358D01*
X2192070Y2336393D01*
X2193239Y2336393D01*
X2194052Y2337358D01*
X2193848Y2338832D01*
G37*
G36*
X2506370Y2338374D02*
G01*
X2505913Y2337968D01*
X2505913Y2336342D01*
X2506929Y2334361D01*
X2508402Y2334564D01*
X2508605Y2336342D01*
X2507538Y2338374D01*
G37*
G36*
X2585059Y2338374D02*
G01*
X2583891Y2337714D01*
X2579116Y2331059D01*
X2579471Y2330704D01*
X2585567Y2337104D01*
X2585567Y2338374D01*
G37*
G36*
X2429357Y2337714D02*
G01*
X2428544Y2336749D01*
X2428748Y2335631D01*
X2429916Y2334920D01*
X2431084Y2335631D01*
X2431338Y2336749D01*
X2430526Y2337714D01*
G37*
G36*
X2226411Y2337409D02*
G01*
X2226005Y2336952D01*
X2226005Y2334920D01*
X2226614Y2333904D01*
X2227326Y2335784D01*
X2226919Y2337409D01*
G37*
G36*
X2312060Y2332431D02*
G01*
X2311247Y2331466D01*
X2311450Y2330297D01*
X2312212Y2330043D01*
X2314041Y2331618D01*
X2313584Y2332431D01*
G37*
G36*
X2397556Y2332431D02*
G01*
X2395118Y2332380D01*
X2393289Y2331364D01*
X2393289Y2330348D01*
X2395474Y2330704D01*
X2397963Y2331720D01*
G37*
G36*
X2161438Y2328418D02*
G01*
X2160625Y2327452D01*
X2160828Y2326335D01*
X2161590Y2326081D01*
X2163419Y2327656D01*
X2162962Y2328418D01*
G37*
G36*
X2174443Y2328418D02*
G01*
X2173274Y2327097D01*
X2173630Y2326081D01*
X2174951Y2326081D01*
X2176018Y2326487D01*
X2176018Y2327300D01*
X2174798Y2328418D01*
G37*
G36*
X2436012Y2328418D02*
G01*
X2435199Y2327452D01*
X2435402Y2326335D01*
X2436164Y2326081D01*
X2438044Y2327656D01*
X2437536Y2328418D01*
G37*
G36*
X2419654Y2327148D02*
G01*
X2418283Y2325370D01*
X2418689Y2324404D01*
X2419858Y2324404D01*
X2420670Y2325370D01*
X2420416Y2326894D01*
G37*
G36*
X2004110Y2327097D02*
G01*
X2003348Y2326132D01*
X2003552Y2324963D01*
X2004314Y2324709D01*
X2006142Y2326335D01*
X2005685Y2327097D01*
G37*
G36*
X2054199Y2325776D02*
G01*
X2052675Y2324709D01*
X2052675Y2323490D01*
X2053082Y2322423D01*
X2054453Y2322423D01*
X2056688Y2323846D01*
X2056688Y2324963D01*
X2055875Y2325776D01*
G37*
G36*
X2432608Y2325776D02*
G01*
X2431999Y2324608D01*
X2431237Y2321712D01*
X2431643Y2319782D01*
X2432202Y2319782D01*
X2432913Y2321915D01*
X2433320Y2325319D01*
G37*
G36*
X2394661Y2324404D02*
G01*
X2394356Y2323947D01*
X2394864Y2322576D01*
X2395931Y2321712D01*
X2396591Y2322118D01*
X2396591Y2323642D01*
X2395829Y2324404D01*
G37*
G36*
X2047189Y2323084D02*
G01*
X2046224Y2322474D01*
X2048103Y2321763D01*
X2049729Y2322169D01*
X2049475Y2322931D01*
G37*
G36*
X2040178Y2321763D02*
G01*
X2038654Y2320696D01*
X2038857Y2319274D01*
X2040889Y2319070D01*
X2042160Y2319985D01*
X2041702Y2321763D01*
G37*
G36*
X2420772Y2321407D02*
G01*
X2420010Y2321052D01*
X2421940Y2317394D01*
X2421940Y2315413D01*
X2422906Y2313127D01*
X2424277Y2313127D01*
X2424277Y2315311D01*
X2423363Y2320798D01*
X2423007Y2321153D01*
G37*
G36*
X2051151Y2320086D02*
G01*
X2050288Y2319528D01*
X2049729Y2314295D01*
X2049018Y2312314D01*
X2045665Y2309012D01*
X2042668Y2304186D01*
X2041347Y2300782D01*
X2042058Y2299512D01*
X2043684Y2299106D01*
X2044395Y2299563D01*
X2044395Y2300681D01*
X2045766Y2304796D01*
X2050948Y2313432D01*
X2052116Y2317546D01*
X2051659Y2319731D01*
G37*
G36*
X2033828Y2319121D02*
G01*
X2032609Y2318207D01*
X2033016Y2317140D01*
X2034539Y2317140D01*
X2036724Y2318461D01*
X2036318Y2319121D01*
G37*
G36*
X2240483Y2319121D02*
G01*
X2239518Y2318512D01*
X2241346Y2317800D01*
X2243023Y2318207D01*
X2242769Y2318969D01*
G37*
G36*
X2282393Y2318766D02*
G01*
X2281986Y2318359D01*
X2281986Y2316276D01*
X2282596Y2315311D01*
X2283307Y2317140D01*
X2282901Y2318766D01*
G37*
G36*
X2015185Y2313787D02*
G01*
X2014220Y2313178D01*
X2016099Y2312466D01*
X2017725Y2312873D01*
X2017471Y2313635D01*
G37*
G36*
X2250744Y2307132D02*
G01*
X2249932Y2306167D01*
X2250135Y2305050D01*
X2251303Y2304338D01*
X2252472Y2305050D01*
X2252726Y2306167D01*
X2251913Y2307132D01*
G37*
G36*
X1986737Y2300173D02*
G01*
X1986737Y2299563D01*
X1988566Y2299360D01*
X1990699Y2299563D01*
X1990699Y2300173D01*
G37*
G36*
X2426665Y2299157D02*
G01*
X2425852Y2298192D01*
X2426106Y2297074D01*
X2426868Y2296820D01*
X2428697Y2298395D01*
X2428240Y2299157D01*
G37*
G36*
X2040026Y2297836D02*
G01*
X2038705Y2292807D01*
X2031390Y2276551D01*
X2028647Y2268728D01*
X2027732Y2264714D01*
X2026361Y2255520D01*
X2024735Y2252421D01*
X2022652Y2245207D01*
X2020366Y2235200D01*
X2019604Y2229154D01*
X2020062Y2227986D01*
X2020722Y2228443D01*
X2023110Y2233168D01*
X2028037Y2244445D01*
X2028037Y2246020D01*
X2026513Y2245563D01*
X2025548Y2245512D01*
X2025751Y2246833D01*
X2026716Y2248255D01*
X2028545Y2249170D01*
X2028545Y2250795D01*
X2026056Y2250592D01*
X2026056Y2251608D01*
X2027986Y2253589D01*
X2029104Y2264359D01*
X2030120Y2267407D01*
X2031644Y2270099D01*
X2033066Y2275332D01*
X2035403Y2280412D01*
X2035911Y2283053D01*
X2037689Y2283256D01*
X2037689Y2285390D01*
X2041702Y2293670D01*
X2042109Y2296820D01*
X2041296Y2297836D01*
G37*
G36*
X2394661Y2296515D02*
G01*
X2394356Y2296007D01*
X2394864Y2294636D01*
X2395931Y2293772D01*
X2396591Y2294229D01*
X2396591Y2295702D01*
X2395829Y2296515D01*
G37*
G36*
X2399690Y2296160D02*
G01*
X2399284Y2295753D01*
X2399284Y2293670D01*
X2399893Y2292705D01*
X2400604Y2294585D01*
X2400198Y2296160D01*
G37*
G36*
X1986788Y2292502D02*
G01*
X1985975Y2291537D01*
X1986229Y2290419D01*
X1987397Y2289708D01*
X1988566Y2290419D01*
X1988769Y2291537D01*
X1987956Y2292502D01*
G37*
G36*
X1991106Y2291232D02*
G01*
X1990699Y2290572D01*
X1992884Y2288895D01*
X1996541Y2287219D01*
X1997405Y2287219D01*
X1997405Y2288184D01*
X1995220Y2289759D01*
X1993239Y2290775D01*
G37*
G36*
X2011222Y2291181D02*
G01*
X2010257Y2290572D01*
X2012086Y2289860D01*
X2013762Y2290267D01*
X2013508Y2291029D01*
G37*
G36*
X2071878Y2289962D02*
G01*
X2070760Y2288692D01*
X2070049Y2287270D01*
X2070455Y2286203D01*
X2071014Y2286203D01*
X2072081Y2288235D01*
G37*
G36*
X2002028Y2287219D02*
G01*
X2002028Y2286254D01*
X2006650Y2283561D01*
X2009698Y2282748D01*
X2010206Y2283256D01*
X2007920Y2285187D01*
X2003094Y2287219D01*
G37*
G36*
X1996135Y2285847D02*
G01*
X1993036Y2283866D01*
X1993036Y2283206D01*
X1994103Y2283206D01*
X1996033Y2284222D01*
X1996693Y2285492D01*
G37*
G36*
X2346299Y2285593D02*
G01*
X2344623Y2283917D01*
X2344623Y2282240D01*
X2345537Y2282240D01*
X2347315Y2284323D01*
X2347112Y2285339D01*
G37*
G36*
X2027224Y2284526D02*
G01*
X2026208Y2283917D01*
X2028088Y2283206D01*
X2029714Y2283612D01*
X2029510Y2284374D01*
G37*
G36*
X2011222Y2282952D02*
G01*
X2013559Y2280462D01*
X2020417Y2274214D01*
X2022957Y2274214D01*
X2025853Y2276348D01*
X2026361Y2277059D01*
X2026361Y2277872D01*
X2023872Y2279142D01*
G37*
G36*
X2421026Y2282901D02*
G01*
X2420620Y2282444D01*
X2420620Y2280412D01*
X2421229Y2279396D01*
X2421940Y2281275D01*
X2421534Y2282901D01*
G37*
G36*
X2373934Y2281224D02*
G01*
X2373934Y2280869D01*
X2375306Y2278227D01*
X2379573Y2273757D01*
X2380030Y2274214D01*
X2378303Y2277059D01*
X2375204Y2280564D01*
G37*
G36*
X2384958Y2280564D02*
G01*
X2384094Y2280513D01*
X2383282Y2280158D01*
X2383282Y2278634D01*
X2384501Y2277110D01*
X2385618Y2277516D01*
X2385618Y2278837D01*
G37*
G36*
X2408072Y2277516D02*
G01*
X2407361Y2277059D01*
X2406243Y2274925D01*
X2406294Y2273401D01*
X2406853Y2272538D01*
X2408275Y2274316D01*
X2408682Y2276500D01*
G37*
G36*
X1986381Y2274925D02*
G01*
X1986381Y2274316D01*
X1988464Y2272538D01*
X1989175Y2272792D01*
X1989429Y2273554D01*
X1987194Y2274925D01*
G37*
G36*
X2374747Y2274570D02*
G01*
X2374290Y2274112D01*
X2374290Y2273198D01*
X2375916Y2271572D01*
X2379014Y2271572D01*
X2378202Y2272538D01*
X2375154Y2274570D01*
G37*
G36*
X2044090Y2273909D02*
G01*
X2043785Y2273401D01*
X2044293Y2272080D01*
X2045360Y2271166D01*
X2046020Y2271623D01*
X2046020Y2273096D01*
X2045258Y2273909D01*
G37*
G36*
X2163724Y2272588D02*
G01*
X2162352Y2270861D01*
X2162759Y2269896D01*
X2163927Y2269896D01*
X2164740Y2270861D01*
X2164486Y2272334D01*
G37*
G36*
X1993900Y2271826D02*
G01*
X1992071Y2271166D01*
X1992071Y2270607D01*
X1993747Y2268626D01*
X1996846Y2267153D01*
X2000453Y2266289D01*
X2001367Y2266645D01*
X2001367Y2267559D01*
X1999894Y2268524D01*
X1998014Y2268931D01*
X1995525Y2271217D01*
G37*
G36*
X2023211Y2271268D02*
G01*
X2022246Y2270607D01*
X2024075Y2269896D01*
X2025751Y2270302D01*
X2025497Y2271064D01*
G37*
G36*
X2396032Y2271268D02*
G01*
X2395220Y2270302D01*
X2395423Y2269134D01*
X2396185Y2268880D01*
X2398064Y2270455D01*
X2397556Y2271268D01*
G37*
G36*
X2167077Y2265984D02*
G01*
X2165400Y2263749D01*
X2163978Y2259634D01*
X2164029Y2257806D01*
X2165553Y2259634D01*
X2167636Y2263749D01*
X2167839Y2265680D01*
G37*
G36*
X2002739Y2264613D02*
G01*
X2002485Y2264105D01*
X2002993Y2262733D01*
X2004009Y2261870D01*
X2004720Y2262327D01*
X2004720Y2263800D01*
X2003907Y2264613D01*
G37*
G36*
X2092502Y2264613D02*
G01*
X2091537Y2263952D01*
X2093417Y2263292D01*
X2095042Y2263698D01*
X2094788Y2264410D01*
G37*
G36*
X2154732Y2263292D02*
G01*
X2154428Y2262784D01*
X2154936Y2261412D01*
X2155952Y2260549D01*
X2156663Y2260955D01*
X2156663Y2262479D01*
X2155850Y2263292D01*
G37*
G36*
X2170430Y2263292D02*
G01*
X2169058Y2261565D01*
X2169414Y2260600D01*
X2170582Y2260600D01*
X2171395Y2261565D01*
X2171192Y2263038D01*
G37*
G36*
X2266238Y2262124D02*
G01*
X2266696Y2260092D01*
X2267661Y2258618D01*
X2268677Y2258618D01*
X2268220Y2260092D01*
G37*
G36*
X2344013Y2260396D02*
G01*
X2342337Y2258720D01*
X2340914Y2255875D01*
X2341270Y2255520D01*
X2343658Y2257806D01*
X2344572Y2259482D01*
G37*
G36*
X2181402Y2258720D02*
G01*
X2180234Y2256942D01*
X2179929Y2250795D01*
X2180996Y2249474D01*
X2181910Y2250643D01*
X2182723Y2254605D01*
X2182317Y2257552D01*
G37*
G36*
X2154428Y2257958D02*
G01*
X2153259Y2256637D01*
X2153716Y2254910D01*
X2155291Y2253284D01*
X2156002Y2253284D01*
X2156002Y2254148D01*
X2154986Y2257602D01*
G37*
G36*
X2006752Y2256637D02*
G01*
X2006447Y2256129D01*
X2006955Y2254758D01*
X2008022Y2253894D01*
X2008733Y2254351D01*
X2008733Y2255824D01*
X2007920Y2256637D01*
G37*
G36*
X1995068Y2256028D02*
G01*
X1995068Y2255266D01*
X1995728Y2253996D01*
X1997964Y2252624D01*
X1999945Y2252624D01*
X2000859Y2253691D01*
X2000148Y2254808D01*
X1997862Y2255520D01*
G37*
G36*
X2301392Y2252624D02*
G01*
X2298293Y2250643D01*
X2298293Y2249982D01*
X2299309Y2249982D01*
X2301290Y2250998D01*
X2301951Y2252268D01*
G37*
G36*
X2007362Y2251964D02*
G01*
X2007362Y2250592D01*
X2008327Y2248814D01*
X2010562Y2246731D01*
X2012746Y2245614D01*
X2014880Y2245817D01*
X2015083Y2246884D01*
X2013051Y2247290D01*
X2008124Y2251964D01*
G37*
G36*
X2413050Y2251303D02*
G01*
X2412593Y2250846D01*
X2412593Y2249373D01*
X2413558Y2248611D01*
X2414727Y2248814D01*
X2414930Y2249525D01*
X2413558Y2251303D01*
G37*
G36*
X2170480Y2249982D02*
G01*
X2168448Y2248712D01*
X2166975Y2246884D01*
X2166975Y2245969D01*
X2167686Y2245969D01*
X2170328Y2247341D01*
X2171395Y2248966D01*
X2171039Y2249982D01*
G37*
G36*
X2191308Y2249982D02*
G01*
X2191308Y2248103D01*
X2192375Y2246630D01*
X2193340Y2246630D01*
X2193340Y2247798D01*
X2192020Y2249982D01*
G37*
G36*
X2274722Y2249982D02*
G01*
X2273909Y2249017D01*
X2274163Y2247849D01*
X2274874Y2247595D01*
X2276754Y2249220D01*
X2276246Y2249982D01*
G37*
G36*
X2422702Y2249982D02*
G01*
X2421890Y2249017D01*
X2422093Y2247849D01*
X2422855Y2247595D01*
X2424684Y2249220D01*
X2424226Y2249982D01*
G37*
G36*
X2177694Y2246630D02*
G01*
X2177288Y2245969D01*
X2177643Y2244445D01*
X2179370Y2243632D01*
X2177034Y2239924D01*
X2177389Y2239314D01*
X2178558Y2239314D01*
X2180336Y2240991D01*
X2180336Y2243785D01*
X2178913Y2246630D01*
G37*
G36*
X2150719Y2245969D02*
G01*
X2150414Y2245512D01*
X2150922Y2244140D01*
X2151989Y2243277D01*
X2152650Y2243683D01*
X2152650Y2245207D01*
X2151888Y2245969D01*
G37*
G36*
X2166467Y2244344D02*
G01*
X2166010Y2243886D01*
X2166010Y2241804D01*
X2166620Y2240838D01*
X2167331Y2242718D01*
X2166924Y2244344D01*
G37*
G36*
X2417064Y2242972D02*
G01*
X2416606Y2242566D01*
X2416606Y2240483D01*
X2417216Y2239518D01*
X2417927Y2241397D01*
X2417521Y2242972D01*
G37*
G36*
X2413101Y2240737D02*
G01*
X2412034Y2239518D01*
X2411272Y2238044D01*
X2411679Y2237028D01*
X2412238Y2237028D01*
X2413304Y2239060D01*
G37*
G36*
X2173122Y2239314D02*
G01*
X2172665Y2238908D01*
X2172665Y2236470D01*
X2173579Y2235250D01*
X2174646Y2235657D01*
X2174646Y2237181D01*
X2173325Y2239314D01*
G37*
G36*
X2441448Y2238654D02*
G01*
X2439670Y2237689D01*
X2438552Y2236012D01*
X2438958Y2235352D01*
X2439873Y2235352D01*
X2441905Y2237384D01*
X2441905Y2238654D01*
G37*
G36*
X2386431Y2238146D02*
G01*
X2384958Y2236571D01*
X2384958Y2234946D01*
X2385618Y2233676D01*
X2386533Y2233676D01*
X2386838Y2235250D01*
G37*
G36*
X2168499Y2237994D02*
G01*
X2166823Y2237181D01*
X2166620Y2236012D01*
X2168042Y2233015D01*
X2168702Y2233015D01*
X2168296Y2233676D01*
X2168245Y2236470D01*
X2170176Y2237994D01*
G37*
G36*
X2181098Y2237689D02*
G01*
X2180640Y2237232D01*
X2180691Y2235200D01*
X2181301Y2234184D01*
X2182012Y2236063D01*
X2181606Y2237689D01*
G37*
G36*
X1997049Y2236673D02*
G01*
X1997049Y2236063D01*
X1998827Y2234692D01*
X2001367Y2233930D01*
X2001824Y2234336D01*
X2000859Y2235454D01*
X1998218Y2236673D01*
G37*
G36*
X2185365Y2234692D02*
G01*
X2184908Y2233980D01*
X2185365Y2231694D01*
X2186025Y2231339D01*
X2187346Y2231745D01*
X2187346Y2233218D01*
X2186279Y2234692D01*
G37*
G36*
X2173071Y2233676D02*
G01*
X2170988Y2230424D01*
X2170379Y2228342D01*
X2170734Y2227376D01*
X2171192Y2227376D01*
X2172716Y2228443D01*
X2173986Y2231186D01*
X2173986Y2233676D01*
G37*
G36*
X2386330Y2231034D02*
G01*
X2385872Y2230323D01*
X2386279Y2228697D01*
X2387904Y2227630D01*
X2388616Y2228088D01*
X2388616Y2229408D01*
X2386990Y2231034D01*
G37*
D10*
X825500Y3212084D02*
G01*
X825500Y3068828D01*
X825500Y3212084D02*
G01*
X873252Y3212084D01*
X893571Y3205226D01*
X907287Y3191510D01*
X914145Y3178047D01*
X921004Y3157473D01*
X921004Y3123437D01*
X914145Y3102863D01*
X907287Y3089402D01*
X893571Y3075686D01*
X873252Y3068828D01*
X825500Y3068828D01*
X965962Y3123437D02*
G01*
X1047750Y3123437D01*
X1047750Y3137154D01*
X1040892Y3150615D01*
X1034034Y3157473D01*
X1020571Y3164331D01*
X999997Y3164331D01*
X986281Y3157473D01*
X972820Y3143757D01*
X965962Y3123437D01*
X965962Y3109721D01*
X972820Y3089402D01*
X986281Y3075686D01*
X999997Y3068828D01*
X1020571Y3068828D01*
X1034034Y3075686D01*
X1047750Y3089402D01*
X1167892Y3143757D02*
G01*
X1161034Y3157473D01*
X1140460Y3164331D01*
X1120139Y3164331D01*
X1099565Y3157473D01*
X1092707Y3143757D01*
X1099565Y3130295D01*
X1113281Y3123437D01*
X1147318Y3116579D01*
X1161034Y3109721D01*
X1167892Y3096260D01*
X1167892Y3089402D01*
X1161034Y3075686D01*
X1140460Y3068828D01*
X1120139Y3068828D01*
X1099565Y3075686D01*
X1092707Y3089402D01*
X1212850Y3212084D02*
G01*
X1219707Y3205226D01*
X1226312Y3212084D01*
X1219707Y3218942D01*
X1212850Y3212084D01*
X1219707Y3164331D02*
G01*
X1219707Y3068828D01*
X1353312Y3164331D02*
G01*
X1353312Y3055365D01*
X1346454Y3034792D01*
X1339595Y3027934D01*
X1325879Y3021076D01*
X1305560Y3021076D01*
X1291844Y3027934D01*
X1353312Y3143757D02*
G01*
X1339595Y3157473D01*
X1325879Y3164331D01*
X1305560Y3164331D01*
X1291844Y3157473D01*
X1278128Y3143757D01*
X1271523Y3123437D01*
X1271523Y3109721D01*
X1278128Y3089402D01*
X1291844Y3075686D01*
X1305560Y3068828D01*
X1325879Y3068828D01*
X1339595Y3075686D01*
X1353312Y3089402D01*
X1398270Y3164331D02*
G01*
X1398270Y3068828D01*
X1398270Y3137154D02*
G01*
X1418589Y3157473D01*
X1432305Y3164331D01*
X1452879Y3164331D01*
X1466342Y3157473D01*
X1473200Y3137154D01*
X1473200Y3068828D01*
X1518157Y3123437D02*
G01*
X1599945Y3123437D01*
X1599945Y3137154D01*
X1593342Y3150615D01*
X1586484Y3157473D01*
X1572768Y3164331D01*
X1552194Y3164331D01*
X1538731Y3157473D01*
X1525015Y3143757D01*
X1518157Y3123437D01*
X1518157Y3109721D01*
X1525015Y3089402D01*
X1538731Y3075686D01*
X1552194Y3068828D01*
X1572768Y3068828D01*
X1586484Y3075686D01*
X1599945Y3089402D01*
X1726945Y3212084D02*
G01*
X1726945Y3068828D01*
X1726945Y3143757D02*
G01*
X1713229Y3157473D01*
X1699513Y3164331D01*
X1679194Y3164331D01*
X1665478Y3157473D01*
X1651762Y3143757D01*
X1645157Y3123437D01*
X1645157Y3109721D01*
X1651762Y3089402D01*
X1665478Y3075686D01*
X1679194Y3068828D01*
X1699513Y3068828D01*
X1713229Y3075686D01*
X1726945Y3089402D01*
X1876805Y3212084D02*
G01*
X1876805Y3068828D01*
X1876805Y3143757D02*
G01*
X1890521Y3157473D01*
X1904237Y3164331D01*
X1924557Y3164331D01*
X1938274Y3157473D01*
X1951736Y3143757D01*
X1958593Y3123437D01*
X1958593Y3109721D01*
X1951736Y3089402D01*
X1938274Y3075686D01*
X1924557Y3068828D01*
X1904237Y3068828D01*
X1890521Y3075686D01*
X1876805Y3089402D01*
X2010409Y3164331D02*
G01*
X2051304Y3068828D01*
X2092197Y3164331D02*
G01*
X2051304Y3068828D01*
X2037841Y3041650D01*
X2024125Y3027934D01*
X2010409Y3021076D01*
X2003806Y3021076D01*
X2144013Y3150615D02*
G01*
X2137409Y3143757D01*
X2144013Y3137154D01*
X2150872Y3143757D01*
X2144013Y3150615D01*
X2144013Y3102863D02*
G01*
X2137409Y3096260D01*
X2144013Y3089402D01*
X2150872Y3096260D01*
X2144013Y3102863D01*
X825500Y2996184D02*
G01*
X825500Y2852928D01*
X825500Y2852928D02*
G01*
X907287Y2852928D01*
X1034034Y2948431D02*
G01*
X1034034Y2852928D01*
X1034034Y2927857D02*
G01*
X1020571Y2941573D01*
X1006855Y2948431D01*
X986281Y2948431D01*
X972820Y2941573D01*
X959104Y2927857D01*
X952245Y2907537D01*
X952245Y2893821D01*
X959104Y2873502D01*
X972820Y2859786D01*
X986281Y2852928D01*
X1006855Y2852928D01*
X1020571Y2859786D01*
X1034034Y2873502D01*
X1079245Y2948431D02*
G01*
X1079245Y2880360D01*
X1085850Y2859786D01*
X1099565Y2852928D01*
X1120139Y2852928D01*
X1133602Y2859786D01*
X1154176Y2880360D01*
X1154176Y2948431D02*
G01*
X1154176Y2852928D01*
X1199134Y2948431D02*
G01*
X1199134Y2852928D01*
X1199134Y2907537D02*
G01*
X1205992Y2927857D01*
X1219707Y2941573D01*
X1233170Y2948431D01*
X1253744Y2948431D01*
X1298702Y2907537D02*
G01*
X1380489Y2907537D01*
X1380489Y2921254D01*
X1373631Y2934715D01*
X1366773Y2941573D01*
X1353312Y2948431D01*
X1332737Y2948431D01*
X1319021Y2941573D01*
X1305560Y2927857D01*
X1298702Y2907537D01*
X1298702Y2893821D01*
X1305560Y2873502D01*
X1319021Y2859786D01*
X1332737Y2852928D01*
X1353312Y2852928D01*
X1366773Y2859786D01*
X1380489Y2873502D01*
X1425447Y2948431D02*
G01*
X1425447Y2852928D01*
X1425447Y2921254D02*
G01*
X1446021Y2941573D01*
X1459484Y2948431D01*
X1480057Y2948431D01*
X1493773Y2941573D01*
X1500378Y2921254D01*
X1500378Y2852928D01*
X1565910Y2996184D02*
G01*
X1565910Y2880360D01*
X1572768Y2859786D01*
X1586484Y2852928D01*
X1599945Y2852928D01*
X1545589Y2948431D02*
G01*
X1593342Y2948431D01*
X1845563Y2975610D02*
G01*
X1831847Y2989326D01*
X1811528Y2996184D01*
X1784095Y2996184D01*
X1763776Y2989326D01*
X1750060Y2975610D01*
X1750060Y2962147D01*
X1756918Y2948431D01*
X1763776Y2941573D01*
X1777237Y2934715D01*
X1818131Y2921254D01*
X1831847Y2914395D01*
X1838705Y2907537D01*
X1845563Y2893821D01*
X1845563Y2873502D01*
X1831847Y2859786D01*
X1811528Y2852928D01*
X1784095Y2852928D01*
X1763776Y2859786D01*
X1750060Y2873502D01*
X1972309Y2948431D02*
G01*
X1972309Y2852928D01*
X1972309Y2927857D02*
G01*
X1958593Y2941573D01*
X1945131Y2948431D01*
X1924557Y2948431D01*
X1910842Y2941573D01*
X1897379Y2927857D01*
X1890521Y2907537D01*
X1890521Y2893821D01*
X1897379Y2873502D01*
X1910842Y2859786D01*
X1924557Y2852928D01*
X1945131Y2852928D01*
X1958593Y2859786D01*
X1972309Y2873502D01*
X2017268Y2948431D02*
G01*
X2017268Y2852928D01*
X2017268Y2921254D02*
G01*
X2037841Y2941573D01*
X2051304Y2948431D01*
X2071877Y2948431D01*
X2085593Y2941573D01*
X2092197Y2921254D01*
X2092197Y2852928D01*
X2219197Y2996184D02*
G01*
X2219197Y2852928D01*
X2219197Y2927857D02*
G01*
X2205481Y2941573D01*
X2191765Y2948431D01*
X2171445Y2948431D01*
X2157729Y2941573D01*
X2144013Y2927857D01*
X2137409Y2907537D01*
X2137409Y2893821D01*
X2144013Y2873502D01*
X2157729Y2859786D01*
X2171445Y2852928D01*
X2191765Y2852928D01*
X2205481Y2859786D01*
X2219197Y2873502D01*
X2264156Y2996184D02*
G01*
X2264156Y2852928D01*
X2309113Y2907537D02*
G01*
X2390902Y2907537D01*
X2390902Y2921254D01*
X2384043Y2934715D01*
X2377440Y2941573D01*
X2363724Y2948431D01*
X2343150Y2948431D01*
X2329688Y2941573D01*
X2315972Y2927857D01*
X2309113Y2907537D01*
X2309113Y2893821D01*
X2315972Y2873502D01*
X2329688Y2859786D01*
X2343150Y2852928D01*
X2363724Y2852928D01*
X2377440Y2859786D01*
X2390902Y2873502D01*
X2435859Y2948431D02*
G01*
X2435859Y2852928D01*
X2435859Y2907537D02*
G01*
X2442718Y2927857D01*
X2456434Y2941573D01*
X2470150Y2948431D01*
X2490470Y2948431D01*
D11*
X3505200Y722884D02*
G01*
X3505200Y800862D01*
X3500120Y816355D01*
X3489706Y826770D01*
X3473958Y831850D01*
X3463543Y831850D01*
X3448050Y826770D01*
X3437636Y816355D01*
X3432556Y800862D01*
X3432556Y722884D01*
X3398265Y743712D02*
G01*
X3387852Y738378D01*
X3372104Y722884D01*
X3372104Y831850D01*
D12*
X3513881Y2500363D02*
G01*
X3513881Y2557513D01*
X3532931Y2500363D02*
G01*
X3494577Y2500363D01*
X3476797Y2500363D02*
G01*
X3476797Y2557513D01*
X3438443Y2500363D02*
G01*
X3438443Y2557513D01*
X3476797Y2527541D02*
G01*
X3438443Y2527541D01*
X3420409Y2500363D02*
G01*
X3420409Y2557513D01*
X3420409Y2500363D02*
G01*
X3385103Y2500363D01*
X3420409Y2527541D02*
G01*
X3398565Y2527541D01*
X3420409Y2557513D02*
G01*
X3385103Y2557513D01*
X3367069Y2500363D02*
G01*
X3367069Y2557513D01*
X3367069Y2500363D02*
G01*
X3342431Y2500363D01*
X3334303Y2503157D01*
X3331509Y2505697D01*
X3328969Y2511285D01*
X3328969Y2516619D01*
X3331509Y2522207D01*
X3334303Y2525001D01*
X3342431Y2527541D01*
X3367069Y2527541D01*
X3348019Y2527541D02*
G01*
X3328969Y2557513D01*
X3310935Y2500363D02*
G01*
X3310935Y2557513D01*
X3310935Y2500363D02*
G01*
X3289091Y2557513D01*
X3267247Y2500363D02*
G01*
X3289091Y2557513D01*
X3267247Y2500363D02*
G01*
X3267247Y2557513D01*
X3227369Y2500363D02*
G01*
X3249213Y2557513D01*
X3227369Y2500363D02*
G01*
X3205525Y2557513D01*
X3241085Y2538463D02*
G01*
X3213653Y2538463D01*
X3187491Y2500363D02*
G01*
X3187491Y2557513D01*
X3187491Y2557513D02*
G01*
X3154979Y2557513D01*
X4006400Y1723247D02*
G01*
X4006400Y1770999D01*
X4006400Y1723247D02*
G01*
X3985826Y1723247D01*
X3979222Y1725533D01*
X3976936Y1727819D01*
X3974650Y1732391D01*
X3974650Y1736963D01*
X3976936Y1741535D01*
X3979222Y1743821D01*
X3985826Y1746107D01*
X4006400Y1746107D02*
G01*
X3985826Y1746107D01*
X3979222Y1748393D01*
X3976936Y1750679D01*
X3974650Y1755251D01*
X3974650Y1761855D01*
X3976936Y1766427D01*
X3979222Y1768713D01*
X3985826Y1770999D01*
X4006400Y1770999D01*
X3941376Y1723247D02*
G01*
X3959664Y1770999D01*
X3941376Y1723247D02*
G01*
X3923342Y1770999D01*
X3952806Y1755251D02*
G01*
X3929946Y1755251D01*
X3892354Y1723247D02*
G01*
X3892354Y1770999D01*
X3908102Y1723247D02*
G01*
X3876352Y1723247D01*
X3861366Y1750679D02*
G01*
X3820472Y1750679D01*
X3996494Y2153269D02*
G01*
X3996494Y2201021D01*
X3996494Y2153269D02*
G01*
X3975920Y2153269D01*
X3969062Y2155555D01*
X3966776Y2157841D01*
X3964490Y2162413D01*
X3964490Y2166985D01*
X3966776Y2171557D01*
X3969062Y2173843D01*
X3975920Y2176129D01*
X3996494Y2176129D02*
G01*
X3975920Y2176129D01*
X3969062Y2178415D01*
X3966776Y2180701D01*
X3964490Y2185273D01*
X3964490Y2191877D01*
X3966776Y2196449D01*
X3969062Y2198735D01*
X3975920Y2201021D01*
X3996494Y2201021D01*
X3931470Y2153269D02*
G01*
X3949504Y2201021D01*
X3931470Y2153269D02*
G01*
X3913182Y2201021D01*
X3942646Y2185273D02*
G01*
X3920040Y2185273D01*
X3882194Y2153269D02*
G01*
X3882194Y2201021D01*
X3898196Y2153269D02*
G01*
X3866446Y2153269D01*
X3830886Y2160127D02*
G01*
X3830886Y2201021D01*
X3851460Y2180701D02*
G01*
X3810566Y2180701D01*
X3646373Y2083219D02*
G01*
X3646373Y2140623D01*
X3646373Y2083219D02*
G01*
X3627323Y2083219D01*
X3619195Y2086013D01*
X3613607Y2091347D01*
X3611067Y2096935D01*
X3608273Y2105063D01*
X3608273Y2118779D01*
X3611067Y2126907D01*
X3613607Y2132241D01*
X3619195Y2137829D01*
X3627323Y2140623D01*
X3646373Y2140623D01*
X3590239Y2115985D02*
G01*
X3541217Y2115985D01*
X3382741Y2080313D02*
G01*
X3382741Y2137717D01*
X3382741Y2080313D02*
G01*
X3363691Y2080313D01*
X3355563Y2083107D01*
X3350229Y2088441D01*
X3347435Y2094029D01*
X3344641Y2102157D01*
X3344641Y2115873D01*
X3347435Y2124001D01*
X3350229Y2129335D01*
X3355563Y2134923D01*
X3363691Y2137717D01*
X3382741Y2137717D01*
X3302223Y2088441D02*
G01*
X3302223Y2137717D01*
X3326607Y2113079D02*
G01*
X3277585Y2113079D01*
X3442901Y1820311D02*
G01*
X3442901Y1877715D01*
X3442901Y1820311D02*
G01*
X3421057Y1877715D01*
X3399213Y1820311D02*
G01*
X3421057Y1877715D01*
X3399213Y1820311D02*
G01*
X3399213Y1877715D01*
X3362129Y1820311D02*
G01*
X3362129Y1877715D01*
X3381179Y1820311D02*
G01*
X3343079Y1820311D01*
X3284151Y1834027D02*
G01*
X3286945Y1828439D01*
X3292279Y1823105D01*
X3297867Y1820311D01*
X3308789Y1820311D01*
X3314123Y1823105D01*
X3319457Y1828439D01*
X3322251Y1834027D01*
X3325045Y1842155D01*
X3325045Y1855871D01*
X3322251Y1863999D01*
X3319457Y1869333D01*
X3314123Y1874921D01*
X3308789Y1877715D01*
X3297867Y1877715D01*
X3292279Y1874921D01*
X3286945Y1869333D01*
X3284151Y1863999D01*
X3266117Y1820311D02*
G01*
X3266117Y1877715D01*
X3228017Y1820311D02*
G01*
X3266117Y1858411D01*
X3252401Y1844949D02*
G01*
X3228017Y1877715D01*
X3719355Y1817392D02*
G01*
X3719355Y1874796D01*
X3719355Y1817392D02*
G01*
X3697511Y1874796D01*
X3675667Y1817392D02*
G01*
X3697511Y1874796D01*
X3675667Y1817392D02*
G01*
X3675667Y1874796D01*
X3638583Y1817392D02*
G01*
X3638583Y1874796D01*
X3657633Y1817392D02*
G01*
X3619533Y1817392D01*
X3601499Y1817392D02*
G01*
X3601499Y1874796D01*
X3601499Y1817392D02*
G01*
X3579655Y1874796D01*
X3557811Y1817392D02*
G01*
X3579655Y1874796D01*
X3557811Y1817392D02*
G01*
X3557811Y1874796D01*
X3501677Y1825520D02*
G01*
X3507011Y1820186D01*
X3515393Y1817392D01*
X3526315Y1817392D01*
X3534443Y1820186D01*
X3539777Y1825520D01*
X3539777Y1831108D01*
X3537237Y1836442D01*
X3534443Y1839236D01*
X3528855Y1842030D01*
X3512599Y1847364D01*
X3507011Y1850158D01*
X3504471Y1852952D01*
X3501677Y1858286D01*
X3501677Y1866414D01*
X3507011Y1872002D01*
X3515393Y1874796D01*
X3526315Y1874796D01*
X3534443Y1872002D01*
X3539777Y1866414D01*
X3412007Y1343959D02*
G01*
X3414547Y1338625D01*
X3420135Y1333037D01*
X3425469Y1330243D01*
X3436391Y1330243D01*
X3441979Y1333037D01*
X3447313Y1338625D01*
X3450107Y1343959D01*
X3452901Y1352087D01*
X3452901Y1365803D01*
X3450107Y1373931D01*
X3447313Y1379519D01*
X3441979Y1384853D01*
X3436391Y1387647D01*
X3425469Y1387647D01*
X3420135Y1384853D01*
X3414547Y1379519D01*
X3412007Y1373931D01*
X3412007Y1365803D01*
X3425469Y1365803D02*
G01*
X3412007Y1365803D01*
X3393973Y1330243D02*
G01*
X3393973Y1387647D01*
X3393973Y1330243D02*
G01*
X3355873Y1387647D01*
X3355873Y1330243D02*
G01*
X3355873Y1387647D01*
X3337839Y1330243D02*
G01*
X3337839Y1387647D01*
X3337839Y1330243D02*
G01*
X3318789Y1330243D01*
X3310407Y1333037D01*
X3305073Y1338625D01*
X3302279Y1343959D01*
X3299485Y1352087D01*
X3299485Y1365803D01*
X3302279Y1373931D01*
X3305073Y1379519D01*
X3310407Y1384853D01*
X3318789Y1387647D01*
X3337839Y1387647D01*
X3662895Y1330243D02*
G01*
X3662895Y1387647D01*
X3662895Y1330243D02*
G01*
X3627335Y1330243D01*
X3662895Y1357675D02*
G01*
X3641051Y1357675D01*
X3662895Y1387647D02*
G01*
X3627335Y1387647D01*
X3609301Y1330243D02*
G01*
X3609301Y1387647D01*
X3609301Y1330243D02*
G01*
X3571201Y1387647D01*
X3571201Y1330243D02*
G01*
X3571201Y1387647D01*
X3442901Y1080409D02*
G01*
X3442901Y1137559D01*
X3442901Y1080409D02*
G01*
X3421057Y1137559D01*
X3399213Y1080409D02*
G01*
X3421057Y1137559D01*
X3399213Y1080409D02*
G01*
X3399213Y1137559D01*
X3362129Y1080409D02*
G01*
X3362129Y1137559D01*
X3381179Y1080409D02*
G01*
X3343079Y1080409D01*
X3325045Y1080409D02*
G01*
X3325045Y1137559D01*
X3325045Y1080409D02*
G01*
X3305995Y1080409D01*
X3297867Y1082949D01*
X3292279Y1088537D01*
X3289485Y1093871D01*
X3286945Y1102253D01*
X3286945Y1115715D01*
X3289485Y1124097D01*
X3292279Y1129431D01*
X3297867Y1134765D01*
X3305995Y1137559D01*
X3325045Y1137559D01*
X3252401Y1080409D02*
G01*
X3257989Y1082949D01*
X3263323Y1088537D01*
X3266117Y1093871D01*
X3268911Y1102253D01*
X3268911Y1115715D01*
X3266117Y1124097D01*
X3263323Y1129431D01*
X3257989Y1134765D01*
X3252401Y1137559D01*
X3241479Y1137559D01*
X3236145Y1134765D01*
X3230557Y1129431D01*
X3228017Y1124097D01*
X3225223Y1115715D01*
X3225223Y1102253D01*
X3228017Y1093871D01*
X3230557Y1088537D01*
X3236145Y1082949D01*
X3241479Y1080409D01*
X3252401Y1080409D01*
X3692895Y1080409D02*
G01*
X3692895Y1137559D01*
X3692895Y1080409D02*
G01*
X3671051Y1137559D01*
X3649207Y1080409D02*
G01*
X3671051Y1137559D01*
X3649207Y1080409D02*
G01*
X3649207Y1137559D01*
X3612123Y1080409D02*
G01*
X3612123Y1137559D01*
X3631173Y1080409D02*
G01*
X3593073Y1080409D01*
X3575039Y1080409D02*
G01*
X3575039Y1137559D01*
X3575039Y1080409D02*
G01*
X3555989Y1080409D01*
X3547861Y1082949D01*
X3542273Y1088537D01*
X3539479Y1093871D01*
X3536939Y1102253D01*
X3536939Y1115715D01*
X3539479Y1124097D01*
X3542273Y1129431D01*
X3547861Y1134765D01*
X3555989Y1137559D01*
X3575039Y1137559D01*
X3518905Y1080409D02*
G01*
X3518905Y1137559D01*
D13*
X3762905Y2990413D02*
G01*
X3724551Y3047563D01*
X3724551Y2990413D02*
G01*
X3762905Y3047563D01*
X3706771Y2990413D02*
G01*
X3706771Y3047563D01*
X3666893Y2990413D02*
G01*
X3688737Y3047563D01*
X3666893Y2990413D02*
G01*
X3645049Y3047563D01*
X3680609Y3028513D02*
G01*
X3653177Y3028513D01*
X3610759Y2990413D02*
G01*
X3616093Y2992953D01*
X3621681Y2998541D01*
X3624221Y3003875D01*
X3627015Y3012257D01*
X3627015Y3025719D01*
X3624221Y3034101D01*
X3621681Y3039435D01*
X3616093Y3044769D01*
X3610759Y3047563D01*
X3599837Y3047563D01*
X3594249Y3044769D01*
X3588915Y3039435D01*
X3586121Y3034101D01*
X3583327Y3025719D01*
X3583327Y3012257D01*
X3586121Y3003875D01*
X3588915Y2998541D01*
X3594249Y2992953D01*
X3599837Y2990413D01*
X3610759Y2990413D01*
X3523383Y2990413D02*
G01*
X3523383Y3047563D01*
X3523383Y2990413D02*
G01*
X3487823Y2990413D01*
X3523383Y3017591D02*
G01*
X3501539Y3017591D01*
X3523383Y3047563D02*
G01*
X3487823Y3047563D01*
X3431689Y2998541D02*
G01*
X3437277Y2992953D01*
X3445405Y2990413D01*
X3456327Y2990413D01*
X3464455Y2992953D01*
X3470043Y2998541D01*
X3470043Y3003875D01*
X3467249Y3009463D01*
X3464455Y3012257D01*
X3459121Y3014797D01*
X3442611Y3020385D01*
X3437277Y3023179D01*
X3434483Y3025719D01*
X3431689Y3031307D01*
X3431689Y3039435D01*
X3437277Y3044769D01*
X3445405Y3047563D01*
X3456327Y3047563D01*
X3464455Y3044769D01*
X3470043Y3039435D01*
X3413655Y2990413D02*
G01*
X3413655Y3047563D01*
X3413655Y2990413D02*
G01*
X3389271Y2990413D01*
X3381143Y2992953D01*
X3378349Y2995747D01*
X3375555Y3001335D01*
X3375555Y3009463D01*
X3378349Y3014797D01*
X3381143Y3017591D01*
X3389271Y3020385D01*
X3413655Y3020385D01*
X3352187Y2990413D02*
G01*
X3322215Y2990413D01*
X3338471Y3012257D01*
X3330343Y3012257D01*
X3324755Y3014797D01*
X3322215Y3017591D01*
X3319421Y3025719D01*
X3319421Y3031307D01*
X3322215Y3039435D01*
X3327549Y3044769D01*
X3335677Y3047563D01*
X3344059Y3047563D01*
X3352187Y3044769D01*
X3354981Y3042229D01*
X3357521Y3036641D01*
X3298593Y3003875D02*
G01*
X3298593Y3001335D01*
X3296053Y2995747D01*
X3293259Y2992953D01*
X3287671Y2990413D01*
X3276749Y2990413D01*
X3271415Y2992953D01*
X3268621Y2995747D01*
X3265827Y3001335D01*
X3265827Y3006669D01*
X3268621Y3012257D01*
X3274209Y3020385D01*
X3301387Y3047563D01*
X3263287Y3047563D01*
X3207153Y2998541D02*
G01*
X3212487Y2992953D01*
X3220615Y2990413D01*
X3231537Y2990413D01*
X3239665Y2992953D01*
X3245253Y2998541D01*
X3245253Y3003875D01*
X3242459Y3009463D01*
X3239665Y3012257D01*
X3234331Y3014797D01*
X3217821Y3020385D01*
X3212487Y3023179D01*
X3209693Y3025719D01*
X3207153Y3031307D01*
X3207153Y3039435D01*
X3212487Y3044769D01*
X3220615Y3047563D01*
X3231537Y3047563D01*
X3239665Y3044769D01*
X3245253Y3039435D01*
X3183531Y2990413D02*
G01*
X3153559Y2990413D01*
X3170069Y3012257D01*
X3161687Y3012257D01*
X3156353Y3014797D01*
X3153559Y3017591D01*
X3150765Y3025719D01*
X3150765Y3031307D01*
X3153559Y3039435D01*
X3159147Y3044769D01*
X3167275Y3047563D01*
X3175403Y3047563D01*
X3183531Y3044769D01*
X3186325Y3042229D01*
X3189119Y3036641D01*
D14*
X3626457Y933185D02*
G01*
X3626457Y974079D01*
X3623663Y982461D01*
X3618329Y987795D01*
X3609947Y990589D01*
X3604613Y990589D01*
X3596485Y987795D01*
X3590897Y982461D01*
X3588103Y974079D01*
X3588103Y933185D01*
X3531969Y941313D02*
G01*
X3537557Y935979D01*
X3545685Y933185D01*
X3556607Y933185D01*
X3564735Y935979D01*
X3570323Y941313D01*
X3570323Y946901D01*
X3567529Y952235D01*
X3564735Y955029D01*
X3559401Y957823D01*
X3542891Y963157D01*
X3537557Y965951D01*
X3534763Y968745D01*
X3531969Y974079D01*
X3531969Y982461D01*
X3537557Y987795D01*
X3545685Y990589D01*
X3556607Y990589D01*
X3564735Y987795D01*
X3570323Y982461D01*
X3513935Y933185D02*
G01*
X3513935Y990589D01*
X3513935Y933185D02*
G01*
X3489551Y933185D01*
X3481423Y935979D01*
X3478629Y938773D01*
X3475835Y944107D01*
X3475835Y949695D01*
X3478629Y955029D01*
X3481423Y957823D01*
X3489551Y960617D01*
X3513935Y960617D02*
G01*
X3489551Y960617D01*
X3481423Y963157D01*
X3478629Y965951D01*
X3475835Y971539D01*
X3475835Y979667D01*
X3478629Y985001D01*
X3481423Y987795D01*
X3489551Y990589D01*
X3513935Y990589D01*
X3457801Y965951D02*
G01*
X3408779Y965951D01*
X3349851Y946901D02*
G01*
X3352645Y941313D01*
X3357979Y935979D01*
X3363567Y933185D01*
X3374489Y933185D01*
X3379823Y935979D01*
X3385411Y941313D01*
X3387951Y946901D01*
X3390745Y955029D01*
X3390745Y968745D01*
X3387951Y976873D01*
X3385411Y982461D01*
X3379823Y987795D01*
X3374489Y990589D01*
X3363567Y990589D01*
X3357979Y987795D01*
X3352645Y982461D01*
X3349851Y976873D01*
D11*
X2547543Y7567602D02*
G01*
X2547543Y7489624D01*
X2552623Y7474130D01*
X2563037Y7463716D01*
X2578785Y7458636D01*
X2589199Y7458636D01*
X2604693Y7463716D01*
X2615107Y7474130D01*
X2620187Y7489624D01*
X2620187Y7567602D01*
X2706547Y7567602D02*
G01*
X2654477Y7494958D01*
X2732455Y7494958D01*
X2706547Y7567602D02*
G01*
X2706547Y7458636D01*
X2142743Y3986021D02*
G01*
X2132329Y3996436D01*
X2116836Y4001515D01*
X2096008Y4001515D01*
X2080513Y3996436D01*
X2070100Y3986021D01*
X2070100Y3975607D01*
X2075179Y3965194D01*
X2080513Y3959860D01*
X2090927Y3954779D01*
X2122170Y3944365D01*
X2132329Y3939286D01*
X2137663Y3933952D01*
X2142743Y3923537D01*
X2142743Y3908044D01*
X2132329Y3897629D01*
X2116836Y3892550D01*
X2096008Y3892550D01*
X2080513Y3897629D01*
X2070100Y3908044D01*
X2177034Y4001515D02*
G01*
X2203195Y3892550D01*
X2229104Y4001515D02*
G01*
X2203195Y3892550D01*
X2229104Y4001515D02*
G01*
X2255011Y3892550D01*
X2280920Y4001515D02*
G01*
X2255011Y3892550D01*
X2315209Y3980687D02*
G01*
X2325624Y3986021D01*
X2341372Y4001515D01*
X2341372Y3892550D01*
X3933443Y3986021D02*
G01*
X3923029Y3996436D01*
X3907536Y4001515D01*
X3886708Y4001515D01*
X3871213Y3996436D01*
X3860800Y3986021D01*
X3860800Y3975607D01*
X3865879Y3965194D01*
X3871213Y3959860D01*
X3881627Y3954779D01*
X3912870Y3944365D01*
X3923029Y3939286D01*
X3928363Y3933952D01*
X3933443Y3923537D01*
X3933443Y3908044D01*
X3923029Y3897629D01*
X3907536Y3892550D01*
X3886708Y3892550D01*
X3871213Y3897629D01*
X3860800Y3908044D01*
X3967734Y4001515D02*
G01*
X3993895Y3892550D01*
X4019804Y4001515D02*
G01*
X3993895Y3892550D01*
X4019804Y4001515D02*
G01*
X4045711Y3892550D01*
X4071620Y4001515D02*
G01*
X4045711Y3892550D01*
X4111243Y3975607D02*
G01*
X4111243Y3980687D01*
X4116324Y3991102D01*
X4121658Y3996436D01*
X4132072Y4001515D01*
X4152900Y4001515D01*
X4163059Y3996436D01*
X4168393Y3991102D01*
X4173474Y3980687D01*
X4173474Y3970273D01*
X4168393Y3959860D01*
X4157979Y3944365D01*
X4105909Y3892550D01*
X4178808Y3892550D01*
X1279144Y3986021D02*
G01*
X1268729Y3996436D01*
X1253236Y4001515D01*
X1232407Y4001515D01*
X1216913Y3996436D01*
X1206500Y3986021D01*
X1206500Y3975607D01*
X1211579Y3965194D01*
X1216913Y3959860D01*
X1227328Y3954779D01*
X1258570Y3944365D01*
X1268729Y3939286D01*
X1274063Y3933952D01*
X1279144Y3923537D01*
X1279144Y3908044D01*
X1268729Y3897629D01*
X1253236Y3892550D01*
X1232407Y3892550D01*
X1216913Y3897629D01*
X1206500Y3908044D01*
X1313434Y4001515D02*
G01*
X1339595Y3892550D01*
X1365504Y4001515D02*
G01*
X1339595Y3892550D01*
X1365504Y4001515D02*
G01*
X1391412Y3892550D01*
X1417320Y4001515D02*
G01*
X1391412Y3892550D01*
X1462023Y4001515D02*
G01*
X1519173Y4001515D01*
X1488186Y3959860D01*
X1503679Y3959860D01*
X1514094Y3954779D01*
X1519173Y3949700D01*
X1524507Y3933952D01*
X1524507Y3923537D01*
X1519173Y3908044D01*
X1508760Y3897629D01*
X1493265Y3892550D01*
X1477771Y3892550D01*
X1462023Y3897629D01*
X1456944Y3902710D01*
X1451610Y3913123D01*
X3082543Y3986021D02*
G01*
X3072129Y3996436D01*
X3056636Y4001515D01*
X3035808Y4001515D01*
X3020313Y3996436D01*
X3009900Y3986021D01*
X3009900Y3975607D01*
X3014979Y3965194D01*
X3020313Y3959860D01*
X3030727Y3954779D01*
X3061970Y3944365D01*
X3072129Y3939286D01*
X3077463Y3933952D01*
X3082543Y3923537D01*
X3082543Y3908044D01*
X3072129Y3897629D01*
X3056636Y3892550D01*
X3035808Y3892550D01*
X3020313Y3897629D01*
X3009900Y3908044D01*
X3116834Y4001515D02*
G01*
X3142995Y3892550D01*
X3168904Y4001515D02*
G01*
X3142995Y3892550D01*
X3168904Y4001515D02*
G01*
X3194811Y3892550D01*
X3220720Y4001515D02*
G01*
X3194811Y3892550D01*
X3307079Y4001515D02*
G01*
X3255009Y3928871D01*
X3332988Y3928871D01*
X3307079Y4001515D02*
G01*
X3307079Y3892550D01*
X1536700Y2541015D02*
G01*
X1536700Y2463037D01*
X1541779Y2447544D01*
X1552194Y2437129D01*
X1567942Y2432050D01*
X1578355Y2432050D01*
X1593850Y2437129D01*
X1604263Y2447544D01*
X1609344Y2463037D01*
X1609344Y2541015D01*
X1648968Y2515107D02*
G01*
X1648968Y2520187D01*
X1654047Y2530602D01*
X1659381Y2535936D01*
X1669795Y2541015D01*
X1690370Y2541015D01*
X1700784Y2535936D01*
X1706118Y2530602D01*
X1711197Y2520187D01*
X1711197Y2509773D01*
X1706118Y2499360D01*
X1695704Y2483865D01*
X1643634Y2432050D01*
X1716531Y2432050D01*
D15*
X2070100Y1809242D02*
G01*
X2099563Y1731518D01*
X2129281Y1809242D02*
G01*
X2099563Y1731518D01*
X1757171Y2044700D02*
G01*
X1753615Y2052065D01*
X1746250Y2059431D01*
X1738629Y2063242D01*
X1723897Y2063242D01*
X1716531Y2059431D01*
X1709165Y2052065D01*
X1705610Y2044700D01*
X1701800Y2033778D01*
X1701800Y2015236D01*
X1705610Y2004060D01*
X1709165Y1996694D01*
X1716531Y1989328D01*
X1723897Y1985518D01*
X1738629Y1985518D01*
X1746250Y1989328D01*
X1753615Y1996694D01*
X1757171Y2004060D01*
X1757171Y2015236D01*
X1738629Y2015236D02*
G01*
X1757171Y2015236D01*
X1677415Y1531365D02*
G01*
X1670050Y1538731D01*
X1658873Y1542542D01*
X1644142Y1542542D01*
X1632965Y1538731D01*
X1625600Y1531365D01*
X1625600Y1524000D01*
X1629410Y1516634D01*
X1632965Y1513078D01*
X1640331Y1509268D01*
X1662429Y1501902D01*
X1670050Y1498092D01*
X1673605Y1494536D01*
X1677415Y1487170D01*
X1677415Y1475994D01*
X1670050Y1468628D01*
X1658873Y1464818D01*
X1644142Y1464818D01*
X1632965Y1468628D01*
X1625600Y1475994D01*
X1701800Y1542542D02*
G01*
X1701800Y1464818D01*
X1701800Y1542542D02*
G01*
X1727454Y1542542D01*
X1738629Y1538731D01*
X1745995Y1531365D01*
X1749805Y1524000D01*
X1753362Y1513078D01*
X1753362Y1494536D01*
X1749805Y1483360D01*
X1745995Y1475994D01*
X1738629Y1468628D01*
X1727454Y1464818D01*
X1701800Y1464818D01*
X1372615Y1531365D02*
G01*
X1365250Y1538731D01*
X1354073Y1542542D01*
X1339342Y1542542D01*
X1328165Y1538731D01*
X1320800Y1531365D01*
X1320800Y1524000D01*
X1324610Y1516634D01*
X1328165Y1513078D01*
X1335531Y1509268D01*
X1357629Y1501902D01*
X1365250Y1498092D01*
X1368805Y1494536D01*
X1372615Y1487170D01*
X1372615Y1475994D01*
X1365250Y1468628D01*
X1354073Y1464818D01*
X1339342Y1464818D01*
X1328165Y1468628D01*
X1320800Y1475994D01*
X1452371Y1524000D02*
G01*
X1448562Y1531365D01*
X1441195Y1538731D01*
X1433829Y1542542D01*
X1419097Y1542542D01*
X1411731Y1538731D01*
X1404365Y1531365D01*
X1400555Y1524000D01*
X1397000Y1513078D01*
X1397000Y1494536D01*
X1400555Y1483360D01*
X1404365Y1475994D01*
X1411731Y1468628D01*
X1419097Y1464818D01*
X1433829Y1464818D01*
X1441195Y1468628D01*
X1448562Y1475994D01*
X1452371Y1483360D01*
X1476755Y1542542D02*
G01*
X1476755Y1464818D01*
X1528318Y1542542D02*
G01*
X1476755Y1490726D01*
X1495297Y1509268D02*
G01*
X1528318Y1464818D01*
X1320800Y2063242D02*
G01*
X1320800Y1985518D01*
X1320800Y1985518D02*
G01*
X1365250Y1985518D01*
X1455928Y2077973D02*
G01*
X1389634Y1959863D01*
X1480312Y2063242D02*
G01*
X1480312Y1985518D01*
X1480312Y2063242D02*
G01*
X1513586Y2063242D01*
X1524762Y2059431D01*
X1528318Y2055876D01*
X1532128Y2048510D01*
X1532128Y2041144D01*
X1528318Y2033778D01*
X1524762Y2029968D01*
X1513586Y2026157D01*
X1480312Y2026157D01*
X1506220Y2026157D02*
G01*
X1532128Y1985518D01*
X863600Y1809242D02*
G01*
X882142Y1731518D01*
X900429Y1809242D02*
G01*
X882142Y1731518D01*
X900429Y1809242D02*
G01*
X918971Y1731518D01*
X937513Y1809242D02*
G01*
X918971Y1731518D01*
X1013713Y1798065D02*
G01*
X1006094Y1805431D01*
X995171Y1809242D01*
X980439Y1809242D01*
X969263Y1805431D01*
X961897Y1798065D01*
X961897Y1790700D01*
X965454Y1783334D01*
X969263Y1779778D01*
X976629Y1775968D01*
X998728Y1768602D01*
X1006094Y1764792D01*
X1009904Y1761236D01*
X1013713Y1753870D01*
X1013713Y1742694D01*
X1006094Y1735328D01*
X995171Y1731518D01*
X980439Y1731518D01*
X969263Y1735328D01*
X961897Y1742694D01*
D16*
X2594996Y2927192D02*
G01*
X2594996Y1233596D01*
X4372996Y1233596D02*
G01*
X4372996Y2927192D01*
D18*
X3842341Y3142769D02*
G01*
X4050924Y3142769D01*
D16*
X2798196Y1030396D02*
G01*
X4169796Y1030396D01*
X4169796Y3140562D02*
G01*
X2798196Y3140562D01*
X3941190Y885799D02*
G01*
X3029915Y885799D01*
X3029915Y1622399D01*
X3941190Y1622399D01*
X3941190Y885799D01*
X2032005Y7289800D02*
G01*
X2032005Y7035800D01*
X3048005Y7035800D01*
X3048005Y7289800D01*
X2032005Y7289800D01*
X1866823Y4076372D02*
G01*
X1866823Y4457372D01*
X3213023Y4457372D01*
X3213023Y4089072D01*
X3086023Y4089072D01*
X791540Y7408674D02*
G01*
X4310532Y7408674D01*
X4310532Y4079674D01*
X791540Y4079674D01*
X791540Y7408674D01*
X1970024Y3761486D02*
G01*
X2160015Y3761486D01*
X2250186Y3671315D01*
X2250186Y3491484D01*
X2150109Y3391407D01*
X1980184Y3391407D01*
X1890013Y3481578D01*
X1890013Y3681476D01*
X1970024Y3761486D01*
X2197608Y3836415D02*
G01*
X2287115Y3746908D01*
X2325115Y3698239D02*
G01*
X2325115Y3464560D01*
X2287115Y3415891D02*
G01*
X2197608Y3326384D01*
X1815084Y3698239D02*
G01*
X1815084Y3464560D01*
X1853084Y3415891D02*
G01*
X1942591Y3326384D01*
X1942591Y3836415D02*
G01*
X1853084Y3746908D01*
X1942591Y3326384D02*
G01*
X2197608Y3326384D01*
X1942591Y3836415D02*
G01*
X2197608Y3836415D01*
X3760724Y3761486D02*
G01*
X3950715Y3761486D01*
X4040886Y3671315D01*
X4040886Y3491484D01*
X3940809Y3391407D01*
X3770884Y3391407D01*
X3680713Y3481578D01*
X3680713Y3681476D01*
X3760724Y3761486D01*
X3988308Y3836415D02*
G01*
X4077815Y3746908D01*
X4115815Y3698239D02*
G01*
X4115815Y3464560D01*
X4077815Y3415891D02*
G01*
X3988308Y3326384D01*
X3605784Y3698239D02*
G01*
X3605784Y3464560D01*
X3643784Y3415891D02*
G01*
X3733291Y3326384D01*
X3733291Y3836415D02*
G01*
X3643784Y3746908D01*
X3733291Y3326384D02*
G01*
X3988308Y3326384D01*
X3733291Y3836415D02*
G01*
X3988308Y3836415D01*
X1106423Y3761486D02*
G01*
X1296415Y3761486D01*
X1386586Y3671315D01*
X1386586Y3491484D01*
X1286510Y3391407D01*
X1116584Y3391407D01*
X1026413Y3481578D01*
X1026413Y3681476D01*
X1106423Y3761486D01*
X1334007Y3836415D02*
G01*
X1423515Y3746908D01*
X1461515Y3698239D02*
G01*
X1461515Y3464560D01*
X1423515Y3415891D02*
G01*
X1334007Y3326384D01*
X951484Y3698239D02*
G01*
X951484Y3464560D01*
X989484Y3415891D02*
G01*
X1078992Y3326384D01*
X1078992Y3836415D02*
G01*
X989484Y3746908D01*
X1078992Y3326384D02*
G01*
X1334007Y3326384D01*
X1078992Y3836415D02*
G01*
X1334007Y3836415D01*
X2909824Y3761486D02*
G01*
X3099815Y3761486D01*
X3189986Y3671315D01*
X3189986Y3491484D01*
X3089909Y3391407D01*
X2919984Y3391407D01*
X2829813Y3481578D01*
X2829813Y3681476D01*
X2909824Y3761486D01*
X3137408Y3836415D02*
G01*
X3226915Y3746908D01*
X3264915Y3698239D02*
G01*
X3264915Y3464560D01*
X3226915Y3415891D02*
G01*
X3137408Y3326384D01*
X2754884Y3698239D02*
G01*
X2754884Y3464560D01*
X2792884Y3415891D02*
G01*
X2882391Y3326384D01*
X2882391Y3836415D02*
G01*
X2792884Y3746908D01*
X2882391Y3326384D02*
G01*
X3137408Y3326384D01*
X2882391Y3836415D02*
G01*
X3137408Y3836415D01*
X1028700Y2146300D02*
G01*
X1282700Y2146300D01*
X1282700Y1384300D01*
X1028700Y1384300D01*
X1028700Y2146300D01*
X1790700Y2146300D02*
G01*
X2044700Y2146300D01*
X2044700Y1384300D01*
X1790700Y1384300D01*
X1790700Y2146300D01*
G75*
G01*
X4372999Y2927198D02*
G03*
X4169799Y3140558I-208269J5090D01*
G75*
G01*
X4169799Y1030402D02*
G03*
X4372999Y1233602I0J203200D01*
G75*
G01*
X2798199Y3140558D02*
G03*
X2594999Y2927198I5068J-208270D01*
G75*
G01*
X2594999Y1233602D02*
G03*
X2798199Y1030402I203200J0D01*
G75*
G01
X2197608Y3581400D02*
G03X2197608Y3581400I-127508J0D01*
G75*
G01
X3988308Y3581400D02*
G03X3988308Y3581400I-127508J0D01*
G75*
G01
X1334008Y3581400D02*
G03X1334008Y3581400I-127508J0D01*
G75*
G01
X3137408Y3581400D02*
G03X3137408Y3581400I-127508J0D01*
M02*
